<?xml version="1.0" encoding="UTF-8" standalone="no"?>
<!DOCTYPE svg PUBLIC "-//W3C//DTD SVG 1.1//EN"
 "http://www.w3.org/Graphics/SVG/1.1/DTD/svg11.dtd">
<!-- Generated by graphviz version 13.1.2 (20250809.0930)
 -->
<!-- Pages: 1 -->
<svg width="350pt" height="116pt"
 viewBox="0.00 0.00 350.00 116.00" xmlns="http://www.w3.org/2000/svg" xmlns:xlink="http://www.w3.org/1999/xlink">
<g id="graph0" class="graph" transform="scale(1 1) rotate(0) translate(4 112)">
<polygon fill="white" stroke="none" points="-4,4 -4,-112 346,-112 346,4 -4,4"/>
<!-- var4683743612465315841 -->
<g id="node1" class="node">
<title>var4683743612465315841</title>
<polygon fill="none" stroke="black" points="54,-108 0,-108 0,-72 54,-72 54,-108"/>
<text xml:space="preserve" text-anchor="middle" x="27" y="-85.33" font-family="Times,serif" font-size="14.00">A1</text>
</g>
<!-- var6341068275337658370 -->
<g id="node6" class="node">
<title>var6341068275337658370</title>
<ellipse fill="none" stroke="black" cx="99" cy="-18" rx="27" ry="18"/>
<text xml:space="preserve" text-anchor="middle" x="99" y="-13.32" font-family="Times,serif" font-size="14.00">X2</text>
</g>
<!-- var4683743612465315841&#45;&gt;var6341068275337658370 -->
<g id="edge2" class="edge">
<title>var4683743612465315841&#45;&gt;var6341068275337658370</title>
<path fill="none" stroke="black" d="M45.17,-71.83C54.54,-62.46 66.07,-50.93 76.05,-40.95"/>
<polygon fill="black" stroke="black" points="78.33,-43.62 82.92,-34.08 73.38,-38.67 78.33,-43.62"/>
</g>
<!-- var4683743612465315842 -->
<g id="node2" class="node">
<title>var4683743612465315842</title>
<polygon fill="none" stroke="black" points="126,-108 72,-108 72,-72 126,-72 126,-108"/>
<text xml:space="preserve" text-anchor="middle" x="99" y="-85.33" font-family="Times,serif" font-size="14.00">A2</text>
</g>
<!-- var6341068275337658371 -->
<g id="node7" class="node">
<title>var6341068275337658371</title>
<ellipse fill="none" stroke="black" cx="171" cy="-18" rx="27" ry="18"/>
<text xml:space="preserve" text-anchor="middle" x="171" y="-13.32" font-family="Times,serif" font-size="14.00">X3</text>
</g>
<!-- var4683743612465315842&#45;&gt;var6341068275337658371 -->
<g id="edge4" class="edge">
<title>var4683743612465315842&#45;&gt;var6341068275337658371</title>
<path fill="none" stroke="black" d="M117.17,-71.83C126.54,-62.46 138.07,-50.93 148.05,-40.95"/>
<polygon fill="black" stroke="black" points="150.33,-43.62 154.92,-34.08 145.38,-38.67 150.33,-43.62"/>
</g>
<!-- var4683743612465315843 -->
<g id="node3" class="node">
<title>var4683743612465315843</title>
<polygon fill="none" stroke="black" points="198,-108 144,-108 144,-72 198,-72 198,-108"/>
<text xml:space="preserve" text-anchor="middle" x="171" y="-85.33" font-family="Times,serif" font-size="14.00">A3</text>
</g>
<!-- var6341068275337658372 -->
<g id="node8" class="node">
<title>var6341068275337658372</title>
<ellipse fill="none" stroke="black" cx="243" cy="-18" rx="27" ry="18"/>
<text xml:space="preserve" text-anchor="middle" x="243" y="-13.32" font-family="Times,serif" font-size="14.00">X4</text>
</g>
<!-- var4683743612465315843&#45;&gt;var6341068275337658372 -->
<g id="edge6" class="edge">
<title>var4683743612465315843&#45;&gt;var6341068275337658372</title>
<path fill="none" stroke="black" d="M189.17,-71.83C198.54,-62.46 210.07,-50.93 220.05,-40.95"/>
<polygon fill="black" stroke="black" points="222.33,-43.62 226.92,-34.08 217.38,-38.67 222.33,-43.62"/>
</g>
<!-- var4683743612465315844 -->
<g id="node4" class="node">
<title>var4683743612465315844</title>
<polygon fill="none" stroke="black" points="270,-108 216,-108 216,-72 270,-72 270,-108"/>
<text xml:space="preserve" text-anchor="middle" x="243" y="-85.33" font-family="Times,serif" font-size="14.00">A4</text>
</g>
<!-- var6341068275337658373 -->
<g id="node9" class="node">
<title>var6341068275337658373</title>
<ellipse fill="none" stroke="black" cx="315" cy="-18" rx="27" ry="18"/>
<text xml:space="preserve" text-anchor="middle" x="315" y="-13.32" font-family="Times,serif" font-size="14.00">X5</text>
</g>
<!-- var4683743612465315844&#45;&gt;var6341068275337658373 -->
<g id="edge8" class="edge">
<title>var4683743612465315844&#45;&gt;var6341068275337658373</title>
<path fill="none" stroke="black" d="M261.17,-71.83C270.54,-62.46 282.07,-50.93 292.05,-40.95"/>
<polygon fill="black" stroke="black" points="294.33,-43.62 298.92,-34.08 289.38,-38.67 294.33,-43.62"/>
</g>
<!-- var6341068275337658369 -->
<g id="node5" class="node">
<title>var6341068275337658369</title>
<ellipse fill="none" stroke="black" cx="27" cy="-18" rx="27" ry="18"/>
<text xml:space="preserve" text-anchor="middle" x="27" y="-13.32" font-family="Times,serif" font-size="14.00">X1</text>
</g>
<!-- var6341068275337658369&#45;&gt;var6341068275337658370 -->
<g id="edge1" class="edge">
<title>var6341068275337658369&#45;&gt;var6341068275337658370</title>
<path fill="none" stroke="black" d="M54.22,-18C56.28,-18 58.38,-18 60.5,-18"/>
<polygon fill="black" stroke="black" points="60.23,-21.5 70.23,-18 60.23,-14.5 60.23,-21.5"/>
</g>
<!-- var6341068275337658370&#45;&gt;var6341068275337658371 -->
<g id="edge3" class="edge">
<title>var6341068275337658370&#45;&gt;var6341068275337658371</title>
<path fill="none" stroke="black" d="M126.22,-18C128.28,-18 130.38,-18 132.5,-18"/>
<polygon fill="black" stroke="black" points="132.23,-21.5 142.23,-18 132.23,-14.5 132.23,-21.5"/>
</g>
<!-- var6341068275337658371&#45;&gt;var6341068275337658372 -->
<g id="edge5" class="edge">
<title>var6341068275337658371&#45;&gt;var6341068275337658372</title>
<path fill="none" stroke="black" d="M198.22,-18C200.28,-18 202.38,-18 204.5,-18"/>
<polygon fill="black" stroke="black" points="204.23,-21.5 214.23,-18 204.23,-14.5 204.23,-21.5"/>
</g>
<!-- var6341068275337658372&#45;&gt;var6341068275337658373 -->
<g id="edge7" class="edge">
<title>var6341068275337658372&#45;&gt;var6341068275337658373</title>
<path fill="none" stroke="black" d="M270.22,-18C272.28,-18 274.38,-18 276.5,-18"/>
<polygon fill="black" stroke="black" points="276.23,-21.5 286.23,-18 276.23,-14.5 276.23,-21.5"/>
</g>
</g>
</svg>