<?xml version="1.0" encoding="UTF-8" standalone="no"?>
<!DOCTYPE svg PUBLIC "-//W3C//DTD SVG 1.1//EN"
 "http://www.w3.org/Graphics/SVG/1.1/DTD/svg11.dtd">
<!-- Generated by graphviz version 8.1.0 (20230707.2238)
 -->
<!-- Pages: 1 -->
<svg width="206pt" height="188pt"
 viewBox="0.00 0.00 206.00 188.00" xmlns="http://www.w3.org/2000/svg" xmlns:xlink="http://www.w3.org/1999/xlink">
<g id="graph0" class="graph" transform="scale(1 1) rotate(0) translate(4 184)">
<polygon fill="white" stroke="none" points="-4,4 -4,-184 202,-184 202,4 -4,4"/>
<!-- var4683743612465315841 -->
<g id="node1" class="node">
<title>var4683743612465315841</title>
<polygon fill="none" stroke="black" points="54,-180 0,-180 0,-144 54,-144 54,-180"/>
<text text-anchor="middle" x="27" y="-157.32" font-family="Times,serif" font-size="14.00">A1</text>
</g>
<!-- var4755801206503243778 -->
<g id="node4" class="node">
<title>var4755801206503243778</title>
<ellipse fill="none" stroke="black" cx="99" cy="-18" rx="27" ry="18"/>
<text text-anchor="middle" x="99" y="-13.32" font-family="Times,serif" font-size="14.00">B2</text>
</g>
<!-- var4683743612465315841&#45;&gt;var4755801206503243778 -->
<g id="edge5" class="edge">
<title>var4683743612465315841&#45;&gt;var4755801206503243778</title>
<path fill="none" stroke="black" d="M36.12,-143.76C48.59,-118.82 71.05,-73.89 85.48,-45.03"/>
<polygon fill="black" stroke="black" points="89.06,-46.7 90.4,-36.19 82.8,-43.57 89.06,-46.7"/>
</g>
<!-- var6341068275337658370 -->
<g id="node7" class="node">
<title>var6341068275337658370</title>
<ellipse fill="none" stroke="black" cx="99" cy="-90" rx="27" ry="18"/>
<text text-anchor="middle" x="99" y="-85.33" font-family="Times,serif" font-size="14.00">X2</text>
</g>
<!-- var4683743612465315841&#45;&gt;var6341068275337658370 -->
<g id="edge8" class="edge">
<title>var4683743612465315841&#45;&gt;var6341068275337658370</title>
<path fill="none" stroke="black" d="M45.17,-143.83C54.64,-134.36 66.3,-122.7 76.35,-112.65"/>
<polygon fill="black" stroke="black" points="78.4,-115.55 82.99,-106.01 73.45,-110.6 78.4,-115.55"/>
</g>
<!-- var4683743612465315842 -->
<g id="node2" class="node">
<title>var4683743612465315842</title>
<polygon fill="none" stroke="black" points="126,-180 72,-180 72,-144 126,-144 126,-180"/>
<text text-anchor="middle" x="99" y="-157.32" font-family="Times,serif" font-size="14.00">A2</text>
</g>
<!-- var4755801206503243779 -->
<g id="node5" class="node">
<title>var4755801206503243779</title>
<ellipse fill="none" stroke="black" cx="171" cy="-18" rx="27" ry="18"/>
<text text-anchor="middle" x="171" y="-13.32" font-family="Times,serif" font-size="14.00">B3</text>
</g>
<!-- var4683743612465315842&#45;&gt;var4755801206503243779 -->
<g id="edge1" class="edge">
<title>var4683743612465315842&#45;&gt;var4755801206503243779</title>
<path fill="none" stroke="black" d="M108.12,-143.76C120.59,-118.82 143.05,-73.89 157.48,-45.03"/>
<polygon fill="black" stroke="black" points="161.06,-46.7 162.4,-36.19 154.8,-43.57 161.06,-46.7"/>
</g>
<!-- var6341068275337658371 -->
<g id="node8" class="node">
<title>var6341068275337658371</title>
<ellipse fill="none" stroke="black" cx="171" cy="-90" rx="27" ry="18"/>
<text text-anchor="middle" x="171" y="-85.33" font-family="Times,serif" font-size="14.00">X3</text>
</g>
<!-- var4683743612465315842&#45;&gt;var6341068275337658371 -->
<g id="edge4" class="edge">
<title>var4683743612465315842&#45;&gt;var6341068275337658371</title>
<path fill="none" stroke="black" d="M117.17,-143.83C126.64,-134.36 138.3,-122.7 148.35,-112.65"/>
<polygon fill="black" stroke="black" points="150.4,-115.55 154.99,-106.01 145.45,-110.6 150.4,-115.55"/>
</g>
<!-- var4755801206503243777 -->
<g id="node3" class="node">
<title>var4755801206503243777</title>
<ellipse fill="none" stroke="black" cx="27" cy="-18" rx="27" ry="18"/>
<text text-anchor="middle" x="27" y="-13.32" font-family="Times,serif" font-size="14.00">B1</text>
</g>
<!-- var4755801206503243777&#45;&gt;var4755801206503243778 -->
<g id="edge6" class="edge">
<title>var4755801206503243777&#45;&gt;var4755801206503243778</title>
<path fill="none" stroke="black" d="M54.22,-18C56.37,-18 58.57,-18 60.77,-18"/>
<polygon fill="black" stroke="black" points="60.74,-21.5 70.74,-18 60.74,-14.5 60.74,-21.5"/>
</g>
<!-- var4755801206503243778&#45;&gt;var4755801206503243779 -->
<g id="edge2" class="edge">
<title>var4755801206503243778&#45;&gt;var4755801206503243779</title>
<path fill="none" stroke="black" d="M126.22,-18C128.37,-18 130.57,-18 132.77,-18"/>
<polygon fill="black" stroke="black" points="132.74,-21.5 142.74,-18 132.74,-14.5 132.74,-21.5"/>
</g>
<!-- var6341068275337658369 -->
<g id="node6" class="node">
<title>var6341068275337658369</title>
<ellipse fill="none" stroke="black" cx="27" cy="-90" rx="27" ry="18"/>
<text text-anchor="middle" x="27" y="-85.33" font-family="Times,serif" font-size="14.00">X1</text>
</g>
<!-- var6341068275337658369&#45;&gt;var6341068275337658370 -->
<g id="edge7" class="edge">
<title>var6341068275337658369&#45;&gt;var6341068275337658370</title>
<path fill="none" stroke="black" d="M54.22,-90C56.37,-90 58.57,-90 60.77,-90"/>
<polygon fill="black" stroke="black" points="60.74,-93.5 70.74,-90 60.74,-86.5 60.74,-93.5"/>
</g>
<!-- var6341068275337658370&#45;&gt;var6341068275337658371 -->
<g id="edge3" class="edge">
<title>var6341068275337658370&#45;&gt;var6341068275337658371</title>
<path fill="none" stroke="black" d="M126.22,-90C128.37,-90 130.57,-90 132.77,-90"/>
<polygon fill="black" stroke="black" points="132.74,-93.5 142.74,-90 132.74,-86.5 132.74,-93.5"/>
</g>
</g>
</svg>