<?xml version="1.0" encoding="UTF-8" standalone="no"?>
<!DOCTYPE svg PUBLIC "-//W3C//DTD SVG 1.1//EN"
 "http://www.w3.org/Graphics/SVG/1.1/DTD/svg11.dtd">
<!-- Generated by graphviz version 8.1.0 (20230707.2238)
 -->
<!-- Title: G Pages: 1 -->
<svg width="1070pt" height="177pt"
 viewBox="0.00 0.00 1070.00 177.20" xmlns="http://www.w3.org/2000/svg" xmlns:xlink="http://www.w3.org/1999/xlink">
<g id="graph0" class="graph" transform="scale(1 1) rotate(0) translate(4 173.2)">
<title>G</title>
<polygon fill="white" stroke="none" points="-4,4 -4,-173.2 1066,-173.2 1066,4 -4,4"/>
<!-- 0x55dca3e18350 -->
<g id="node1" class="node">
<title>0x55dca3e18350</title>
<ellipse fill="none" stroke="black" cx="531" cy="-151.2" rx="18" ry="18"/>
<text text-anchor="middle" x="531" y="-146.52" font-family="Times,serif" font-size="14.00">2</text>
</g>
<!-- 0x55dca38c6de0 -->
<g id="node2" class="node">
<title>0x55dca38c6de0</title>
<ellipse fill="none" stroke="black" cx="135" cy="-79.2" rx="18" ry="18"/>
<text text-anchor="middle" x="135" y="-74.52" font-family="Times,serif" font-size="14.00">1</text>
</g>
<!-- 0x55dca3e18350&#45;&gt;0x55dca38c6de0 -->
<g id="edge1" class="edge">
<title>0x55dca3e18350&#45;&gt;0x55dca38c6de0</title>
<path fill="none" stroke="black" d="M513.22,-147.06C450.66,-136 240.4,-98.83 163.49,-85.24"/>
<polygon fill="black" stroke="black" points="164.19,-81.63 153.74,-83.34 162.97,-88.52 164.19,-81.63"/>
</g>
<!-- 0x55dca3a21430 -->
<g id="node6" class="node">
<title>0x55dca3a21430</title>
<ellipse fill="none" stroke="black" cx="351" cy="-79.2" rx="18" ry="18"/>
<text text-anchor="middle" x="351" y="-74.52" font-family="Times,serif" font-size="14.00">1</text>
</g>
<!-- 0x55dca3e18350&#45;&gt;0x55dca3a21430 -->
<g id="edge5" class="edge">
<title>0x55dca3e18350&#45;&gt;0x55dca3a21430</title>
<path fill="none" stroke="black" d="M514.39,-143.74C483.12,-131.58 415.3,-105.21 377.61,-90.55"/>
<polygon fill="black" stroke="black" points="379.42,-87.11 368.83,-86.75 376.88,-93.63 379.42,-87.11"/>
</g>
<!-- 0x55dca3be14a0 -->
<g id="node10" class="node">
<title>0x55dca3be14a0</title>
<ellipse fill="none" stroke="black" cx="531" cy="-79.2" rx="18" ry="18"/>
<text text-anchor="middle" x="531" y="-74.52" font-family="Times,serif" font-size="14.00">1</text>
</g>
<!-- 0x55dca3e18350&#45;&gt;0x55dca3be14a0 -->
<g id="edge9" class="edge">
<title>0x55dca3e18350&#45;&gt;0x55dca3be14a0</title>
<path fill="none" stroke="black" d="M531,-132.9C531,-125.44 531,-116.52 531,-108.17"/>
<polygon fill="black" stroke="black" points="534.5,-108.3 531,-98.3 527.5,-108.3 534.5,-108.3"/>
</g>
<!-- 0x55dca3cef6c0 -->
<g id="node14" class="node">
<title>0x55dca3cef6c0</title>
<ellipse fill="none" stroke="black" cx="711" cy="-79.2" rx="18" ry="18"/>
<text text-anchor="middle" x="711" y="-74.52" font-family="Times,serif" font-size="14.00">1</text>
</g>
<!-- 0x55dca3e18350&#45;&gt;0x55dca3cef6c0 -->
<g id="edge13" class="edge">
<title>0x55dca3e18350&#45;&gt;0x55dca3cef6c0</title>
<path fill="none" stroke="black" d="M547.61,-143.74C578.88,-131.58 646.7,-105.21 684.39,-90.55"/>
<polygon fill="black" stroke="black" points="685.12,-93.63 693.17,-86.75 682.58,-87.11 685.12,-93.63"/>
</g>
<!-- 0x55dca3c04810 -->
<g id="node18" class="node">
<title>0x55dca3c04810</title>
<ellipse fill="none" stroke="black" cx="927" cy="-79.2" rx="18" ry="18"/>
<text text-anchor="middle" x="927" y="-74.52" font-family="Times,serif" font-size="14.00">1</text>
</g>
<!-- 0x55dca3e18350&#45;&gt;0x55dca3c04810 -->
<g id="edge17" class="edge">
<title>0x55dca3e18350&#45;&gt;0x55dca3c04810</title>
<path fill="none" stroke="black" d="M548.78,-147.06C611.34,-136 821.6,-98.83 898.51,-85.24"/>
<polygon fill="black" stroke="black" points="899.03,-88.52 908.26,-83.34 897.81,-81.63 899.03,-88.52"/>
</g>
<!-- 0x55dca3d77290 -->
<g id="node3" class="node">
<title>0x55dca3d77290</title>
<polygon fill="none" stroke="black" points="54,-25.2 0,-25.2 0,0 54,0 54,-25.2"/>
<text text-anchor="middle" x="27" y="-7.93" font-family="Times,serif" font-size="14.00">0.02</text>
</g>
<!-- 0x55dca38c6de0&#45;&gt;0x55dca3d77290 -->
<g id="edge2" class="edge">
<title>0x55dca38c6de0&#45;&gt;0x55dca3d77290</title>
<path fill="none" stroke="black" d="M119.98,-69.22C103.57,-59.4 76.87,-43.43 56.29,-31.12"/>
<polygon fill="black" stroke="black" points="58.41,-27.71 48.03,-25.58 54.81,-33.72 58.41,-27.71"/>
</g>
<!-- 0x55dca3def080 -->
<g id="node4" class="node">
<title>0x55dca3def080</title>
<polygon fill="none" stroke="black" points="126,-25.2 72,-25.2 72,0 126,0 126,-25.2"/>
<text text-anchor="middle" x="99" y="-7.93" font-family="Times,serif" font-size="14.00">0.88</text>
</g>
<!-- 0x55dca38c6de0&#45;&gt;0x55dca3def080 -->
<g id="edge3" class="edge">
<title>0x55dca38c6de0&#45;&gt;0x55dca3def080</title>
<path fill="none" stroke="black" d="M126.47,-62.89C121.82,-54.54 115.98,-44.07 110.89,-34.94"/>
<polygon fill="black" stroke="black" points="113.48,-33.4 105.56,-26.37 107.37,-36.81 113.48,-33.4"/>
</g>
<!-- 0x55dca3be9cc0 -->
<g id="node5" class="node">
<title>0x55dca3be9cc0</title>
<polygon fill="none" stroke="black" points="198,-25.2 144,-25.2 144,0 198,0 198,-25.2"/>
<text text-anchor="middle" x="171" y="-7.93" font-family="Times,serif" font-size="14.00"> 0.1</text>
</g>
<!-- 0x55dca38c6de0&#45;&gt;0x55dca3be9cc0 -->
<g id="edge4" class="edge">
<title>0x55dca38c6de0&#45;&gt;0x55dca3be9cc0</title>
<path fill="none" stroke="black" d="M143.53,-62.89C148.18,-54.54 154.02,-44.07 159.11,-34.94"/>
<polygon fill="black" stroke="black" points="162.63,-36.81 164.44,-26.37 156.52,-33.4 162.63,-36.81"/>
</g>
<!-- 0x55dca3e0ff30 -->
<g id="node7" class="node">
<title>0x55dca3e0ff30</title>
<polygon fill="none" stroke="black" points="270,-25.2 216,-25.2 216,0 270,0 270,-25.2"/>
<text text-anchor="middle" x="243" y="-7.93" font-family="Times,serif" font-size="14.00">0.02</text>
</g>
<!-- 0x55dca3a21430&#45;&gt;0x55dca3e0ff30 -->
<g id="edge6" class="edge">
<title>0x55dca3a21430&#45;&gt;0x55dca3e0ff30</title>
<path fill="none" stroke="black" d="M335.98,-69.22C319.57,-59.4 292.87,-43.43 272.29,-31.12"/>
<polygon fill="black" stroke="black" points="274.41,-27.71 264.03,-25.58 270.81,-33.72 274.41,-27.71"/>
</g>
<!-- 0x55dca3cf61e0 -->
<g id="node8" class="node">
<title>0x55dca3cf61e0</title>
<polygon fill="none" stroke="black" points="342,-25.2 288,-25.2 288,0 342,0 342,-25.2"/>
<text text-anchor="middle" x="315" y="-7.93" font-family="Times,serif" font-size="14.00"> 0.2</text>
</g>
<!-- 0x55dca3a21430&#45;&gt;0x55dca3cf61e0 -->
<g id="edge7" class="edge">
<title>0x55dca3a21430&#45;&gt;0x55dca3cf61e0</title>
<path fill="none" stroke="black" d="M342.47,-62.89C337.82,-54.54 331.98,-44.07 326.89,-34.94"/>
<polygon fill="black" stroke="black" points="329.48,-33.4 321.56,-26.37 323.37,-36.81 329.48,-33.4"/>
</g>
<!-- 0x55dca368a650 -->
<g id="node9" class="node">
<title>0x55dca368a650</title>
<polygon fill="none" stroke="black" points="414,-25.2 360,-25.2 360,0 414,0 414,-25.2"/>
<text text-anchor="middle" x="387" y="-7.93" font-family="Times,serif" font-size="14.00">0.78</text>
</g>
<!-- 0x55dca3a21430&#45;&gt;0x55dca368a650 -->
<g id="edge8" class="edge">
<title>0x55dca3a21430&#45;&gt;0x55dca368a650</title>
<path fill="none" stroke="black" d="M359.53,-62.89C364.18,-54.54 370.02,-44.07 375.11,-34.94"/>
<polygon fill="black" stroke="black" points="378.63,-36.81 380.44,-26.37 372.52,-33.4 378.63,-36.81"/>
</g>
<!-- 0x55dca3b908e0 -->
<g id="node11" class="node">
<title>0x55dca3b908e0</title>
<polygon fill="none" stroke="black" points="486,-25.2 432,-25.2 432,0 486,0 486,-25.2"/>
<text text-anchor="middle" x="459" y="-7.93" font-family="Times,serif" font-size="14.00">0.33</text>
</g>
<!-- 0x55dca3be14a0&#45;&gt;0x55dca3b908e0 -->
<g id="edge10" class="edge">
<title>0x55dca3be14a0&#45;&gt;0x55dca3b908e0</title>
<path fill="none" stroke="black" d="M517.79,-66.35C507.24,-56.88 492.24,-43.43 480.04,-32.47"/>
<polygon fill="black" stroke="black" points="482.9,-30.45 473.12,-26.37 478.23,-35.66 482.9,-30.45"/>
</g>
<!-- 0x55dca3de1ce0 -->
<g id="node12" class="node">
<title>0x55dca3de1ce0</title>
<polygon fill="none" stroke="black" points="558,-25.2 504,-25.2 504,0 558,0 558,-25.2"/>
<text text-anchor="middle" x="531" y="-7.93" font-family="Times,serif" font-size="14.00">0.33</text>
</g>
<!-- 0x55dca3be14a0&#45;&gt;0x55dca3de1ce0 -->
<g id="edge11" class="edge">
<title>0x55dca3be14a0&#45;&gt;0x55dca3de1ce0</title>
<path fill="none" stroke="black" d="M531,-60.89C531,-53.36 531,-44.42 531,-36.36"/>
<polygon fill="black" stroke="black" points="534.5,-36.44 531,-26.44 527.5,-36.44 534.5,-36.44"/>
</g>
<!-- 0x55dca3ae68b0 -->
<g id="node13" class="node">
<title>0x55dca3ae68b0</title>
<polygon fill="none" stroke="black" points="630,-25.2 576,-25.2 576,0 630,0 630,-25.2"/>
<text text-anchor="middle" x="603" y="-7.93" font-family="Times,serif" font-size="14.00">0.34</text>
</g>
<!-- 0x55dca3be14a0&#45;&gt;0x55dca3ae68b0 -->
<g id="edge12" class="edge">
<title>0x55dca3be14a0&#45;&gt;0x55dca3ae68b0</title>
<path fill="none" stroke="black" d="M544.21,-66.35C554.76,-56.88 569.76,-43.43 581.96,-32.47"/>
<polygon fill="black" stroke="black" points="583.77,-35.66 588.88,-26.37 579.1,-30.45 583.77,-35.66"/>
</g>
<!-- 0x55dca3bfdb50 -->
<g id="node15" class="node">
<title>0x55dca3bfdb50</title>
<polygon fill="none" stroke="black" points="702,-25.2 648,-25.2 648,0 702,0 702,-25.2"/>
<text text-anchor="middle" x="675" y="-7.93" font-family="Times,serif" font-size="14.00">0.33</text>
</g>
<!-- 0x55dca3cef6c0&#45;&gt;0x55dca3bfdb50 -->
<g id="edge14" class="edge">
<title>0x55dca3cef6c0&#45;&gt;0x55dca3bfdb50</title>
<path fill="none" stroke="black" d="M702.47,-62.89C697.82,-54.54 691.98,-44.07 686.89,-34.94"/>
<polygon fill="black" stroke="black" points="689.48,-33.4 681.56,-26.37 683.37,-36.81 689.48,-33.4"/>
</g>
<!-- 0x55dca3b2e270 -->
<g id="node16" class="node">
<title>0x55dca3b2e270</title>
<polygon fill="none" stroke="black" points="774,-25.2 720,-25.2 720,0 774,0 774,-25.2"/>
<text text-anchor="middle" x="747" y="-7.93" font-family="Times,serif" font-size="14.00">0.33</text>
</g>
<!-- 0x55dca3cef6c0&#45;&gt;0x55dca3b2e270 -->
<g id="edge15" class="edge">
<title>0x55dca3cef6c0&#45;&gt;0x55dca3b2e270</title>
<path fill="none" stroke="black" d="M719.53,-62.89C724.18,-54.54 730.02,-44.07 735.11,-34.94"/>
<polygon fill="black" stroke="black" points="738.63,-36.81 740.44,-26.37 732.52,-33.4 738.63,-36.81"/>
</g>
<!-- 0x55dca3a624b0 -->
<g id="node17" class="node">
<title>0x55dca3a624b0</title>
<polygon fill="none" stroke="black" points="846,-25.2 792,-25.2 792,0 846,0 846,-25.2"/>
<text text-anchor="middle" x="819" y="-7.93" font-family="Times,serif" font-size="14.00">0.34</text>
</g>
<!-- 0x55dca3cef6c0&#45;&gt;0x55dca3a624b0 -->
<g id="edge16" class="edge">
<title>0x55dca3cef6c0&#45;&gt;0x55dca3a624b0</title>
<path fill="none" stroke="black" d="M726.02,-69.22C742.43,-59.4 769.13,-43.43 789.71,-31.12"/>
<polygon fill="black" stroke="black" points="791.19,-33.72 797.97,-25.58 787.59,-27.71 791.19,-33.72"/>
</g>
<!-- 0x55dca3beeb50 -->
<g id="node19" class="node">
<title>0x55dca3beeb50</title>
<polygon fill="none" stroke="black" points="918,-25.2 864,-25.2 864,0 918,0 918,-25.2"/>
<text text-anchor="middle" x="891" y="-7.93" font-family="Times,serif" font-size="14.00">0.95</text>
</g>
<!-- 0x55dca3c04810&#45;&gt;0x55dca3beeb50 -->
<g id="edge18" class="edge">
<title>0x55dca3c04810&#45;&gt;0x55dca3beeb50</title>
<path fill="none" stroke="black" d="M918.47,-62.89C913.82,-54.54 907.98,-44.07 902.89,-34.94"/>
<polygon fill="black" stroke="black" points="905.48,-33.4 897.56,-26.37 899.37,-36.81 905.48,-33.4"/>
</g>
<!-- 0x55dca3bc4920 -->
<g id="node20" class="node">
<title>0x55dca3bc4920</title>
<polygon fill="none" stroke="black" points="990,-25.2 936,-25.2 936,0 990,0 990,-25.2"/>
<text text-anchor="middle" x="963" y="-7.93" font-family="Times,serif" font-size="14.00">0.02</text>
</g>
<!-- 0x55dca3c04810&#45;&gt;0x55dca3bc4920 -->
<g id="edge19" class="edge">
<title>0x55dca3c04810&#45;&gt;0x55dca3bc4920</title>
<path fill="none" stroke="black" d="M935.53,-62.89C940.18,-54.54 946.02,-44.07 951.11,-34.94"/>
<polygon fill="black" stroke="black" points="954.63,-36.81 956.44,-26.37 948.52,-33.4 954.63,-36.81"/>
</g>
<!-- 0x55dca37dc560 -->
<g id="node21" class="node">
<title>0x55dca37dc560</title>
<polygon fill="none" stroke="black" points="1062,-25.2 1008,-25.2 1008,0 1062,0 1062,-25.2"/>
<text text-anchor="middle" x="1035" y="-7.93" font-family="Times,serif" font-size="14.00">0.03</text>
</g>
<!-- 0x55dca3c04810&#45;&gt;0x55dca37dc560 -->
<g id="edge20" class="edge">
<title>0x55dca3c04810&#45;&gt;0x55dca37dc560</title>
<path fill="none" stroke="black" d="M942.02,-69.22C958.43,-59.4 985.13,-43.43 1005.71,-31.12"/>
<polygon fill="black" stroke="black" points="1007.19,-33.72 1013.97,-25.58 1003.59,-27.71 1007.19,-33.72"/>
</g>
</g>
</svg>