<?xml version="1.0" encoding="UTF-8" standalone="no"?>
<!DOCTYPE svg PUBLIC "-//W3C//DTD SVG 1.1//EN"
 "http://www.w3.org/Graphics/SVG/1.1/DTD/svg11.dtd">
<!-- Generated by graphviz version 8.1.0 (20230707.2238)
 -->
<!-- Title: G Pages: 1 -->
<svg width="710pt" height="177pt"
 viewBox="0.00 0.00 710.00 177.20" xmlns="http://www.w3.org/2000/svg" xmlns:xlink="http://www.w3.org/1999/xlink">
<g id="graph0" class="graph" transform="scale(1 1) rotate(0) translate(4 173.2)">
<title>G</title>
<polygon fill="white" stroke="none" points="-4,4 -4,-173.2 706,-173.2 706,4 -4,4"/>
<!-- 0x5605bd75a740 -->
<g id="node1" class="node">
<title>0x5605bd75a740</title>
<ellipse fill="none" stroke="black" cx="351" cy="-151.2" rx="18" ry="18"/>
<text text-anchor="middle" x="351" y="-146.52" font-family="Times,serif" font-size="14.00">2</text>
</g>
<!-- 0x5605bd7475a0 -->
<g id="node2" class="node">
<title>0x5605bd7475a0</title>
<ellipse fill="none" stroke="black" cx="99" cy="-79.2" rx="18" ry="18"/>
<text text-anchor="middle" x="99" y="-74.52" font-family="Times,serif" font-size="14.00">0</text>
</g>
<!-- 0x5605bd75a740&#45;&gt;0x5605bd7475a0 -->
<g id="edge1" class="edge">
<title>0x5605bd75a740&#45;&gt;0x5605bd7475a0</title>
<path fill="none" stroke="black" d="M333.68,-145.39C290.79,-133.47 179.34,-102.52 126.97,-87.97"/>
<polygon fill="black" stroke="black" points="128.01,-84.35 117.44,-85.05 126.14,-91.09 128.01,-84.35"/>
</g>
<!-- 0x5605bd4263b0 -->
<g id="node5" class="node">
<title>0x5605bd4263b0</title>
<ellipse fill="none" stroke="black" cx="243" cy="-79.2" rx="18" ry="18"/>
<text text-anchor="middle" x="243" y="-74.52" font-family="Times,serif" font-size="14.00">0</text>
</g>
<!-- 0x5605bd75a740&#45;&gt;0x5605bd4263b0 -->
<g id="edge4" class="edge">
<title>0x5605bd75a740&#45;&gt;0x5605bd4263b0</title>
<path fill="none" stroke="black" d="M335.98,-140.47C318.09,-128.87 287.97,-109.35 266.87,-95.67"/>
<polygon fill="black" stroke="black" points="269.18,-92.35 258.89,-89.85 265.38,-98.23 269.18,-92.35"/>
</g>
<!-- 0x5605bda19980 -->
<g id="node8" class="node">
<title>0x5605bda19980</title>
<ellipse fill="none" stroke="black" cx="351" cy="-79.2" rx="18" ry="18"/>
<text text-anchor="middle" x="351" y="-74.52" font-family="Times,serif" font-size="14.00">0</text>
</g>
<!-- 0x5605bd75a740&#45;&gt;0x5605bda19980 -->
<g id="edge7" class="edge">
<title>0x5605bd75a740&#45;&gt;0x5605bda19980</title>
<path fill="none" stroke="black" d="M351,-132.9C351,-125.44 351,-116.52 351,-108.17"/>
<polygon fill="black" stroke="black" points="354.5,-108.3 351,-98.3 347.5,-108.3 354.5,-108.3"/>
</g>
<!-- 0x5605bd892180 -->
<g id="node11" class="node">
<title>0x5605bd892180</title>
<ellipse fill="none" stroke="black" cx="459" cy="-79.2" rx="18" ry="18"/>
<text text-anchor="middle" x="459" y="-74.52" font-family="Times,serif" font-size="14.00">0</text>
</g>
<!-- 0x5605bd75a740&#45;&gt;0x5605bd892180 -->
<g id="edge10" class="edge">
<title>0x5605bd75a740&#45;&gt;0x5605bd892180</title>
<path fill="none" stroke="black" d="M366.02,-140.47C383.91,-128.87 414.03,-109.35 435.13,-95.67"/>
<polygon fill="black" stroke="black" points="436.62,-98.23 443.11,-89.85 432.82,-92.35 436.62,-98.23"/>
</g>
<!-- 0x5605bd926d50 -->
<g id="node14" class="node">
<title>0x5605bd926d50</title>
<ellipse fill="none" stroke="black" cx="603" cy="-79.2" rx="18" ry="18"/>
<text text-anchor="middle" x="603" y="-74.52" font-family="Times,serif" font-size="14.00">0</text>
</g>
<!-- 0x5605bd75a740&#45;&gt;0x5605bd926d50 -->
<g id="edge13" class="edge">
<title>0x5605bd75a740&#45;&gt;0x5605bd926d50</title>
<path fill="none" stroke="black" d="M368.32,-145.39C411.21,-133.47 522.66,-102.52 575.03,-87.97"/>
<polygon fill="black" stroke="black" points="575.86,-91.09 584.56,-85.05 573.99,-84.35 575.86,-91.09"/>
</g>
<!-- 0x5605bd5369d0 -->
<g id="node3" class="node">
<title>0x5605bd5369d0</title>
<polygon fill="none" stroke="black" points="54,-25.2 0,-25.2 0,0 54,0 54,-25.2"/>
<text text-anchor="middle" x="27" y="-7.93" font-family="Times,serif" font-size="14.00">0.99</text>
</g>
<!-- 0x5605bd7475a0&#45;&gt;0x5605bd5369d0 -->
<g id="edge2" class="edge">
<title>0x5605bd7475a0&#45;&gt;0x5605bd5369d0</title>
<path fill="none" stroke="black" stroke-dasharray="5,2" d="M85.79,-66.35C75.24,-56.88 60.24,-43.43 48.04,-32.47"/>
<polygon fill="black" stroke="black" points="50.9,-30.45 41.12,-26.37 46.23,-35.66 50.9,-30.45"/>
</g>
<!-- 0x5605bd667e50 -->
<g id="node4" class="node">
<title>0x5605bd667e50</title>
<polygon fill="none" stroke="black" points="126,-25.2 72,-25.2 72,0 126,0 126,-25.2"/>
<text text-anchor="middle" x="99" y="-7.93" font-family="Times,serif" font-size="14.00">0.01</text>
</g>
<!-- 0x5605bd7475a0&#45;&gt;0x5605bd667e50 -->
<g id="edge3" class="edge">
<title>0x5605bd7475a0&#45;&gt;0x5605bd667e50</title>
<path fill="none" stroke="black" d="M99,-60.89C99,-53.36 99,-44.42 99,-36.36"/>
<polygon fill="black" stroke="black" points="102.5,-36.44 99,-26.44 95.5,-36.44 102.5,-36.44"/>
</g>
<!-- 0x5605bd631a80 -->
<g id="node6" class="node">
<title>0x5605bd631a80</title>
<polygon fill="none" stroke="black" points="198,-25.2 144,-25.2 144,0 198,0 198,-25.2"/>
<text text-anchor="middle" x="171" y="-7.93" font-family="Times,serif" font-size="14.00">0.99</text>
</g>
<!-- 0x5605bd4263b0&#45;&gt;0x5605bd631a80 -->
<g id="edge5" class="edge">
<title>0x5605bd4263b0&#45;&gt;0x5605bd631a80</title>
<path fill="none" stroke="black" stroke-dasharray="5,2" d="M229.79,-66.35C219.24,-56.88 204.24,-43.43 192.04,-32.47"/>
<polygon fill="black" stroke="black" points="194.9,-30.45 185.12,-26.37 190.23,-35.66 194.9,-30.45"/>
</g>
<!-- 0x5605bd6fea00 -->
<g id="node7" class="node">
<title>0x5605bd6fea00</title>
<polygon fill="none" stroke="black" points="270,-25.2 216,-25.2 216,0 270,0 270,-25.2"/>
<text text-anchor="middle" x="243" y="-7.93" font-family="Times,serif" font-size="14.00">0.01</text>
</g>
<!-- 0x5605bd4263b0&#45;&gt;0x5605bd6fea00 -->
<g id="edge6" class="edge">
<title>0x5605bd4263b0&#45;&gt;0x5605bd6fea00</title>
<path fill="none" stroke="black" d="M243,-60.89C243,-53.36 243,-44.42 243,-36.36"/>
<polygon fill="black" stroke="black" points="246.5,-36.44 243,-26.44 239.5,-36.44 246.5,-36.44"/>
</g>
<!-- 0x5605bd6987b0 -->
<g id="node9" class="node">
<title>0x5605bd6987b0</title>
<polygon fill="none" stroke="black" points="342,-25.2 288,-25.2 288,0 342,0 342,-25.2"/>
<text text-anchor="middle" x="315" y="-7.93" font-family="Times,serif" font-size="14.00"> 0.1</text>
</g>
<!-- 0x5605bda19980&#45;&gt;0x5605bd6987b0 -->
<g id="edge8" class="edge">
<title>0x5605bda19980&#45;&gt;0x5605bd6987b0</title>
<path fill="none" stroke="black" stroke-dasharray="5,2" d="M342.47,-62.89C337.82,-54.54 331.98,-44.07 326.89,-34.94"/>
<polygon fill="black" stroke="black" points="329.48,-33.4 321.56,-26.37 323.37,-36.81 329.48,-33.4"/>
</g>
<!-- 0x5605bd670140 -->
<g id="node10" class="node">
<title>0x5605bd670140</title>
<polygon fill="none" stroke="black" points="414,-25.2 360,-25.2 360,0 414,0 414,-25.2"/>
<text text-anchor="middle" x="387" y="-7.93" font-family="Times,serif" font-size="14.00"> 0.9</text>
</g>
<!-- 0x5605bda19980&#45;&gt;0x5605bd670140 -->
<g id="edge9" class="edge">
<title>0x5605bda19980&#45;&gt;0x5605bd670140</title>
<path fill="none" stroke="black" d="M359.53,-62.89C364.18,-54.54 370.02,-44.07 375.11,-34.94"/>
<polygon fill="black" stroke="black" points="378.63,-36.81 380.44,-26.37 372.52,-33.4 378.63,-36.81"/>
</g>
<!-- 0x5605bd3ef340 -->
<g id="node12" class="node">
<title>0x5605bd3ef340</title>
<polygon fill="none" stroke="black" points="486,-25.2 432,-25.2 432,0 486,0 486,-25.2"/>
<text text-anchor="middle" x="459" y="-7.93" font-family="Times,serif" font-size="14.00">0.15</text>
</g>
<!-- 0x5605bd892180&#45;&gt;0x5605bd3ef340 -->
<g id="edge11" class="edge">
<title>0x5605bd892180&#45;&gt;0x5605bd3ef340</title>
<path fill="none" stroke="black" stroke-dasharray="5,2" d="M459,-60.89C459,-53.36 459,-44.42 459,-36.36"/>
<polygon fill="black" stroke="black" points="462.5,-36.44 459,-26.44 455.5,-36.44 462.5,-36.44"/>
</g>
<!-- 0x5605bd685010 -->
<g id="node13" class="node">
<title>0x5605bd685010</title>
<polygon fill="none" stroke="black" points="558,-25.2 504,-25.2 504,0 558,0 558,-25.2"/>
<text text-anchor="middle" x="531" y="-7.93" font-family="Times,serif" font-size="14.00">0.85</text>
</g>
<!-- 0x5605bd892180&#45;&gt;0x5605bd685010 -->
<g id="edge12" class="edge">
<title>0x5605bd892180&#45;&gt;0x5605bd685010</title>
<path fill="none" stroke="black" d="M472.21,-66.35C482.76,-56.88 497.76,-43.43 509.96,-32.47"/>
<polygon fill="black" stroke="black" points="511.77,-35.66 516.88,-26.37 507.1,-30.45 511.77,-35.66"/>
</g>
<!-- 0x5605bd5405a0 -->
<g id="node15" class="node">
<title>0x5605bd5405a0</title>
<polygon fill="none" stroke="black" points="630,-25.2 576,-25.2 576,0 630,0 630,-25.2"/>
<text text-anchor="middle" x="603" y="-7.93" font-family="Times,serif" font-size="14.00">0.95</text>
</g>
<!-- 0x5605bd926d50&#45;&gt;0x5605bd5405a0 -->
<g id="edge14" class="edge">
<title>0x5605bd926d50&#45;&gt;0x5605bd5405a0</title>
<path fill="none" stroke="black" stroke-dasharray="5,2" d="M603,-60.89C603,-53.36 603,-44.42 603,-36.36"/>
<polygon fill="black" stroke="black" points="606.5,-36.44 603,-26.44 599.5,-36.44 606.5,-36.44"/>
</g>
<!-- 0x5605bd5af110 -->
<g id="node16" class="node">
<title>0x5605bd5af110</title>
<polygon fill="none" stroke="black" points="702,-25.2 648,-25.2 648,0 702,0 702,-25.2"/>
<text text-anchor="middle" x="675" y="-7.93" font-family="Times,serif" font-size="14.00">0.05</text>
</g>
<!-- 0x5605bd926d50&#45;&gt;0x5605bd5af110 -->
<g id="edge15" class="edge">
<title>0x5605bd926d50&#45;&gt;0x5605bd5af110</title>
<path fill="none" stroke="black" d="M616.21,-66.35C626.76,-56.88 641.76,-43.43 653.96,-32.47"/>
<polygon fill="black" stroke="black" points="655.77,-35.66 660.88,-26.37 651.1,-30.45 655.77,-35.66"/>
</g>
</g>
</svg>