<?xml version="1.0" encoding="UTF-8" standalone="no"?>
<!DOCTYPE svg PUBLIC "-//W3C//DTD SVG 1.1//EN"
 "http://www.w3.org/Graphics/SVG/1.1/DTD/svg11.dtd">
<!-- Generated by graphviz version 11.0.0 (20240519.1550)
 -->
<!-- Pages: 1 -->
<svg width="128pt" height="260pt"
 viewBox="0.00 0.00 128.00 260.00" xmlns="http://www.w3.org/2000/svg" xmlns:xlink="http://www.w3.org/1999/xlink">
<g id="graph0" class="graph" transform="scale(1 1) rotate(0) translate(4 256)">
<polygon fill="white" stroke="none" points="-4,4 -4,-256 124,-256 124,4 -4,4"/>
<!-- var0 -->
<g id="node1" class="node">
<title>var0</title>
<polygon fill="none" stroke="black" points="54,-36 0,-36 0,0 54,0 54,-36"/>
<text text-anchor="middle" x="27" y="-13.32" font-family="Times,serif" font-size="14.00">W</text>
</g>
<!-- var1 -->
<g id="node2" class="node">
<title>var1</title>
<ellipse fill="none" stroke="black" cx="55" cy="-90" rx="27" ry="18"/>
<text text-anchor="middle" x="55" y="-85.33" font-family="Times,serif" font-size="14.00">X</text>
</g>
<!-- var1&#45;&gt;var0 -->
<g id="edge4" class="edge">
<title>var1&#45;&gt;var0</title>
<path fill="none" stroke="black" d="M48.36,-72.41C45.32,-64.79 41.62,-55.55 38.16,-46.9"/>
<polygon fill="black" stroke="black" points="41.5,-45.84 34.54,-37.85 35.01,-48.44 41.5,-45.84"/>
</g>
<!-- var2 -->
<g id="node3" class="node">
<title>var2</title>
<ellipse fill="none" stroke="black" cx="93" cy="-162" rx="27" ry="18"/>
<text text-anchor="middle" x="93" y="-157.32" font-family="Times,serif" font-size="14.00">Y</text>
</g>
<!-- var2&#45;&gt;var1 -->
<g id="edge2" class="edge">
<title>var2&#45;&gt;var1</title>
<path fill="none" stroke="black" d="M84.19,-144.76C79.73,-136.55 74.2,-126.37 69.16,-117.09"/>
<polygon fill="black" stroke="black" points="72.33,-115.6 64.49,-108.48 66.18,-118.94 72.33,-115.6"/>
</g>
<!-- var3 -->
<g id="node4" class="node">
<title>var3</title>
<polygon fill="none" stroke="black" points="65,-252 11,-252 11,-216 65,-216 65,-252"/>
<text text-anchor="middle" x="38" y="-229.32" font-family="Times,serif" font-size="14.00">Z</text>
</g>
<!-- var3&#45;&gt;var0 -->
<g id="edge5" class="edge">
<title>var3&#45;&gt;var0</title>
<path fill="none" stroke="black" d="M33.74,-215.65C27.01,-186.2 15.06,-124.48 19,-72 19.6,-63.99 20.71,-55.35 21.91,-47.43"/>
<polygon fill="black" stroke="black" points="25.35,-48.04 23.51,-37.61 18.45,-46.91 25.35,-48.04"/>
</g>
<!-- var3&#45;&gt;var1 -->
<g id="edge3" class="edge">
<title>var3&#45;&gt;var1</title>
<path fill="none" stroke="black" d="M40.08,-215.59C42.95,-191.61 48.16,-148.14 51.6,-119.42"/>
<polygon fill="black" stroke="black" points="55.06,-119.96 52.77,-109.61 48.11,-119.13 55.06,-119.96"/>
</g>
<!-- var3&#45;&gt;var2 -->
<g id="edge1" class="edge">
<title>var3&#45;&gt;var2</title>
<path fill="none" stroke="black" d="M51.6,-215.7C58.37,-207.07 66.68,-196.5 74.06,-187.1"/>
<polygon fill="black" stroke="black" points="76.69,-189.42 80.12,-179.39 71.19,-185.09 76.69,-189.42"/>
</g>
</g>
</svg>