<?xml version="1.0" encoding="UTF-8" standalone="no"?>
<!DOCTYPE svg PUBLIC "-//W3C//DTD SVG 1.1//EN"
 "http://www.w3.org/Graphics/SVG/1.1/DTD/svg11.dtd">
<!-- Generated by graphviz version 2.50.0 (0)
 -->
<!-- Pages: 1 -->
<svg width="360pt" height="16pt"
 viewBox="0.00 0.00 360.00 15.87" xmlns="http://www.w3.org/2000/svg" xmlns:xlink="http://www.w3.org/1999/xlink">
<g id="graph0" class="graph" transform="scale(0.36 0.36) rotate(0) translate(4 40)">
<polygon fill="white" stroke="transparent" points="-4,4 -4,-40 994,-40 994,4 -4,4"/>
<!-- var8646911284551352321 -->
<g id="node1" class="node">
<title>var8646911284551352321</title>
<ellipse fill="none" stroke="black" cx="27" cy="-18" rx="27" ry="18"/>
<text text-anchor="middle" x="27" y="-14.3" font-family="Times,serif" font-size="14.00">x1</text>
</g>
<!-- var8646911284551352322 -->
<g id="node2" class="node">
<title>var8646911284551352322</title>
<ellipse fill="none" stroke="black" cx="99" cy="-18" rx="27" ry="18"/>
<text text-anchor="middle" x="99" y="-14.3" font-family="Times,serif" font-size="14.00">x2</text>
</g>
<!-- var8646911284551352322&#45;&gt;var8646911284551352321 -->
<g id="edge13" class="edge">
<title>var8646911284551352322&#45;&gt;var8646911284551352321</title>
<path fill="none" stroke="black" d="M71.78,-18C69.36,-18 66.89,-18 64.4,-18"/>
<polygon fill="black" stroke="black" points="64.26,-14.5 54.26,-18 64.26,-21.5 64.26,-14.5"/>
</g>
<!-- var8646911284551352323 -->
<g id="node3" class="node">
<title>var8646911284551352323</title>
<ellipse fill="none" stroke="black" cx="171" cy="-18" rx="27" ry="18"/>
<text text-anchor="middle" x="171" y="-14.3" font-family="Times,serif" font-size="14.00">x3</text>
</g>
<!-- var8646911284551352323&#45;&gt;var8646911284551352322 -->
<g id="edge12" class="edge">
<title>var8646911284551352323&#45;&gt;var8646911284551352322</title>
<path fill="none" stroke="black" d="M143.78,-18C141.36,-18 138.89,-18 136.4,-18"/>
<polygon fill="black" stroke="black" points="136.26,-14.5 126.26,-18 136.26,-21.5 136.26,-14.5"/>
</g>
<!-- var8646911284551352324 -->
<g id="node4" class="node">
<title>var8646911284551352324</title>
<ellipse fill="none" stroke="black" cx="243" cy="-18" rx="27" ry="18"/>
<text text-anchor="middle" x="243" y="-14.3" font-family="Times,serif" font-size="14.00">x4</text>
</g>
<!-- var8646911284551352324&#45;&gt;var8646911284551352323 -->
<g id="edge11" class="edge">
<title>var8646911284551352324&#45;&gt;var8646911284551352323</title>
<path fill="none" stroke="black" d="M215.78,-18C213.36,-18 210.89,-18 208.4,-18"/>
<polygon fill="black" stroke="black" points="208.26,-14.5 198.26,-18 208.26,-21.5 208.26,-14.5"/>
</g>
<!-- var8646911284551352325 -->
<g id="node5" class="node">
<title>var8646911284551352325</title>
<ellipse fill="none" stroke="black" cx="315" cy="-18" rx="27" ry="18"/>
<text text-anchor="middle" x="315" y="-14.3" font-family="Times,serif" font-size="14.00">x5</text>
</g>
<!-- var8646911284551352325&#45;&gt;var8646911284551352324 -->
<g id="edge10" class="edge">
<title>var8646911284551352325&#45;&gt;var8646911284551352324</title>
<path fill="none" stroke="black" d="M287.78,-18C285.36,-18 282.89,-18 280.4,-18"/>
<polygon fill="black" stroke="black" points="280.26,-14.5 270.26,-18 280.26,-21.5 280.26,-14.5"/>
</g>
<!-- var8646911284551352326 -->
<g id="node6" class="node">
<title>var8646911284551352326</title>
<ellipse fill="none" stroke="black" cx="387" cy="-18" rx="27" ry="18"/>
<text text-anchor="middle" x="387" y="-14.3" font-family="Times,serif" font-size="14.00">x6</text>
</g>
<!-- var8646911284551352326&#45;&gt;var8646911284551352325 -->
<g id="edge9" class="edge">
<title>var8646911284551352326&#45;&gt;var8646911284551352325</title>
<path fill="none" stroke="black" d="M359.78,-18C357.36,-18 354.89,-18 352.4,-18"/>
<polygon fill="black" stroke="black" points="352.26,-14.5 342.26,-18 352.26,-21.5 352.26,-14.5"/>
</g>
<!-- var8646911284551352327 -->
<g id="node7" class="node">
<title>var8646911284551352327</title>
<ellipse fill="none" stroke="black" cx="459" cy="-18" rx="27" ry="18"/>
<text text-anchor="middle" x="459" y="-14.3" font-family="Times,serif" font-size="14.00">x7</text>
</g>
<!-- var8646911284551352327&#45;&gt;var8646911284551352326 -->
<g id="edge8" class="edge">
<title>var8646911284551352327&#45;&gt;var8646911284551352326</title>
<path fill="none" stroke="black" d="M431.78,-18C429.36,-18 426.89,-18 424.4,-18"/>
<polygon fill="black" stroke="black" points="424.26,-14.5 414.26,-18 424.26,-21.5 424.26,-14.5"/>
</g>
<!-- var8646911284551352328 -->
<g id="node8" class="node">
<title>var8646911284551352328</title>
<ellipse fill="none" stroke="black" cx="531" cy="-18" rx="27" ry="18"/>
<text text-anchor="middle" x="531" y="-14.3" font-family="Times,serif" font-size="14.00">x8</text>
</g>
<!-- var8646911284551352328&#45;&gt;var8646911284551352327 -->
<g id="edge7" class="edge">
<title>var8646911284551352328&#45;&gt;var8646911284551352327</title>
<path fill="none" stroke="black" d="M503.78,-18C501.36,-18 498.89,-18 496.4,-18"/>
<polygon fill="black" stroke="black" points="496.26,-14.5 486.26,-18 496.26,-21.5 496.26,-14.5"/>
</g>
<!-- var8646911284551352329 -->
<g id="node9" class="node">
<title>var8646911284551352329</title>
<ellipse fill="none" stroke="black" cx="603" cy="-18" rx="27" ry="18"/>
<text text-anchor="middle" x="603" y="-14.3" font-family="Times,serif" font-size="14.00">x9</text>
</g>
<!-- var8646911284551352329&#45;&gt;var8646911284551352328 -->
<g id="edge6" class="edge">
<title>var8646911284551352329&#45;&gt;var8646911284551352328</title>
<path fill="none" stroke="black" d="M575.78,-18C573.36,-18 570.89,-18 568.4,-18"/>
<polygon fill="black" stroke="black" points="568.26,-14.5 558.26,-18 568.26,-21.5 568.26,-14.5"/>
</g>
<!-- var8646911284551352330 -->
<g id="node10" class="node">
<title>var8646911284551352330</title>
<ellipse fill="none" stroke="black" cx="675" cy="-18" rx="27" ry="18"/>
<text text-anchor="middle" x="675" y="-14.3" font-family="Times,serif" font-size="14.00">x10</text>
</g>
<!-- var8646911284551352330&#45;&gt;var8646911284551352329 -->
<g id="edge5" class="edge">
<title>var8646911284551352330&#45;&gt;var8646911284551352329</title>
<path fill="none" stroke="black" d="M647.78,-18C645.36,-18 642.89,-18 640.4,-18"/>
<polygon fill="black" stroke="black" points="640.26,-14.5 630.26,-18 640.26,-21.5 640.26,-14.5"/>
</g>
<!-- var8646911284551352331 -->
<g id="node11" class="node">
<title>var8646911284551352331</title>
<ellipse fill="none" stroke="black" cx="747" cy="-18" rx="27" ry="18"/>
<text text-anchor="middle" x="747" y="-14.3" font-family="Times,serif" font-size="14.00">x11</text>
</g>
<!-- var8646911284551352331&#45;&gt;var8646911284551352330 -->
<g id="edge4" class="edge">
<title>var8646911284551352331&#45;&gt;var8646911284551352330</title>
<path fill="none" stroke="black" d="M719.78,-18C717.36,-18 714.89,-18 712.4,-18"/>
<polygon fill="black" stroke="black" points="712.26,-14.5 702.26,-18 712.26,-21.5 712.26,-14.5"/>
</g>
<!-- var8646911284551352332 -->
<g id="node12" class="node">
<title>var8646911284551352332</title>
<ellipse fill="none" stroke="black" cx="819" cy="-18" rx="27" ry="18"/>
<text text-anchor="middle" x="819" y="-14.3" font-family="Times,serif" font-size="14.00">x12</text>
</g>
<!-- var8646911284551352332&#45;&gt;var8646911284551352331 -->
<g id="edge3" class="edge">
<title>var8646911284551352332&#45;&gt;var8646911284551352331</title>
<path fill="none" stroke="black" d="M791.78,-18C789.36,-18 786.89,-18 784.4,-18"/>
<polygon fill="black" stroke="black" points="784.26,-14.5 774.26,-18 784.26,-21.5 784.26,-14.5"/>
</g>
<!-- var8646911284551352333 -->
<g id="node13" class="node">
<title>var8646911284551352333</title>
<ellipse fill="none" stroke="black" cx="891" cy="-18" rx="27" ry="18"/>
<text text-anchor="middle" x="891" y="-14.3" font-family="Times,serif" font-size="14.00">x13</text>
</g>
<!-- var8646911284551352333&#45;&gt;var8646911284551352332 -->
<g id="edge2" class="edge">
<title>var8646911284551352333&#45;&gt;var8646911284551352332</title>
<path fill="none" stroke="black" d="M863.78,-18C861.36,-18 858.89,-18 856.4,-18"/>
<polygon fill="black" stroke="black" points="856.26,-14.5 846.26,-18 856.26,-21.5 856.26,-14.5"/>
</g>
<!-- var8646911284551352334 -->
<g id="node14" class="node">
<title>var8646911284551352334</title>
<ellipse fill="none" stroke="black" cx="963" cy="-18" rx="27" ry="18"/>
<text text-anchor="middle" x="963" y="-14.3" font-family="Times,serif" font-size="14.00">x14</text>
</g>
<!-- var8646911284551352334&#45;&gt;var8646911284551352333 -->
<g id="edge1" class="edge">
<title>var8646911284551352334&#45;&gt;var8646911284551352333</title>
<path fill="none" stroke="black" d="M935.78,-18C933.36,-18 930.89,-18 928.4,-18"/>
<polygon fill="black" stroke="black" points="928.26,-14.5 918.26,-18 928.26,-21.5 928.26,-14.5"/>
</g>
</g>
</svg>