<?xml version="1.0" encoding="UTF-8" standalone="no"?>
<!DOCTYPE svg PUBLIC "-//W3C//DTD SVG 1.1//EN"
 "http://www.w3.org/Graphics/SVG/1.1/DTD/svg11.dtd">
<!-- Generated by graphviz version 9.0.0 (20231125.0833)
 -->
<!-- Title: G Pages: 1 -->
<svg width="1070pt" height="177pt"
 viewBox="0.00 0.00 1070.00 177.20" xmlns="http://www.w3.org/2000/svg" xmlns:xlink="http://www.w3.org/1999/xlink">
<g id="graph0" class="graph" transform="scale(1 1) rotate(0) translate(4 173.2)">
<title>G</title>
<polygon fill="white" stroke="none" points="-4,4 -4,-173.2 1066,-173.2 1066,4 -4,4"/>
<!-- 0x55f7e393e510 -->
<g id="node1" class="node">
<title>0x55f7e393e510</title>
<ellipse fill="none" stroke="black" cx="531" cy="-151.2" rx="18" ry="18"/>
<text text-anchor="middle" x="531" y="-146.52" font-family="Times,serif" font-size="14.00">2</text>
</g>
<!-- 0x55f7e3838fa0 -->
<g id="node2" class="node">
<title>0x55f7e3838fa0</title>
<ellipse fill="none" stroke="black" cx="135" cy="-79.2" rx="18" ry="18"/>
<text text-anchor="middle" x="135" y="-74.52" font-family="Times,serif" font-size="14.00">1</text>
</g>
<!-- 0x55f7e393e510&#45;&gt;0x55f7e3838fa0 -->
<g id="edge1" class="edge">
<title>0x55f7e393e510&#45;&gt;0x55f7e3838fa0</title>
<path fill="none" stroke="black" d="M513.22,-147.06C450.79,-136.02 241.26,-98.98 163.96,-85.32"/>
<polygon fill="black" stroke="black" points="164.68,-81.89 154.23,-83.6 163.46,-88.79 164.68,-81.89"/>
</g>
<!-- 0x55f7e25a1620 -->
<g id="node6" class="node">
<title>0x55f7e25a1620</title>
<ellipse fill="none" stroke="black" cx="351" cy="-79.2" rx="18" ry="18"/>
<text text-anchor="middle" x="351" y="-74.52" font-family="Times,serif" font-size="14.00">1</text>
</g>
<!-- 0x55f7e393e510&#45;&gt;0x55f7e25a1620 -->
<g id="edge5" class="edge">
<title>0x55f7e393e510&#45;&gt;0x55f7e25a1620</title>
<path fill="none" stroke="black" d="M514.39,-143.74C483.26,-131.63 415.88,-105.43 378.09,-90.74"/>
<polygon fill="black" stroke="black" points="379.83,-87.66 369.24,-87.29 377.29,-94.18 379.83,-87.66"/>
</g>
<!-- 0x55f7e378a190 -->
<g id="node10" class="node">
<title>0x55f7e378a190</title>
<ellipse fill="none" stroke="black" cx="531" cy="-79.2" rx="18" ry="18"/>
<text text-anchor="middle" x="531" y="-74.52" font-family="Times,serif" font-size="14.00">1</text>
</g>
<!-- 0x55f7e393e510&#45;&gt;0x55f7e378a190 -->
<g id="edge9" class="edge">
<title>0x55f7e393e510&#45;&gt;0x55f7e378a190</title>
<path fill="none" stroke="black" d="M531,-132.9C531,-125.61 531,-116.93 531,-108.74"/>
<polygon fill="black" stroke="black" points="534.5,-108.82 531,-98.82 527.5,-108.82 534.5,-108.82"/>
</g>
<!-- 0x55f7e39882e0 -->
<g id="node14" class="node">
<title>0x55f7e39882e0</title>
<ellipse fill="none" stroke="black" cx="711" cy="-79.2" rx="18" ry="18"/>
<text text-anchor="middle" x="711" y="-74.52" font-family="Times,serif" font-size="14.00">1</text>
</g>
<!-- 0x55f7e393e510&#45;&gt;0x55f7e39882e0 -->
<g id="edge13" class="edge">
<title>0x55f7e393e510&#45;&gt;0x55f7e39882e0</title>
<path fill="none" stroke="black" d="M547.61,-143.74C578.74,-131.63 646.12,-105.43 683.91,-90.74"/>
<polygon fill="black" stroke="black" points="684.71,-94.18 692.76,-87.29 682.17,-87.66 684.71,-94.18"/>
</g>
<!-- 0x55f7e34c4620 -->
<g id="node18" class="node">
<title>0x55f7e34c4620</title>
<ellipse fill="none" stroke="black" cx="927" cy="-79.2" rx="18" ry="18"/>
<text text-anchor="middle" x="927" y="-74.52" font-family="Times,serif" font-size="14.00">1</text>
</g>
<!-- 0x55f7e393e510&#45;&gt;0x55f7e34c4620 -->
<g id="edge17" class="edge">
<title>0x55f7e393e510&#45;&gt;0x55f7e34c4620</title>
<path fill="none" stroke="black" d="M548.78,-147.06C611.21,-136.02 820.74,-98.98 898.04,-85.32"/>
<polygon fill="black" stroke="black" points="898.54,-88.79 907.77,-83.6 897.32,-81.89 898.54,-88.79"/>
</g>
<!-- 0x55f7e3530750 -->
<g id="node3" class="node">
<title>0x55f7e3530750</title>
<polygon fill="none" stroke="black" points="54,-25.2 0,-25.2 0,0 54,0 54,-25.2"/>
<text text-anchor="middle" x="27" y="-7.93" font-family="Times,serif" font-size="14.00">0.02</text>
</g>
<!-- 0x55f7e3838fa0&#45;&gt;0x55f7e3530750 -->
<g id="edge2" class="edge">
<title>0x55f7e3838fa0&#45;&gt;0x55f7e3530750</title>
<path fill="none" stroke="black" d="M119.98,-69.22C103.72,-59.49 77.36,-43.72 56.85,-31.45"/>
<polygon fill="black" stroke="black" points="58.71,-28.49 48.33,-26.36 55.11,-34.49 58.71,-28.49"/>
</g>
<!-- 0x55f7e33bdd70 -->
<g id="node4" class="node">
<title>0x55f7e33bdd70</title>
<polygon fill="none" stroke="black" points="126,-25.2 72,-25.2 72,0 126,0 126,-25.2"/>
<text text-anchor="middle" x="99" y="-7.93" font-family="Times,serif" font-size="14.00">0.88</text>
</g>
<!-- 0x55f7e3838fa0&#45;&gt;0x55f7e33bdd70 -->
<g id="edge3" class="edge">
<title>0x55f7e3838fa0&#45;&gt;0x55f7e33bdd70</title>
<path fill="none" stroke="black" d="M126.47,-62.89C121.87,-54.63 116.11,-44.3 111.05,-35.23"/>
<polygon fill="black" stroke="black" points="114.22,-33.72 106.29,-26.69 108.1,-37.13 114.22,-33.72"/>
</g>
<!-- 0x55f7e36f4950 -->
<g id="node5" class="node">
<title>0x55f7e36f4950</title>
<polygon fill="none" stroke="black" points="198,-25.2 144,-25.2 144,0 198,0 198,-25.2"/>
<text text-anchor="middle" x="171" y="-7.93" font-family="Times,serif" font-size="14.00"> 0.1</text>
</g>
<!-- 0x55f7e3838fa0&#45;&gt;0x55f7e36f4950 -->
<g id="edge4" class="edge">
<title>0x55f7e3838fa0&#45;&gt;0x55f7e36f4950</title>
<path fill="none" stroke="black" d="M143.53,-62.89C148.13,-54.63 153.89,-44.3 158.95,-35.23"/>
<polygon fill="black" stroke="black" points="161.9,-37.13 163.71,-26.69 155.78,-33.72 161.9,-37.13"/>
</g>
<!-- 0x55f7e3364bc0 -->
<g id="node7" class="node">
<title>0x55f7e3364bc0</title>
<polygon fill="none" stroke="black" points="270,-25.2 216,-25.2 216,0 270,0 270,-25.2"/>
<text text-anchor="middle" x="243" y="-7.93" font-family="Times,serif" font-size="14.00">0.02</text>
</g>
<!-- 0x55f7e25a1620&#45;&gt;0x55f7e3364bc0 -->
<g id="edge6" class="edge">
<title>0x55f7e25a1620&#45;&gt;0x55f7e3364bc0</title>
<path fill="none" stroke="black" d="M335.98,-69.22C319.72,-59.49 293.36,-43.72 272.85,-31.45"/>
<polygon fill="black" stroke="black" points="274.71,-28.49 264.33,-26.36 271.11,-34.49 274.71,-28.49"/>
</g>
<!-- 0x55f7e31c1100 -->
<g id="node8" class="node">
<title>0x55f7e31c1100</title>
<polygon fill="none" stroke="black" points="342,-25.2 288,-25.2 288,0 342,0 342,-25.2"/>
<text text-anchor="middle" x="315" y="-7.93" font-family="Times,serif" font-size="14.00"> 0.2</text>
</g>
<!-- 0x55f7e25a1620&#45;&gt;0x55f7e31c1100 -->
<g id="edge7" class="edge">
<title>0x55f7e25a1620&#45;&gt;0x55f7e31c1100</title>
<path fill="none" stroke="black" d="M342.47,-62.89C337.87,-54.63 332.11,-44.3 327.05,-35.23"/>
<polygon fill="black" stroke="black" points="330.22,-33.72 322.29,-26.69 324.1,-37.13 330.22,-33.72"/>
</g>
<!-- 0x55f7e3582270 -->
<g id="node9" class="node">
<title>0x55f7e3582270</title>
<polygon fill="none" stroke="black" points="414,-25.2 360,-25.2 360,0 414,0 414,-25.2"/>
<text text-anchor="middle" x="387" y="-7.93" font-family="Times,serif" font-size="14.00">0.78</text>
</g>
<!-- 0x55f7e25a1620&#45;&gt;0x55f7e3582270 -->
<g id="edge8" class="edge">
<title>0x55f7e25a1620&#45;&gt;0x55f7e3582270</title>
<path fill="none" stroke="black" d="M359.53,-62.89C364.13,-54.63 369.89,-44.3 374.95,-35.23"/>
<polygon fill="black" stroke="black" points="377.9,-37.13 379.71,-26.69 371.78,-33.72 377.9,-37.13"/>
</g>
<!-- 0x55f7e353d080 -->
<g id="node11" class="node">
<title>0x55f7e353d080</title>
<polygon fill="none" stroke="black" points="486,-25.2 432,-25.2 432,0 486,0 486,-25.2"/>
<text text-anchor="middle" x="459" y="-7.93" font-family="Times,serif" font-size="14.00">0.33</text>
</g>
<!-- 0x55f7e378a190&#45;&gt;0x55f7e353d080 -->
<g id="edge10" class="edge">
<title>0x55f7e378a190&#45;&gt;0x55f7e353d080</title>
<path fill="none" stroke="black" d="M517.79,-66.35C507.34,-56.97 492.53,-43.68 480.39,-32.79"/>
<polygon fill="black" stroke="black" points="483.03,-30.46 473.25,-26.38 478.35,-35.67 483.03,-30.46"/>
</g>
<!-- 0x55f7e3340260 -->
<g id="node12" class="node">
<title>0x55f7e3340260</title>
<polygon fill="none" stroke="black" points="558,-25.2 504,-25.2 504,0 558,0 558,-25.2"/>
<text text-anchor="middle" x="531" y="-7.93" font-family="Times,serif" font-size="14.00">0.33</text>
</g>
<!-- 0x55f7e378a190&#45;&gt;0x55f7e3340260 -->
<g id="edge11" class="edge">
<title>0x55f7e378a190&#45;&gt;0x55f7e3340260</title>
<path fill="none" stroke="black" d="M531,-60.89C531,-53.53 531,-44.84 531,-36.93"/>
<polygon fill="black" stroke="black" points="534.5,-36.96 531,-26.96 527.5,-36.96 534.5,-36.96"/>
</g>
<!-- 0x55f7e3379d20 -->
<g id="node13" class="node">
<title>0x55f7e3379d20</title>
<polygon fill="none" stroke="black" points="630,-25.2 576,-25.2 576,0 630,0 630,-25.2"/>
<text text-anchor="middle" x="603" y="-7.93" font-family="Times,serif" font-size="14.00">0.34</text>
</g>
<!-- 0x55f7e378a190&#45;&gt;0x55f7e3379d20 -->
<g id="edge12" class="edge">
<title>0x55f7e378a190&#45;&gt;0x55f7e3379d20</title>
<path fill="none" stroke="black" d="M544.21,-66.35C554.66,-56.97 569.47,-43.68 581.61,-32.79"/>
<polygon fill="black" stroke="black" points="583.65,-35.67 588.75,-26.38 578.97,-30.46 583.65,-35.67"/>
</g>
<!-- 0x55f7e36eb0f0 -->
<g id="node15" class="node">
<title>0x55f7e36eb0f0</title>
<polygon fill="none" stroke="black" points="702,-25.2 648,-25.2 648,0 702,0 702,-25.2"/>
<text text-anchor="middle" x="675" y="-7.93" font-family="Times,serif" font-size="14.00">0.33</text>
</g>
<!-- 0x55f7e39882e0&#45;&gt;0x55f7e36eb0f0 -->
<g id="edge14" class="edge">
<title>0x55f7e39882e0&#45;&gt;0x55f7e36eb0f0</title>
<path fill="none" stroke="black" d="M702.47,-62.89C697.87,-54.63 692.11,-44.3 687.05,-35.23"/>
<polygon fill="black" stroke="black" points="690.22,-33.72 682.29,-26.69 684.1,-37.13 690.22,-33.72"/>
</g>
<!-- 0x55f7e32f5f90 -->
<g id="node16" class="node">
<title>0x55f7e32f5f90</title>
<polygon fill="none" stroke="black" points="774,-25.2 720,-25.2 720,0 774,0 774,-25.2"/>
<text text-anchor="middle" x="747" y="-7.93" font-family="Times,serif" font-size="14.00">0.33</text>
</g>
<!-- 0x55f7e39882e0&#45;&gt;0x55f7e32f5f90 -->
<g id="edge15" class="edge">
<title>0x55f7e39882e0&#45;&gt;0x55f7e32f5f90</title>
<path fill="none" stroke="black" d="M719.53,-62.89C724.13,-54.63 729.89,-44.3 734.95,-35.23"/>
<polygon fill="black" stroke="black" points="737.9,-37.13 739.71,-26.69 731.78,-33.72 737.9,-37.13"/>
</g>
<!-- 0x55f7e33ab880 -->
<g id="node17" class="node">
<title>0x55f7e33ab880</title>
<polygon fill="none" stroke="black" points="846,-25.2 792,-25.2 792,0 846,0 846,-25.2"/>
<text text-anchor="middle" x="819" y="-7.93" font-family="Times,serif" font-size="14.00">0.34</text>
</g>
<!-- 0x55f7e39882e0&#45;&gt;0x55f7e33ab880 -->
<g id="edge16" class="edge">
<title>0x55f7e39882e0&#45;&gt;0x55f7e33ab880</title>
<path fill="none" stroke="black" d="M726.02,-69.22C742.28,-59.49 768.64,-43.72 789.15,-31.45"/>
<polygon fill="black" stroke="black" points="790.89,-34.49 797.67,-26.36 787.29,-28.49 790.89,-34.49"/>
</g>
<!-- 0x55f7e37ab2b0 -->
<g id="node19" class="node">
<title>0x55f7e37ab2b0</title>
<polygon fill="none" stroke="black" points="918,-25.2 864,-25.2 864,0 918,0 918,-25.2"/>
<text text-anchor="middle" x="891" y="-7.93" font-family="Times,serif" font-size="14.00">0.95</text>
</g>
<!-- 0x55f7e34c4620&#45;&gt;0x55f7e37ab2b0 -->
<g id="edge18" class="edge">
<title>0x55f7e34c4620&#45;&gt;0x55f7e37ab2b0</title>
<path fill="none" stroke="black" d="M918.47,-62.89C913.87,-54.63 908.11,-44.3 903.05,-35.23"/>
<polygon fill="black" stroke="black" points="906.22,-33.72 898.29,-26.69 900.1,-37.13 906.22,-33.72"/>
</g>
<!-- 0x55f7e334e630 -->
<g id="node20" class="node">
<title>0x55f7e334e630</title>
<polygon fill="none" stroke="black" points="990,-25.2 936,-25.2 936,0 990,0 990,-25.2"/>
<text text-anchor="middle" x="963" y="-7.93" font-family="Times,serif" font-size="14.00">0.02</text>
</g>
<!-- 0x55f7e34c4620&#45;&gt;0x55f7e334e630 -->
<g id="edge19" class="edge">
<title>0x55f7e34c4620&#45;&gt;0x55f7e334e630</title>
<path fill="none" stroke="black" d="M935.53,-62.89C940.13,-54.63 945.89,-44.3 950.95,-35.23"/>
<polygon fill="black" stroke="black" points="953.9,-37.13 955.71,-26.69 947.78,-33.72 953.9,-37.13"/>
</g>
<!-- 0x55f7e34ec170 -->
<g id="node21" class="node">
<title>0x55f7e34ec170</title>
<polygon fill="none" stroke="black" points="1062,-25.2 1008,-25.2 1008,0 1062,0 1062,-25.2"/>
<text text-anchor="middle" x="1035" y="-7.93" font-family="Times,serif" font-size="14.00">0.03</text>
</g>
<!-- 0x55f7e34c4620&#45;&gt;0x55f7e34ec170 -->
<g id="edge20" class="edge">
<title>0x55f7e34c4620&#45;&gt;0x55f7e34ec170</title>
<path fill="none" stroke="black" d="M942.02,-69.22C958.28,-59.49 984.64,-43.72 1005.15,-31.45"/>
<polygon fill="black" stroke="black" points="1006.89,-34.49 1013.67,-26.36 1003.29,-28.49 1006.89,-34.49"/>
</g>
</g>
</svg>