<?xml version="1.0" encoding="UTF-8" standalone="no"?>
<!DOCTYPE svg PUBLIC "-//W3C//DTD SVG 1.1//EN"
 "http://www.w3.org/Graphics/SVG/1.1/DTD/svg11.dtd">
<!-- Generated by graphviz version 8.1.0 (20230707.2238)
 -->
<!-- Pages: 1 -->
<svg width="350pt" height="116pt"
 viewBox="0.00 0.00 350.00 116.00" xmlns="http://www.w3.org/2000/svg" xmlns:xlink="http://www.w3.org/1999/xlink">
<g id="graph0" class="graph" transform="scale(1 1) rotate(0) translate(4 112)">
<polygon fill="white" stroke="none" points="-4,4 -4,-112 346,-112 346,4 -4,4"/>
<!-- var8430738502437568513 -->
<g id="node1" class="node">
<title>var8430738502437568513</title>
<polygon fill="none" stroke="black" points="54,-108 0,-108 0,-72 54,-72 54,-108"/>
<text text-anchor="middle" x="27" y="-85.33" font-family="Times,serif" font-size="14.00">u1</text>
</g>
<!-- var8646911284551352322 -->
<g id="node6" class="node">
<title>var8646911284551352322</title>
<ellipse fill="none" stroke="black" cx="99" cy="-18" rx="27" ry="18"/>
<text text-anchor="middle" x="99" y="-13.32" font-family="Times,serif" font-size="14.00">x2</text>
</g>
<!-- var8430738502437568513&#45;&gt;var8646911284551352322 -->
<g id="edge2" class="edge">
<title>var8430738502437568513&#45;&gt;var8646911284551352322</title>
<path fill="none" stroke="black" d="M45.17,-71.83C54.64,-62.36 66.3,-50.7 76.35,-40.65"/>
<polygon fill="black" stroke="black" points="78.4,-43.55 82.99,-34.01 73.45,-38.6 78.4,-43.55"/>
</g>
<!-- var8430738502437568514 -->
<g id="node2" class="node">
<title>var8430738502437568514</title>
<polygon fill="none" stroke="black" points="126,-108 72,-108 72,-72 126,-72 126,-108"/>
<text text-anchor="middle" x="99" y="-85.33" font-family="Times,serif" font-size="14.00">u2</text>
</g>
<!-- var8646911284551352323 -->
<g id="node7" class="node">
<title>var8646911284551352323</title>
<ellipse fill="none" stroke="black" cx="171" cy="-18" rx="27" ry="18"/>
<text text-anchor="middle" x="171" y="-13.32" font-family="Times,serif" font-size="14.00">x3</text>
</g>
<!-- var8430738502437568514&#45;&gt;var8646911284551352323 -->
<g id="edge4" class="edge">
<title>var8430738502437568514&#45;&gt;var8646911284551352323</title>
<path fill="none" stroke="black" d="M117.17,-71.83C126.64,-62.36 138.3,-50.7 148.35,-40.65"/>
<polygon fill="black" stroke="black" points="150.4,-43.55 154.99,-34.01 145.45,-38.6 150.4,-43.55"/>
</g>
<!-- var8430738502437568515 -->
<g id="node3" class="node">
<title>var8430738502437568515</title>
<polygon fill="none" stroke="black" points="198,-108 144,-108 144,-72 198,-72 198,-108"/>
<text text-anchor="middle" x="171" y="-85.33" font-family="Times,serif" font-size="14.00">u3</text>
</g>
<!-- var8646911284551352324 -->
<g id="node8" class="node">
<title>var8646911284551352324</title>
<ellipse fill="none" stroke="black" cx="243" cy="-18" rx="27" ry="18"/>
<text text-anchor="middle" x="243" y="-13.32" font-family="Times,serif" font-size="14.00">x4</text>
</g>
<!-- var8430738502437568515&#45;&gt;var8646911284551352324 -->
<g id="edge6" class="edge">
<title>var8430738502437568515&#45;&gt;var8646911284551352324</title>
<path fill="none" stroke="black" d="M189.17,-71.83C198.64,-62.36 210.3,-50.7 220.35,-40.65"/>
<polygon fill="black" stroke="black" points="222.4,-43.55 226.99,-34.01 217.45,-38.6 222.4,-43.55"/>
</g>
<!-- var8430738502437568516 -->
<g id="node4" class="node">
<title>var8430738502437568516</title>
<polygon fill="none" stroke="black" points="270,-108 216,-108 216,-72 270,-72 270,-108"/>
<text text-anchor="middle" x="243" y="-85.33" font-family="Times,serif" font-size="14.00">u4</text>
</g>
<!-- var8646911284551352325 -->
<g id="node9" class="node">
<title>var8646911284551352325</title>
<ellipse fill="none" stroke="black" cx="315" cy="-18" rx="27" ry="18"/>
<text text-anchor="middle" x="315" y="-13.32" font-family="Times,serif" font-size="14.00">x5</text>
</g>
<!-- var8430738502437568516&#45;&gt;var8646911284551352325 -->
<g id="edge8" class="edge">
<title>var8430738502437568516&#45;&gt;var8646911284551352325</title>
<path fill="none" stroke="black" d="M261.17,-71.83C270.64,-62.36 282.3,-50.7 292.35,-40.65"/>
<polygon fill="black" stroke="black" points="294.4,-43.55 298.99,-34.01 289.45,-38.6 294.4,-43.55"/>
</g>
<!-- var8646911284551352321 -->
<g id="node5" class="node">
<title>var8646911284551352321</title>
<ellipse fill="none" stroke="black" cx="27" cy="-18" rx="27" ry="18"/>
<text text-anchor="middle" x="27" y="-13.32" font-family="Times,serif" font-size="14.00">x1</text>
</g>
<!-- var8646911284551352321&#45;&gt;var8646911284551352322 -->
<g id="edge1" class="edge">
<title>var8646911284551352321&#45;&gt;var8646911284551352322</title>
<path fill="none" stroke="black" d="M54.22,-18C56.37,-18 58.57,-18 60.77,-18"/>
<polygon fill="black" stroke="black" points="60.74,-21.5 70.74,-18 60.74,-14.5 60.74,-21.5"/>
</g>
<!-- var8646911284551352322&#45;&gt;var8646911284551352323 -->
<g id="edge3" class="edge">
<title>var8646911284551352322&#45;&gt;var8646911284551352323</title>
<path fill="none" stroke="black" d="M126.22,-18C128.37,-18 130.57,-18 132.77,-18"/>
<polygon fill="black" stroke="black" points="132.74,-21.5 142.74,-18 132.74,-14.5 132.74,-21.5"/>
</g>
<!-- var8646911284551352323&#45;&gt;var8646911284551352324 -->
<g id="edge5" class="edge">
<title>var8646911284551352323&#45;&gt;var8646911284551352324</title>
<path fill="none" stroke="black" d="M198.22,-18C200.37,-18 202.57,-18 204.77,-18"/>
<polygon fill="black" stroke="black" points="204.74,-21.5 214.74,-18 204.74,-14.5 204.74,-21.5"/>
</g>
<!-- var8646911284551352324&#45;&gt;var8646911284551352325 -->
<g id="edge7" class="edge">
<title>var8646911284551352324&#45;&gt;var8646911284551352325</title>
<path fill="none" stroke="black" d="M270.22,-18C272.37,-18 274.57,-18 276.77,-18"/>
<polygon fill="black" stroke="black" points="276.74,-21.5 286.74,-18 276.74,-14.5 276.74,-21.5"/>
</g>
</g>
</svg>