<?xml version="1.0" encoding="UTF-8" standalone="no"?>
<!DOCTYPE svg PUBLIC "-//W3C//DTD SVG 1.1//EN"
 "http://www.w3.org/Graphics/SVG/1.1/DTD/svg11.dtd">
<!-- Generated by graphviz version 8.1.0 (20230707.2238)
 -->
<!-- Pages: 1 -->
<svg width="128pt" height="260pt"
 viewBox="0.00 0.00 128.00 260.00" xmlns="http://www.w3.org/2000/svg" xmlns:xlink="http://www.w3.org/1999/xlink">
<g id="graph0" class="graph" transform="scale(1 1) rotate(0) translate(4 256)">
<polygon fill="white" stroke="none" points="-4,4 -4,-256 124,-256 124,4 -4,4"/>
<!-- var5 -->
<g id="node1" class="node">
<title>var5</title>
<ellipse fill="none" stroke="black" cx="27" cy="-18" rx="27" ry="18"/>
<text text-anchor="middle" x="27" y="-13.32" font-family="Times,serif" font-size="14.00">W</text>
</g>
<!-- var6 -->
<g id="node2" class="node">
<title>var6</title>
<ellipse fill="none" stroke="black" cx="55" cy="-90" rx="27" ry="18"/>
<text text-anchor="middle" x="55" y="-85.33" font-family="Times,serif" font-size="14.00">X</text>
</g>
<!-- var6&#45;&gt;var5 -->
<g id="edge4" class="edge">
<title>var6&#45;&gt;var5</title>
<path fill="none" stroke="black" d="M48.36,-72.41C45.16,-64.39 41.23,-54.57 37.62,-45.54"/>
<polygon fill="black" stroke="black" points="40.55,-44.45 33.59,-36.47 34.05,-47.05 40.55,-44.45"/>
</g>
<!-- var7 -->
<g id="node3" class="node">
<title>var7</title>
<ellipse fill="none" stroke="black" cx="93" cy="-162" rx="27" ry="18"/>
<text text-anchor="middle" x="93" y="-157.32" font-family="Times,serif" font-size="14.00">Y</text>
</g>
<!-- var7&#45;&gt;var6 -->
<g id="edge2" class="edge">
<title>var7&#45;&gt;var6</title>
<path fill="none" stroke="black" d="M84.19,-144.76C79.68,-136.46 74.08,-126.15 69,-116.79"/>
<polygon fill="black" stroke="black" points="71.61,-115.27 63.77,-108.15 65.46,-118.61 71.61,-115.27"/>
</g>
<!-- var8 -->
<g id="node4" class="node">
<title>var8</title>
<ellipse fill="none" stroke="black" cx="38" cy="-234" rx="27" ry="18"/>
<text text-anchor="middle" x="38" y="-229.32" font-family="Times,serif" font-size="14.00">Z</text>
</g>
<!-- var8&#45;&gt;var5 -->
<g id="edge5" class="edge">
<title>var8&#45;&gt;var5</title>
<path fill="none" stroke="black" d="M33.85,-216.12C27.14,-186.86 15.04,-124.76 19,-72 19.62,-63.8 20.76,-54.95 21.99,-46.87"/>
<polygon fill="black" stroke="black" points="25.59,-47.55 23.75,-37.11 18.68,-46.42 25.59,-47.55"/>
</g>
<!-- var8&#45;&gt;var6 -->
<g id="edge3" class="edge">
<title>var8&#45;&gt;var6</title>
<path fill="none" stroke="black" d="M40.08,-215.59C42.98,-191.4 48.25,-147.36 51.69,-118.65"/>
<polygon fill="black" stroke="black" points="55.24,-119.46 52.95,-109.11 48.29,-118.62 55.24,-119.46"/>
</g>
<!-- var8&#45;&gt;var7 -->
<g id="edge1" class="edge">
<title>var8&#45;&gt;var7</title>
<path fill="none" stroke="black" d="M50.21,-217.46C57.26,-208.49 66.27,-197.02 74.21,-186.92"/>
<polygon fill="black" stroke="black" points="77.4,-189.52 80.83,-179.49 71.9,-185.19 77.4,-189.52"/>
</g>
</g>
</svg>