<?xml version="1.0" encoding="UTF-8" standalone="no"?>
<!DOCTYPE svg PUBLIC "-//W3C//DTD SVG 1.1//EN"
 "http://www.w3.org/Graphics/SVG/1.1/DTD/svg11.dtd">
<!-- Generated by graphviz version 12.2.1 (20250203.1708)
 -->
<!-- Title: G Pages: 1 -->
<svg width="710pt" height="177pt"
 viewBox="0.00 0.00 710.00 177.20" xmlns="http://www.w3.org/2000/svg" xmlns:xlink="http://www.w3.org/1999/xlink">
<g id="graph0" class="graph" transform="scale(1 1) rotate(0) translate(4 173.2)">
<title>G</title>
<polygon fill="white" stroke="none" points="-4,4 -4,-173.2 706,-173.2 706,4 -4,4"/>
<!-- 0x56253549a450 -->
<g id="node1" class="node">
<title>0x56253549a450</title>
<ellipse fill="none" stroke="black" cx="351" cy="-151.2" rx="18" ry="18"/>
<text text-anchor="middle" x="351" y="-146.52" font-family="Times,serif" font-size="14.00">2</text>
</g>
<!-- 0x5625349d8000 -->
<g id="node2" class="node">
<title>0x5625349d8000</title>
<ellipse fill="none" stroke="black" cx="99" cy="-79.2" rx="18" ry="18"/>
<text text-anchor="middle" x="99" y="-74.52" font-family="Times,serif" font-size="14.00">0</text>
</g>
<!-- 0x56253549a450&#45;&gt;0x5625349d8000 -->
<g id="edge1" class="edge">
<title>0x56253549a450&#45;&gt;0x5625349d8000</title>
<path fill="none" stroke="black" d="M333.68,-145.39C290.88,-133.5 179.81,-102.65 127.3,-88.06"/>
<polygon fill="black" stroke="black" points="128.47,-84.75 117.9,-85.45 126.6,-91.5 128.47,-84.75"/>
</g>
<!-- 0x562535644aa0 -->
<g id="node5" class="node">
<title>0x562535644aa0</title>
<ellipse fill="none" stroke="black" cx="243" cy="-79.2" rx="18" ry="18"/>
<text text-anchor="middle" x="243" y="-74.52" font-family="Times,serif" font-size="14.00">0</text>
</g>
<!-- 0x56253549a450&#45;&gt;0x562535644aa0 -->
<g id="edge4" class="edge">
<title>0x56253549a450&#45;&gt;0x562535644aa0</title>
<path fill="none" stroke="black" d="M335.98,-140.47C318.25,-128.97 288.51,-109.7 267.44,-96.04"/>
<polygon fill="black" stroke="black" points="269.45,-93.18 259.16,-90.67 265.65,-99.05 269.45,-93.18"/>
</g>
<!-- 0x562535782c30 -->
<g id="node8" class="node">
<title>0x562535782c30</title>
<ellipse fill="none" stroke="black" cx="351" cy="-79.2" rx="18" ry="18"/>
<text text-anchor="middle" x="351" y="-74.52" font-family="Times,serif" font-size="14.00">0</text>
</g>
<!-- 0x56253549a450&#45;&gt;0x562535782c30 -->
<g id="edge7" class="edge">
<title>0x56253549a450&#45;&gt;0x562535782c30</title>
<path fill="none" stroke="black" d="M351,-132.9C351,-125.61 351,-116.93 351,-108.74"/>
<polygon fill="black" stroke="black" points="354.5,-108.82 351,-98.82 347.5,-108.82 354.5,-108.82"/>
</g>
<!-- 0x5625355dbaa0 -->
<g id="node11" class="node">
<title>0x5625355dbaa0</title>
<ellipse fill="none" stroke="black" cx="459" cy="-79.2" rx="18" ry="18"/>
<text text-anchor="middle" x="459" y="-74.52" font-family="Times,serif" font-size="14.00">0</text>
</g>
<!-- 0x56253549a450&#45;&gt;0x5625355dbaa0 -->
<g id="edge10" class="edge">
<title>0x56253549a450&#45;&gt;0x5625355dbaa0</title>
<path fill="none" stroke="black" d="M366.02,-140.47C383.75,-128.97 413.49,-109.7 434.56,-96.04"/>
<polygon fill="black" stroke="black" points="436.35,-99.05 442.84,-90.67 432.55,-93.18 436.35,-99.05"/>
</g>
<!-- 0x562535511740 -->
<g id="node14" class="node">
<title>0x562535511740</title>
<ellipse fill="none" stroke="black" cx="603" cy="-79.2" rx="18" ry="18"/>
<text text-anchor="middle" x="603" y="-74.52" font-family="Times,serif" font-size="14.00">0</text>
</g>
<!-- 0x56253549a450&#45;&gt;0x562535511740 -->
<g id="edge13" class="edge">
<title>0x56253549a450&#45;&gt;0x562535511740</title>
<path fill="none" stroke="black" d="M368.32,-145.39C411.12,-133.5 522.19,-102.65 574.7,-88.06"/>
<polygon fill="black" stroke="black" points="575.4,-91.5 584.1,-85.45 573.53,-84.75 575.4,-91.5"/>
</g>
<!-- 0x5625355c47f0 -->
<g id="node3" class="node">
<title>0x5625355c47f0</title>
<polygon fill="none" stroke="black" points="54,-25.2 0,-25.2 0,0 54,0 54,-25.2"/>
<text text-anchor="middle" x="27" y="-7.93" font-family="Times,serif" font-size="14.00">0.99</text>
</g>
<!-- 0x5625349d8000&#45;&gt;0x5625355c47f0 -->
<g id="edge2" class="edge">
<title>0x5625349d8000&#45;&gt;0x5625355c47f0</title>
<path fill="none" stroke="black" stroke-dasharray="5,2" d="M85.79,-66.35C75.34,-56.97 60.53,-43.68 48.39,-32.79"/>
<polygon fill="black" stroke="black" points="51.03,-30.46 41.25,-26.38 46.35,-35.67 51.03,-30.46"/>
</g>
<!-- 0x562535552d50 -->
<g id="node4" class="node">
<title>0x562535552d50</title>
<polygon fill="none" stroke="black" points="126,-25.2 72,-25.2 72,0 126,0 126,-25.2"/>
<text text-anchor="middle" x="99" y="-7.93" font-family="Times,serif" font-size="14.00">0.01</text>
</g>
<!-- 0x5625349d8000&#45;&gt;0x562535552d50 -->
<g id="edge3" class="edge">
<title>0x5625349d8000&#45;&gt;0x562535552d50</title>
<path fill="none" stroke="black" d="M99,-60.89C99,-53.53 99,-44.84 99,-36.93"/>
<polygon fill="black" stroke="black" points="102.5,-36.96 99,-26.96 95.5,-36.96 102.5,-36.96"/>
</g>
<!-- 0x5625357b9a50 -->
<g id="node6" class="node">
<title>0x5625357b9a50</title>
<polygon fill="none" stroke="black" points="198,-25.2 144,-25.2 144,0 198,0 198,-25.2"/>
<text text-anchor="middle" x="171" y="-7.93" font-family="Times,serif" font-size="14.00">0.99</text>
</g>
<!-- 0x562535644aa0&#45;&gt;0x5625357b9a50 -->
<g id="edge5" class="edge">
<title>0x562535644aa0&#45;&gt;0x5625357b9a50</title>
<path fill="none" stroke="black" stroke-dasharray="5,2" d="M229.79,-66.35C219.34,-56.97 204.53,-43.68 192.39,-32.79"/>
<polygon fill="black" stroke="black" points="195.03,-30.46 185.25,-26.38 190.35,-35.67 195.03,-30.46"/>
</g>
<!-- 0x5625357d7f60 -->
<g id="node7" class="node">
<title>0x5625357d7f60</title>
<polygon fill="none" stroke="black" points="270,-25.2 216,-25.2 216,0 270,0 270,-25.2"/>
<text text-anchor="middle" x="243" y="-7.93" font-family="Times,serif" font-size="14.00">0.01</text>
</g>
<!-- 0x562535644aa0&#45;&gt;0x5625357d7f60 -->
<g id="edge6" class="edge">
<title>0x562535644aa0&#45;&gt;0x5625357d7f60</title>
<path fill="none" stroke="black" d="M243,-60.89C243,-53.53 243,-44.84 243,-36.93"/>
<polygon fill="black" stroke="black" points="246.5,-36.96 243,-26.96 239.5,-36.96 246.5,-36.96"/>
</g>
<!-- 0x56253578f140 -->
<g id="node9" class="node">
<title>0x56253578f140</title>
<polygon fill="none" stroke="black" points="342,-25.2 288,-25.2 288,0 342,0 342,-25.2"/>
<text text-anchor="middle" x="315" y="-7.93" font-family="Times,serif" font-size="14.00"> 0.1</text>
</g>
<!-- 0x562535782c30&#45;&gt;0x56253578f140 -->
<g id="edge8" class="edge">
<title>0x562535782c30&#45;&gt;0x56253578f140</title>
<path fill="none" stroke="black" stroke-dasharray="5,2" d="M342.47,-62.89C337.87,-54.63 332.11,-44.3 327.05,-35.23"/>
<polygon fill="black" stroke="black" points="330.22,-33.72 322.29,-26.69 324.1,-37.13 330.22,-33.72"/>
</g>
<!-- 0x5625357fd580 -->
<g id="node10" class="node">
<title>0x5625357fd580</title>
<polygon fill="none" stroke="black" points="414,-25.2 360,-25.2 360,0 414,0 414,-25.2"/>
<text text-anchor="middle" x="387" y="-7.93" font-family="Times,serif" font-size="14.00"> 0.9</text>
</g>
<!-- 0x562535782c30&#45;&gt;0x5625357fd580 -->
<g id="edge9" class="edge">
<title>0x562535782c30&#45;&gt;0x5625357fd580</title>
<path fill="none" stroke="black" d="M359.53,-62.89C364.13,-54.63 369.89,-44.3 374.95,-35.23"/>
<polygon fill="black" stroke="black" points="377.9,-37.13 379.71,-26.69 371.78,-33.72 377.9,-37.13"/>
</g>
<!-- 0x5625354b4e00 -->
<g id="node12" class="node">
<title>0x5625354b4e00</title>
<polygon fill="none" stroke="black" points="486,-25.2 432,-25.2 432,0 486,0 486,-25.2"/>
<text text-anchor="middle" x="459" y="-7.93" font-family="Times,serif" font-size="14.00">0.15</text>
</g>
<!-- 0x5625355dbaa0&#45;&gt;0x5625354b4e00 -->
<g id="edge11" class="edge">
<title>0x5625355dbaa0&#45;&gt;0x5625354b4e00</title>
<path fill="none" stroke="black" stroke-dasharray="5,2" d="M459,-60.89C459,-53.53 459,-44.84 459,-36.93"/>
<polygon fill="black" stroke="black" points="462.5,-36.96 459,-26.96 455.5,-36.96 462.5,-36.96"/>
</g>
<!-- 0x5625357f3a90 -->
<g id="node13" class="node">
<title>0x5625357f3a90</title>
<polygon fill="none" stroke="black" points="558,-25.2 504,-25.2 504,0 558,0 558,-25.2"/>
<text text-anchor="middle" x="531" y="-7.93" font-family="Times,serif" font-size="14.00">0.85</text>
</g>
<!-- 0x5625355dbaa0&#45;&gt;0x5625357f3a90 -->
<g id="edge12" class="edge">
<title>0x5625355dbaa0&#45;&gt;0x5625357f3a90</title>
<path fill="none" stroke="black" d="M472.21,-66.35C482.66,-56.97 497.47,-43.68 509.61,-32.79"/>
<polygon fill="black" stroke="black" points="511.65,-35.67 516.75,-26.38 506.97,-30.46 511.65,-35.67"/>
</g>
<!-- 0x562535789980 -->
<g id="node15" class="node">
<title>0x562535789980</title>
<polygon fill="none" stroke="black" points="630,-25.2 576,-25.2 576,0 630,0 630,-25.2"/>
<text text-anchor="middle" x="603" y="-7.93" font-family="Times,serif" font-size="14.00">0.95</text>
</g>
<!-- 0x562535511740&#45;&gt;0x562535789980 -->
<g id="edge14" class="edge">
<title>0x562535511740&#45;&gt;0x562535789980</title>
<path fill="none" stroke="black" stroke-dasharray="5,2" d="M603,-60.89C603,-53.53 603,-44.84 603,-36.93"/>
<polygon fill="black" stroke="black" points="606.5,-36.96 603,-26.96 599.5,-36.96 606.5,-36.96"/>
</g>
<!-- 0x562535538c60 -->
<g id="node16" class="node">
<title>0x562535538c60</title>
<polygon fill="none" stroke="black" points="702,-25.2 648,-25.2 648,0 702,0 702,-25.2"/>
<text text-anchor="middle" x="675" y="-7.93" font-family="Times,serif" font-size="14.00">0.05</text>
</g>
<!-- 0x562535511740&#45;&gt;0x562535538c60 -->
<g id="edge15" class="edge">
<title>0x562535511740&#45;&gt;0x562535538c60</title>
<path fill="none" stroke="black" d="M616.21,-66.35C626.66,-56.97 641.47,-43.68 653.61,-32.79"/>
<polygon fill="black" stroke="black" points="655.65,-35.67 660.75,-26.38 650.97,-30.46 655.65,-35.67"/>
</g>
</g>
</svg>