<?xml version="1.0" encoding="UTF-8" standalone="no"?>
<!DOCTYPE svg PUBLIC "-//W3C//DTD SVG 1.1//EN"
 "http://www.w3.org/Graphics/SVG/1.1/DTD/svg11.dtd">
<!-- Generated by graphviz version 8.1.0 (20230707.2238)
 -->
<!-- Pages: 1 -->
<svg width="206pt" height="84pt"
 viewBox="0.00 0.00 206.00 83.60" xmlns="http://www.w3.org/2000/svg" xmlns:xlink="http://www.w3.org/1999/xlink">
<g id="graph0" class="graph" transform="scale(1 1) rotate(0) translate(4 79.6)">
<polygon fill="white" stroke="none" points="-4,4 -4,-79.6 202,-79.6 202,4 -4,4"/>
<!-- var6341068275337658369 -->
<g id="node1" class="node">
<title>var6341068275337658369</title>
<ellipse fill="none" stroke="black" cx="27" cy="-57.6" rx="27" ry="18"/>
<text text-anchor="middle" x="27" y="-52.92" font-family="Times,serif" font-size="14.00">X1</text>
</g>
<!-- factor0 -->
<g id="node4" class="node">
<title>factor0</title>
<ellipse fill="black" stroke="black" cx="16" cy="-1.8" rx="1.8" ry="1.8"/>
</g>
<!-- var6341068275337658369&#45;&#45;factor0 -->
<g id="edge1" class="edge">
<title>var6341068275337658369&#45;&#45;factor0</title>
<path fill="none" stroke="black" d="M23.46,-39.28C20.7,-25.77 17.17,-8.54 16.24,-3.96"/>
</g>
<!-- factor1 -->
<g id="node5" class="node">
<title>factor1</title>
<ellipse fill="black" stroke="black" cx="69" cy="-1.8" rx="1.8" ry="1.8"/>
</g>
<!-- var6341068275337658369&#45;&#45;factor1 -->
<g id="edge3" class="edge">
<title>var6341068275337658369&#45;&#45;factor1</title>
<path fill="none" stroke="black" d="M39.15,-41.04C50,-27.14 64.72,-8.29 68.23,-3.79"/>
</g>
<!-- factor3 -->
<g id="node7" class="node">
<title>factor3</title>
<ellipse fill="black" stroke="black" cx="38" cy="-1.8" rx="1.8" ry="1.8"/>
</g>
<!-- var6341068275337658369&#45;&#45;factor3 -->
<g id="edge6" class="edge">
<title>var6341068275337658369&#45;&#45;factor3</title>
<path fill="none" stroke="black" d="M30.54,-39.28C33.3,-25.77 36.83,-8.54 37.76,-3.96"/>
</g>
<!-- var6341068275337658370 -->
<g id="node2" class="node">
<title>var6341068275337658370</title>
<ellipse fill="none" stroke="black" cx="99" cy="-57.6" rx="27" ry="18"/>
<text text-anchor="middle" x="99" y="-52.92" font-family="Times,serif" font-size="14.00">X2</text>
</g>
<!-- var6341068275337658370&#45;&#45;factor1 -->
<g id="edge2" class="edge">
<title>var6341068275337658370&#45;&#45;factor1</title>
<path fill="none" stroke="black" d="M89.84,-40.17C82.12,-26.32 71.95,-8.1 69.53,-3.76"/>
</g>
<!-- factor2 -->
<g id="node6" class="node">
<title>factor2</title>
<ellipse fill="black" stroke="black" cx="135" cy="-1.8" rx="1.8" ry="1.8"/>
</g>
<!-- var6341068275337658370&#45;&#45;factor2 -->
<g id="edge5" class="edge">
<title>var6341068275337658370&#45;&#45;factor2</title>
<path fill="none" stroke="black" d="M109.61,-40.75C118.9,-26.86 131.37,-8.22 134.34,-3.78"/>
</g>
<!-- factor4 -->
<g id="node8" class="node">
<title>factor4</title>
<ellipse fill="black" stroke="black" cx="99" cy="-1.8" rx="1.8" ry="1.8"/>
</g>
<!-- var6341068275337658370&#45;&#45;factor4 -->
<g id="edge7" class="edge">
<title>var6341068275337658370&#45;&#45;factor4</title>
<path fill="none" stroke="black" d="M99,-39.28C99,-25.77 99,-8.54 99,-3.96"/>
</g>
<!-- var6341068275337658371 -->
<g id="node3" class="node">
<title>var6341068275337658371</title>
<ellipse fill="none" stroke="black" cx="171" cy="-57.6" rx="27" ry="18"/>
<text text-anchor="middle" x="171" y="-52.92" font-family="Times,serif" font-size="14.00">X3</text>
</g>
<!-- var6341068275337658371&#45;&#45;factor2 -->
<g id="edge4" class="edge">
<title>var6341068275337658371&#45;&#45;factor2</title>
<path fill="none" stroke="black" d="M160.39,-40.75C151.1,-26.86 138.63,-8.22 135.66,-3.78"/>
</g>
<!-- factor5 -->
<g id="node9" class="node">
<title>factor5</title>
<ellipse fill="black" stroke="black" cx="171" cy="-1.8" rx="1.8" ry="1.8"/>
</g>
<!-- var6341068275337658371&#45;&#45;factor5 -->
<g id="edge8" class="edge">
<title>var6341068275337658371&#45;&#45;factor5</title>
<path fill="none" stroke="black" d="M171,-39.28C171,-25.77 171,-8.54 171,-3.96"/>
</g>
</g>
</svg>