<?xml version="1.0" encoding="UTF-8" standalone="no"?>
<!DOCTYPE svg PUBLIC "-//W3C//DTD SVG 1.1//EN"
 "http://www.w3.org/Graphics/SVG/1.1/DTD/svg11.dtd">
<!-- Generated by graphviz version 12.2.1 (20250203.1708)
 -->
<!-- Pages: 1 -->
<svg width="360pt" height="22pt"
 viewBox="0.00 0.00 360.00 22.47" xmlns="http://www.w3.org/2000/svg" xmlns:xlink="http://www.w3.org/1999/xlink">
<g id="graph0" class="graph" transform="scale(0.352169 0.352169) rotate(0) translate(4 59.8)">
<polygon fill="white" stroke="none" points="-4,4 -4,-59.8 1018.24,-59.8 1018.24,4 -4,4"/>
<!-- var8646911284551352321 -->
<g id="node1" class="node">
<title>var8646911284551352321</title>
<ellipse fill="none" stroke="black" cx="48.6" cy="-37.8" rx="27" ry="18"/>
<text text-anchor="middle" x="48.6" y="-33.13" font-family="Times,serif" font-size="14.00">x1</text>
</g>
<!-- factor0 -->
<g id="node15" class="node">
<title>factor0</title>
<ellipse fill="black" stroke="black" cx="1.8" cy="-37.8" rx="1.8" ry="1.8"/>
</g>
<!-- var8646911284551352321&#45;&#45;factor0 -->
<g id="edge1" class="edge">
<title>var8646911284551352321&#45;&#45;factor0</title>
<path fill="none" stroke="black" d="M21.11,-37.8C13.78,-37.8 7.01,-37.8 3.78,-37.8"/>
</g>
<!-- factor1 -->
<g id="node16" class="node">
<title>factor1</title>
<ellipse fill="black" stroke="black" cx="84.6" cy="-37.8" rx="1.8" ry="1.8"/>
</g>
<!-- var8646911284551352321&#45;&#45;factor1 -->
<g id="edge3" class="edge">
<title>var8646911284551352321&#45;&#45;factor1</title>
<path fill="none" stroke="black" d="M75.89,-37.8C78.71,-37.8 81.11,-37.8 82.68,-37.8"/>
</g>
<!-- factor14 -->
<g id="node29" class="node">
<title>factor14</title>
<ellipse fill="black" stroke="black" cx="48.6" cy="-1.8" rx="1.8" ry="1.8"/>
</g>
<!-- var8646911284551352321&#45;&#45;factor14 -->
<g id="edge28" class="edge">
<title>var8646911284551352321&#45;&#45;factor14</title>
<path fill="none" stroke="black" d="M48.6,-19.38C48.6,-13.29 48.6,-7.26 48.6,-4.09"/>
</g>
<!-- var8646911284551352322 -->
<g id="node2" class="node">
<title>var8646911284551352322</title>
<ellipse fill="none" stroke="black" cx="120.6" cy="-37.8" rx="27" ry="18"/>
<text text-anchor="middle" x="120.6" y="-33.13" font-family="Times,serif" font-size="14.00">x2</text>
</g>
<!-- var8646911284551352322&#45;&#45;factor1 -->
<g id="edge2" class="edge">
<title>var8646911284551352322&#45;&#45;factor1</title>
<path fill="none" stroke="black" d="M93.31,-37.8C90.49,-37.8 88.09,-37.8 86.52,-37.8"/>
</g>
<!-- factor2 -->
<g id="node17" class="node">
<title>factor2</title>
<ellipse fill="black" stroke="black" cx="156.6" cy="-37.8" rx="1.8" ry="1.8"/>
</g>
<!-- var8646911284551352322&#45;&#45;factor2 -->
<g id="edge5" class="edge">
<title>var8646911284551352322&#45;&#45;factor2</title>
<path fill="none" stroke="black" d="M147.89,-37.8C150.71,-37.8 153.11,-37.8 154.68,-37.8"/>
</g>
<!-- factor15 -->
<g id="node30" class="node">
<title>factor15</title>
<ellipse fill="black" stroke="black" cx="120.6" cy="-1.8" rx="1.8" ry="1.8"/>
</g>
<!-- var8646911284551352322&#45;&#45;factor15 -->
<g id="edge29" class="edge">
<title>var8646911284551352322&#45;&#45;factor15</title>
<path fill="none" stroke="black" d="M120.6,-19.38C120.6,-13.29 120.6,-7.26 120.6,-4.09"/>
</g>
<!-- var8646911284551352323 -->
<g id="node3" class="node">
<title>var8646911284551352323</title>
<ellipse fill="none" stroke="black" cx="192.6" cy="-37.8" rx="27" ry="18"/>
<text text-anchor="middle" x="192.6" y="-33.13" font-family="Times,serif" font-size="14.00">x3</text>
</g>
<!-- var8646911284551352323&#45;&#45;factor2 -->
<g id="edge4" class="edge">
<title>var8646911284551352323&#45;&#45;factor2</title>
<path fill="none" stroke="black" d="M165.31,-37.8C162.49,-37.8 160.09,-37.8 158.52,-37.8"/>
</g>
<!-- factor3 -->
<g id="node18" class="node">
<title>factor3</title>
<ellipse fill="black" stroke="black" cx="228.6" cy="-37.8" rx="1.8" ry="1.8"/>
</g>
<!-- var8646911284551352323&#45;&#45;factor3 -->
<g id="edge7" class="edge">
<title>var8646911284551352323&#45;&#45;factor3</title>
<path fill="none" stroke="black" d="M219.89,-37.8C222.71,-37.8 225.11,-37.8 226.68,-37.8"/>
</g>
<!-- factor16 -->
<g id="node31" class="node">
<title>factor16</title>
<ellipse fill="black" stroke="black" cx="192.6" cy="-1.8" rx="1.8" ry="1.8"/>
</g>
<!-- var8646911284551352323&#45;&#45;factor16 -->
<g id="edge30" class="edge">
<title>var8646911284551352323&#45;&#45;factor16</title>
<path fill="none" stroke="black" d="M192.6,-19.38C192.6,-13.29 192.6,-7.26 192.6,-4.09"/>
</g>
<!-- var8646911284551352324 -->
<g id="node4" class="node">
<title>var8646911284551352324</title>
<ellipse fill="none" stroke="black" cx="264.6" cy="-37.8" rx="27" ry="18"/>
<text text-anchor="middle" x="264.6" y="-33.13" font-family="Times,serif" font-size="14.00">x4</text>
</g>
<!-- var8646911284551352324&#45;&#45;factor3 -->
<g id="edge6" class="edge">
<title>var8646911284551352324&#45;&#45;factor3</title>
<path fill="none" stroke="black" d="M237.31,-37.8C234.49,-37.8 232.09,-37.8 230.52,-37.8"/>
</g>
<!-- factor4 -->
<g id="node19" class="node">
<title>factor4</title>
<ellipse fill="black" stroke="black" cx="300.6" cy="-37.8" rx="1.8" ry="1.8"/>
</g>
<!-- var8646911284551352324&#45;&#45;factor4 -->
<g id="edge9" class="edge">
<title>var8646911284551352324&#45;&#45;factor4</title>
<path fill="none" stroke="black" d="M291.89,-37.8C294.71,-37.8 297.11,-37.8 298.68,-37.8"/>
</g>
<!-- factor17 -->
<g id="node32" class="node">
<title>factor17</title>
<ellipse fill="black" stroke="black" cx="264.6" cy="-1.8" rx="1.8" ry="1.8"/>
</g>
<!-- var8646911284551352324&#45;&#45;factor17 -->
<g id="edge31" class="edge">
<title>var8646911284551352324&#45;&#45;factor17</title>
<path fill="none" stroke="black" d="M264.6,-19.38C264.6,-13.29 264.6,-7.26 264.6,-4.09"/>
</g>
<!-- var8646911284551352325 -->
<g id="node5" class="node">
<title>var8646911284551352325</title>
<ellipse fill="none" stroke="black" cx="336.6" cy="-37.8" rx="27" ry="18"/>
<text text-anchor="middle" x="336.6" y="-33.13" font-family="Times,serif" font-size="14.00">x5</text>
</g>
<!-- var8646911284551352325&#45;&#45;factor4 -->
<g id="edge8" class="edge">
<title>var8646911284551352325&#45;&#45;factor4</title>
<path fill="none" stroke="black" d="M309.31,-37.8C306.49,-37.8 304.09,-37.8 302.52,-37.8"/>
</g>
<!-- factor5 -->
<g id="node20" class="node">
<title>factor5</title>
<ellipse fill="black" stroke="black" cx="372.6" cy="-37.8" rx="1.8" ry="1.8"/>
</g>
<!-- var8646911284551352325&#45;&#45;factor5 -->
<g id="edge11" class="edge">
<title>var8646911284551352325&#45;&#45;factor5</title>
<path fill="none" stroke="black" d="M363.89,-37.8C366.71,-37.8 369.11,-37.8 370.68,-37.8"/>
</g>
<!-- factor18 -->
<g id="node33" class="node">
<title>factor18</title>
<ellipse fill="black" stroke="black" cx="336.6" cy="-1.8" rx="1.8" ry="1.8"/>
</g>
<!-- var8646911284551352325&#45;&#45;factor18 -->
<g id="edge32" class="edge">
<title>var8646911284551352325&#45;&#45;factor18</title>
<path fill="none" stroke="black" d="M336.6,-19.38C336.6,-13.29 336.6,-7.26 336.6,-4.09"/>
</g>
<!-- var8646911284551352326 -->
<g id="node6" class="node">
<title>var8646911284551352326</title>
<ellipse fill="none" stroke="black" cx="408.6" cy="-37.8" rx="27" ry="18"/>
<text text-anchor="middle" x="408.6" y="-33.13" font-family="Times,serif" font-size="14.00">x6</text>
</g>
<!-- var8646911284551352326&#45;&#45;factor5 -->
<g id="edge10" class="edge">
<title>var8646911284551352326&#45;&#45;factor5</title>
<path fill="none" stroke="black" d="M381.31,-37.8C378.49,-37.8 376.09,-37.8 374.52,-37.8"/>
</g>
<!-- factor6 -->
<g id="node21" class="node">
<title>factor6</title>
<ellipse fill="black" stroke="black" cx="444.6" cy="-37.8" rx="1.8" ry="1.8"/>
</g>
<!-- var8646911284551352326&#45;&#45;factor6 -->
<g id="edge13" class="edge">
<title>var8646911284551352326&#45;&#45;factor6</title>
<path fill="none" stroke="black" d="M435.89,-37.8C438.71,-37.8 441.11,-37.8 442.68,-37.8"/>
</g>
<!-- factor19 -->
<g id="node34" class="node">
<title>factor19</title>
<ellipse fill="black" stroke="black" cx="408.6" cy="-1.8" rx="1.8" ry="1.8"/>
</g>
<!-- var8646911284551352326&#45;&#45;factor19 -->
<g id="edge33" class="edge">
<title>var8646911284551352326&#45;&#45;factor19</title>
<path fill="none" stroke="black" d="M408.6,-19.38C408.6,-13.29 408.6,-7.26 408.6,-4.09"/>
</g>
<!-- var8646911284551352327 -->
<g id="node7" class="node">
<title>var8646911284551352327</title>
<ellipse fill="none" stroke="black" cx="480.6" cy="-37.8" rx="27" ry="18"/>
<text text-anchor="middle" x="480.6" y="-33.13" font-family="Times,serif" font-size="14.00">x7</text>
</g>
<!-- var8646911284551352327&#45;&#45;factor6 -->
<g id="edge12" class="edge">
<title>var8646911284551352327&#45;&#45;factor6</title>
<path fill="none" stroke="black" d="M453.31,-37.8C450.49,-37.8 448.09,-37.8 446.52,-37.8"/>
</g>
<!-- factor7 -->
<g id="node22" class="node">
<title>factor7</title>
<ellipse fill="black" stroke="black" cx="516.6" cy="-37.8" rx="1.8" ry="1.8"/>
</g>
<!-- var8646911284551352327&#45;&#45;factor7 -->
<g id="edge15" class="edge">
<title>var8646911284551352327&#45;&#45;factor7</title>
<path fill="none" stroke="black" d="M507.89,-37.8C510.71,-37.8 513.11,-37.8 514.68,-37.8"/>
</g>
<!-- factor20 -->
<g id="node35" class="node">
<title>factor20</title>
<ellipse fill="black" stroke="black" cx="480.6" cy="-1.8" rx="1.8" ry="1.8"/>
</g>
<!-- var8646911284551352327&#45;&#45;factor20 -->
<g id="edge34" class="edge">
<title>var8646911284551352327&#45;&#45;factor20</title>
<path fill="none" stroke="black" d="M480.6,-19.38C480.6,-13.29 480.6,-7.26 480.6,-4.09"/>
</g>
<!-- var8646911284551352328 -->
<g id="node8" class="node">
<title>var8646911284551352328</title>
<ellipse fill="none" stroke="black" cx="552.6" cy="-37.8" rx="27" ry="18"/>
<text text-anchor="middle" x="552.6" y="-33.13" font-family="Times,serif" font-size="14.00">x8</text>
</g>
<!-- var8646911284551352328&#45;&#45;factor7 -->
<g id="edge14" class="edge">
<title>var8646911284551352328&#45;&#45;factor7</title>
<path fill="none" stroke="black" d="M525.31,-37.8C522.49,-37.8 520.09,-37.8 518.52,-37.8"/>
</g>
<!-- factor8 -->
<g id="node23" class="node">
<title>factor8</title>
<ellipse fill="black" stroke="black" cx="588.6" cy="-37.8" rx="1.8" ry="1.8"/>
</g>
<!-- var8646911284551352328&#45;&#45;factor8 -->
<g id="edge17" class="edge">
<title>var8646911284551352328&#45;&#45;factor8</title>
<path fill="none" stroke="black" d="M579.89,-37.8C582.71,-37.8 585.11,-37.8 586.68,-37.8"/>
</g>
<!-- factor21 -->
<g id="node36" class="node">
<title>factor21</title>
<ellipse fill="black" stroke="black" cx="552.6" cy="-1.8" rx="1.8" ry="1.8"/>
</g>
<!-- var8646911284551352328&#45;&#45;factor21 -->
<g id="edge35" class="edge">
<title>var8646911284551352328&#45;&#45;factor21</title>
<path fill="none" stroke="black" d="M552.6,-19.38C552.6,-13.29 552.6,-7.26 552.6,-4.09"/>
</g>
<!-- var8646911284551352329 -->
<g id="node9" class="node">
<title>var8646911284551352329</title>
<ellipse fill="none" stroke="black" cx="624.6" cy="-37.8" rx="27" ry="18"/>
<text text-anchor="middle" x="624.6" y="-33.13" font-family="Times,serif" font-size="14.00">x9</text>
</g>
<!-- var8646911284551352329&#45;&#45;factor8 -->
<g id="edge16" class="edge">
<title>var8646911284551352329&#45;&#45;factor8</title>
<path fill="none" stroke="black" d="M597.31,-37.8C594.49,-37.8 592.09,-37.8 590.52,-37.8"/>
</g>
<!-- factor9 -->
<g id="node24" class="node">
<title>factor9</title>
<ellipse fill="black" stroke="black" cx="660.6" cy="-37.8" rx="1.8" ry="1.8"/>
</g>
<!-- var8646911284551352329&#45;&#45;factor9 -->
<g id="edge19" class="edge">
<title>var8646911284551352329&#45;&#45;factor9</title>
<path fill="none" stroke="black" d="M651.89,-37.8C654.71,-37.8 657.11,-37.8 658.68,-37.8"/>
</g>
<!-- factor22 -->
<g id="node37" class="node">
<title>factor22</title>
<ellipse fill="black" stroke="black" cx="624.6" cy="-1.8" rx="1.8" ry="1.8"/>
</g>
<!-- var8646911284551352329&#45;&#45;factor22 -->
<g id="edge36" class="edge">
<title>var8646911284551352329&#45;&#45;factor22</title>
<path fill="none" stroke="black" d="M624.6,-19.38C624.6,-13.29 624.6,-7.26 624.6,-4.09"/>
</g>
<!-- var8646911284551352330 -->
<g id="node10" class="node">
<title>var8646911284551352330</title>
<ellipse fill="none" stroke="black" cx="696.6" cy="-37.8" rx="29.64" ry="18"/>
<text text-anchor="middle" x="696.6" y="-33.13" font-family="Times,serif" font-size="14.00">x10</text>
</g>
<!-- var8646911284551352330&#45;&#45;factor9 -->
<g id="edge18" class="edge">
<title>var8646911284551352330&#45;&#45;factor9</title>
<path fill="none" stroke="black" d="M666.54,-37.8C664.99,-37.8 663.66,-37.8 662.65,-37.8"/>
</g>
<!-- factor10 -->
<g id="node25" class="node">
<title>factor10</title>
<ellipse fill="black" stroke="black" cx="732.6" cy="-37.8" rx="1.8" ry="1.8"/>
</g>
<!-- var8646911284551352330&#45;&#45;factor10 -->
<g id="edge21" class="edge">
<title>var8646911284551352330&#45;&#45;factor10</title>
<path fill="none" stroke="black" d="M726.66,-37.8C728.21,-37.8 729.54,-37.8 730.55,-37.8"/>
</g>
<!-- factor23 -->
<g id="node38" class="node">
<title>factor23</title>
<ellipse fill="black" stroke="black" cx="696.6" cy="-1.8" rx="1.8" ry="1.8"/>
</g>
<!-- var8646911284551352330&#45;&#45;factor23 -->
<g id="edge37" class="edge">
<title>var8646911284551352330&#45;&#45;factor23</title>
<path fill="none" stroke="black" d="M696.6,-19.38C696.6,-13.29 696.6,-7.26 696.6,-4.09"/>
</g>
<!-- var8646911284551352331 -->
<g id="node11" class="node">
<title>var8646911284551352331</title>
<ellipse fill="none" stroke="black" cx="768.6" cy="-37.8" rx="29.64" ry="18"/>
<text text-anchor="middle" x="768.6" y="-33.13" font-family="Times,serif" font-size="14.00">x11</text>
</g>
<!-- var8646911284551352331&#45;&#45;factor10 -->
<g id="edge20" class="edge">
<title>var8646911284551352331&#45;&#45;factor10</title>
<path fill="none" stroke="black" d="M738.54,-37.8C736.99,-37.8 735.66,-37.8 734.65,-37.8"/>
</g>
<!-- factor11 -->
<g id="node26" class="node">
<title>factor11</title>
<ellipse fill="black" stroke="black" cx="804.6" cy="-37.8" rx="1.8" ry="1.8"/>
</g>
<!-- var8646911284551352331&#45;&#45;factor11 -->
<g id="edge23" class="edge">
<title>var8646911284551352331&#45;&#45;factor11</title>
<path fill="none" stroke="black" d="M798.66,-37.8C800.21,-37.8 801.54,-37.8 802.55,-37.8"/>
</g>
<!-- factor24 -->
<g id="node39" class="node">
<title>factor24</title>
<ellipse fill="black" stroke="black" cx="768.6" cy="-1.8" rx="1.8" ry="1.8"/>
</g>
<!-- var8646911284551352331&#45;&#45;factor24 -->
<g id="edge38" class="edge">
<title>var8646911284551352331&#45;&#45;factor24</title>
<path fill="none" stroke="black" d="M768.6,-19.38C768.6,-13.29 768.6,-7.26 768.6,-4.09"/>
</g>
<!-- var8646911284551352332 -->
<g id="node12" class="node">
<title>var8646911284551352332</title>
<ellipse fill="none" stroke="black" cx="840.6" cy="-37.8" rx="29.64" ry="18"/>
<text text-anchor="middle" x="840.6" y="-33.13" font-family="Times,serif" font-size="14.00">x12</text>
</g>
<!-- var8646911284551352332&#45;&#45;factor11 -->
<g id="edge22" class="edge">
<title>var8646911284551352332&#45;&#45;factor11</title>
<path fill="none" stroke="black" d="M810.54,-37.8C808.99,-37.8 807.66,-37.8 806.65,-37.8"/>
</g>
<!-- factor12 -->
<g id="node27" class="node">
<title>factor12</title>
<ellipse fill="black" stroke="black" cx="876.6" cy="-37.8" rx="1.8" ry="1.8"/>
</g>
<!-- var8646911284551352332&#45;&#45;factor12 -->
<g id="edge25" class="edge">
<title>var8646911284551352332&#45;&#45;factor12</title>
<path fill="none" stroke="black" d="M870.66,-37.8C872.21,-37.8 873.54,-37.8 874.55,-37.8"/>
</g>
<!-- factor25 -->
<g id="node40" class="node">
<title>factor25</title>
<ellipse fill="black" stroke="black" cx="840.6" cy="-1.8" rx="1.8" ry="1.8"/>
</g>
<!-- var8646911284551352332&#45;&#45;factor25 -->
<g id="edge39" class="edge">
<title>var8646911284551352332&#45;&#45;factor25</title>
<path fill="none" stroke="black" d="M840.6,-19.38C840.6,-13.29 840.6,-7.26 840.6,-4.09"/>
</g>
<!-- var8646911284551352333 -->
<g id="node13" class="node">
<title>var8646911284551352333</title>
<ellipse fill="none" stroke="black" cx="912.6" cy="-37.8" rx="29.64" ry="18"/>
<text text-anchor="middle" x="912.6" y="-33.13" font-family="Times,serif" font-size="14.00">x13</text>
</g>
<!-- var8646911284551352333&#45;&#45;factor12 -->
<g id="edge24" class="edge">
<title>var8646911284551352333&#45;&#45;factor12</title>
<path fill="none" stroke="black" d="M882.54,-37.8C880.99,-37.8 879.66,-37.8 878.65,-37.8"/>
</g>
<!-- factor13 -->
<g id="node28" class="node">
<title>factor13</title>
<ellipse fill="black" stroke="black" cx="948.6" cy="-37.8" rx="1.8" ry="1.8"/>
</g>
<!-- var8646911284551352333&#45;&#45;factor13 -->
<g id="edge27" class="edge">
<title>var8646911284551352333&#45;&#45;factor13</title>
<path fill="none" stroke="black" d="M942.66,-37.8C944.21,-37.8 945.54,-37.8 946.55,-37.8"/>
</g>
<!-- factor26 -->
<g id="node41" class="node">
<title>factor26</title>
<ellipse fill="black" stroke="black" cx="912.6" cy="-1.8" rx="1.8" ry="1.8"/>
</g>
<!-- var8646911284551352333&#45;&#45;factor26 -->
<g id="edge40" class="edge">
<title>var8646911284551352333&#45;&#45;factor26</title>
<path fill="none" stroke="black" d="M912.6,-19.38C912.6,-13.29 912.6,-7.26 912.6,-4.09"/>
</g>
<!-- var8646911284551352334 -->
<g id="node14" class="node">
<title>var8646911284551352334</title>
<ellipse fill="none" stroke="black" cx="984.6" cy="-37.8" rx="29.64" ry="18"/>
<text text-anchor="middle" x="984.6" y="-33.13" font-family="Times,serif" font-size="14.00">x14</text>
</g>
<!-- var8646911284551352334&#45;&#45;factor13 -->
<g id="edge26" class="edge">
<title>var8646911284551352334&#45;&#45;factor13</title>
<path fill="none" stroke="black" d="M954.54,-37.8C952.99,-37.8 951.66,-37.8 950.65,-37.8"/>
</g>
<!-- factor27 -->
<g id="node42" class="node">
<title>factor27</title>
<ellipse fill="black" stroke="black" cx="984.6" cy="-1.8" rx="1.8" ry="1.8"/>
</g>
<!-- var8646911284551352334&#45;&#45;factor27 -->
<g id="edge41" class="edge">
<title>var8646911284551352334&#45;&#45;factor27</title>
<path fill="none" stroke="black" d="M984.6,-19.38C984.6,-13.29 984.6,-7.26 984.6,-4.09"/>
</g>
</g>
</svg>