<?xml version="1.0" encoding="UTF-8" standalone="no"?>
<!DOCTYPE svg PUBLIC "-//W3C//DTD SVG 1.1//EN"
 "http://www.w3.org/Graphics/SVG/1.1/DTD/svg11.dtd">
<!-- Generated by graphviz version 8.1.0 (20230707.2238)
 -->
<!-- Title: G Pages: 1 -->
<svg width="350pt" height="105pt"
 viewBox="0.00 0.00 350.00 105.20" xmlns="http://www.w3.org/2000/svg" xmlns:xlink="http://www.w3.org/1999/xlink">
<g id="graph0" class="graph" transform="scale(1 1) rotate(0) translate(4 101.2)">
<title>G</title>
<polygon fill="white" stroke="none" points="-4,4 -4,-101.2 346,-101.2 346,4 -4,4"/>
<!-- 0x562777a96320 -->
<g id="node1" class="node">
<title>0x562777a96320</title>
<ellipse fill="none" stroke="black" cx="171" cy="-79.2" rx="18" ry="18"/>
<text text-anchor="middle" x="171" y="-74.52" font-family="Times,serif" font-size="14.00">2</text>
</g>
<!-- 0x56277771f040 -->
<g id="node2" class="node">
<title>0x56277771f040</title>
<polygon fill="none" stroke="black" points="54,-25.2 0,-25.2 0,0 54,0 54,-25.2"/>
<text text-anchor="middle" x="27" y="-7.93" font-family="Times,serif" font-size="14.00">0.99</text>
</g>
<!-- 0x562777a96320&#45;&gt;0x56277771f040 -->
<g id="edge1" class="edge">
<title>0x562777a96320&#45;&gt;0x56277771f040</title>
<path fill="none" stroke="black" d="M154.76,-70.92C132.85,-61.09 93.19,-43.29 63.85,-30.13"/>
<polygon fill="black" stroke="black" points="65.5,-26.59 54.95,-25.69 62.64,-32.98 65.5,-26.59"/>
</g>
<!-- 0x5627780cc4c0 -->
<g id="node3" class="node">
<title>0x5627780cc4c0</title>
<polygon fill="none" stroke="black" points="126,-25.2 72,-25.2 72,0 126,0 126,-25.2"/>
<text text-anchor="middle" x="99" y="-7.93" font-family="Times,serif" font-size="14.00">0.99</text>
</g>
<!-- 0x562777a96320&#45;&gt;0x5627780cc4c0 -->
<g id="edge2" class="edge">
<title>0x562777a96320&#45;&gt;0x5627780cc4c0</title>
<path fill="none" stroke="black" d="M157.79,-66.35C147.24,-56.88 132.24,-43.43 120.04,-32.47"/>
<polygon fill="black" stroke="black" points="122.9,-30.45 113.12,-26.37 118.23,-35.66 122.9,-30.45"/>
</g>
<!-- 0x562777ff3650 -->
<g id="node4" class="node">
<title>0x562777ff3650</title>
<polygon fill="none" stroke="black" points="198,-25.2 144,-25.2 144,0 198,0 198,-25.2"/>
<text text-anchor="middle" x="171" y="-7.93" font-family="Times,serif" font-size="14.00"> 0.1</text>
</g>
<!-- 0x562777a96320&#45;&gt;0x562777ff3650 -->
<g id="edge3" class="edge">
<title>0x562777a96320&#45;&gt;0x562777ff3650</title>
<path fill="none" stroke="black" d="M171,-60.89C171,-53.36 171,-44.42 171,-36.36"/>
<polygon fill="black" stroke="black" points="174.5,-36.44 171,-26.44 167.5,-36.44 174.5,-36.44"/>
</g>
<!-- 0x5627780952b0 -->
<g id="node5" class="node">
<title>0x5627780952b0</title>
<polygon fill="none" stroke="black" points="270,-25.2 216,-25.2 216,0 270,0 270,-25.2"/>
<text text-anchor="middle" x="243" y="-7.93" font-family="Times,serif" font-size="14.00">0.15</text>
</g>
<!-- 0x562777a96320&#45;&gt;0x5627780952b0 -->
<g id="edge4" class="edge">
<title>0x562777a96320&#45;&gt;0x5627780952b0</title>
<path fill="none" stroke="black" d="M184.21,-66.35C194.76,-56.88 209.76,-43.43 221.96,-32.47"/>
<polygon fill="black" stroke="black" points="223.77,-35.66 228.88,-26.37 219.1,-30.45 223.77,-35.66"/>
</g>
<!-- 0x562777bc1c90 -->
<g id="node6" class="node">
<title>0x562777bc1c90</title>
<polygon fill="none" stroke="black" points="342,-25.2 288,-25.2 288,0 342,0 342,-25.2"/>
<text text-anchor="middle" x="315" y="-7.93" font-family="Times,serif" font-size="14.00">0.95</text>
</g>
<!-- 0x562777a96320&#45;&gt;0x562777bc1c90 -->
<g id="edge5" class="edge">
<title>0x562777a96320&#45;&gt;0x562777bc1c90</title>
<path fill="none" stroke="black" d="M187.24,-70.92C209.15,-61.09 248.81,-43.29 278.15,-30.13"/>
<polygon fill="black" stroke="black" points="279.36,-32.98 287.05,-25.69 276.5,-26.59 279.36,-32.98"/>
</g>
</g>
</svg>