<?xml version="1.0" encoding="UTF-8" standalone="no"?>
<!DOCTYPE svg PUBLIC "-//W3C//DTD SVG 1.1//EN"
 "http://www.w3.org/Graphics/SVG/1.1/DTD/svg11.dtd">
<!-- Generated by graphviz version 9.0.0 (20231125.0833)
 -->
<!-- Pages: 1 -->
<svg width="350pt" height="188pt"
 viewBox="0.00 0.00 350.00 188.00" xmlns="http://www.w3.org/2000/svg" xmlns:xlink="http://www.w3.org/1999/xlink">
<g id="graph0" class="graph" transform="scale(1 1) rotate(0) translate(4 184)">
<polygon fill="white" stroke="none" points="-4,4 -4,-184 346,-184 346,4 -4,4"/>
<!-- var8430738502437568513 -->
<g id="node1" class="node">
<title>var8430738502437568513</title>
<polygon fill="none" stroke="black" points="54,-180 0,-180 0,-144 54,-144 54,-180"/>
<text text-anchor="middle" x="27" y="-157.32" font-family="Times,serif" font-size="14.00">u1</text>
</g>
<!-- var8646911284551352322 -->
<g id="node6" class="node">
<title>var8646911284551352322</title>
<ellipse fill="none" stroke="black" cx="99" cy="-90" rx="27" ry="18"/>
<text text-anchor="middle" x="99" y="-85.32" font-family="Times,serif" font-size="14.00">x2</text>
</g>
<!-- var8430738502437568513&#45;&gt;var8646911284551352322 -->
<g id="edge2" class="edge">
<title>var8430738502437568513&#45;&gt;var8646911284551352322</title>
<path fill="none" stroke="black" d="M45.17,-143.83C54.54,-134.46 66.07,-122.93 76.05,-112.95"/>
<polygon fill="black" stroke="black" points="78.33,-115.62 82.92,-106.08 73.38,-110.67 78.33,-115.62"/>
</g>
<!-- var8430738502437568514 -->
<g id="node2" class="node">
<title>var8430738502437568514</title>
<polygon fill="none" stroke="black" points="126,-180 72,-180 72,-144 126,-144 126,-180"/>
<text text-anchor="middle" x="99" y="-157.32" font-family="Times,serif" font-size="14.00">u2</text>
</g>
<!-- var8646911284551352323 -->
<g id="node7" class="node">
<title>var8646911284551352323</title>
<ellipse fill="none" stroke="black" cx="171" cy="-90" rx="27" ry="18"/>
<text text-anchor="middle" x="171" y="-85.32" font-family="Times,serif" font-size="14.00">x3</text>
</g>
<!-- var8430738502437568514&#45;&gt;var8646911284551352323 -->
<g id="edge4" class="edge">
<title>var8430738502437568514&#45;&gt;var8646911284551352323</title>
<path fill="none" stroke="black" d="M117.17,-143.83C126.54,-134.46 138.07,-122.93 148.05,-112.95"/>
<polygon fill="black" stroke="black" points="150.33,-115.62 154.92,-106.08 145.38,-110.67 150.33,-115.62"/>
</g>
<!-- var8430738502437568515 -->
<g id="node3" class="node">
<title>var8430738502437568515</title>
<polygon fill="none" stroke="black" points="198,-180 144,-180 144,-144 198,-144 198,-180"/>
<text text-anchor="middle" x="171" y="-157.32" font-family="Times,serif" font-size="14.00">u3</text>
</g>
<!-- var8646911284551352324 -->
<g id="node8" class="node">
<title>var8646911284551352324</title>
<ellipse fill="none" stroke="black" cx="243" cy="-90" rx="27" ry="18"/>
<text text-anchor="middle" x="243" y="-85.32" font-family="Times,serif" font-size="14.00">x4</text>
</g>
<!-- var8430738502437568515&#45;&gt;var8646911284551352324 -->
<g id="edge6" class="edge">
<title>var8430738502437568515&#45;&gt;var8646911284551352324</title>
<path fill="none" stroke="black" d="M189.17,-143.83C198.54,-134.46 210.07,-122.93 220.05,-112.95"/>
<polygon fill="black" stroke="black" points="222.33,-115.62 226.92,-106.08 217.38,-110.67 222.33,-115.62"/>
</g>
<!-- var8430738502437568516 -->
<g id="node4" class="node">
<title>var8430738502437568516</title>
<polygon fill="none" stroke="black" points="270,-180 216,-180 216,-144 270,-144 270,-180"/>
<text text-anchor="middle" x="243" y="-157.32" font-family="Times,serif" font-size="14.00">u4</text>
</g>
<!-- var8646911284551352325 -->
<g id="node9" class="node">
<title>var8646911284551352325</title>
<ellipse fill="none" stroke="black" cx="315" cy="-90" rx="27" ry="18"/>
<text text-anchor="middle" x="315" y="-85.32" font-family="Times,serif" font-size="14.00">x5</text>
</g>
<!-- var8430738502437568516&#45;&gt;var8646911284551352325 -->
<g id="edge8" class="edge">
<title>var8430738502437568516&#45;&gt;var8646911284551352325</title>
<path fill="none" stroke="black" d="M261.17,-143.83C270.54,-134.46 282.07,-122.93 292.05,-112.95"/>
<polygon fill="black" stroke="black" points="294.33,-115.62 298.92,-106.08 289.38,-110.67 294.33,-115.62"/>
</g>
<!-- var8646911284551352321 -->
<g id="node5" class="node">
<title>var8646911284551352321</title>
<ellipse fill="none" stroke="black" cx="27" cy="-90" rx="27" ry="18"/>
<text text-anchor="middle" x="27" y="-85.32" font-family="Times,serif" font-size="14.00">x1</text>
</g>
<!-- var8646911284551352321&#45;&gt;var8646911284551352322 -->
<g id="edge1" class="edge">
<title>var8646911284551352321&#45;&gt;var8646911284551352322</title>
<path fill="none" stroke="black" d="M54.22,-90C56.28,-90 58.38,-90 60.5,-90"/>
<polygon fill="black" stroke="black" points="60.23,-93.5 70.23,-90 60.23,-86.5 60.23,-93.5"/>
</g>
<!-- var8791026472627208193 -->
<g id="node10" class="node">
<title>var8791026472627208193</title>
<ellipse fill="none" stroke="black" cx="27" cy="-18" rx="27" ry="18"/>
<text text-anchor="middle" x="27" y="-13.32" font-family="Times,serif" font-size="14.00">z1</text>
</g>
<!-- var8646911284551352321&#45;&gt;var8791026472627208193 -->
<g id="edge13" class="edge">
<title>var8646911284551352321&#45;&gt;var8791026472627208193</title>
<path fill="none" stroke="black" d="M27,-71.83C27,-64.55 27,-55.98 27,-47.83"/>
<polygon fill="black" stroke="black" points="30.5,-47.93 27,-37.93 23.5,-47.93 30.5,-47.93"/>
</g>
<!-- var8646911284551352322&#45;&gt;var8646911284551352323 -->
<g id="edge3" class="edge">
<title>var8646911284551352322&#45;&gt;var8646911284551352323</title>
<path fill="none" stroke="black" d="M126.22,-90C128.28,-90 130.38,-90 132.5,-90"/>
<polygon fill="black" stroke="black" points="132.23,-93.5 142.23,-90 132.23,-86.5 132.23,-93.5"/>
</g>
<!-- var8791026472627208194 -->
<g id="node11" class="node">
<title>var8791026472627208194</title>
<ellipse fill="none" stroke="black" cx="99" cy="-18" rx="27" ry="18"/>
<text text-anchor="middle" x="99" y="-13.32" font-family="Times,serif" font-size="14.00">z2</text>
</g>
<!-- var8646911284551352322&#45;&gt;var8791026472627208194 -->
<g id="edge12" class="edge">
<title>var8646911284551352322&#45;&gt;var8791026472627208194</title>
<path fill="none" stroke="black" d="M99,-71.83C99,-64.55 99,-55.98 99,-47.83"/>
<polygon fill="black" stroke="black" points="102.5,-47.93 99,-37.93 95.5,-47.93 102.5,-47.93"/>
</g>
<!-- var8646911284551352323&#45;&gt;var8646911284551352324 -->
<g id="edge5" class="edge">
<title>var8646911284551352323&#45;&gt;var8646911284551352324</title>
<path fill="none" stroke="black" d="M198.22,-90C200.28,-90 202.38,-90 204.5,-90"/>
<polygon fill="black" stroke="black" points="204.23,-93.5 214.23,-90 204.23,-86.5 204.23,-93.5"/>
</g>
<!-- var8791026472627208195 -->
<g id="node12" class="node">
<title>var8791026472627208195</title>
<ellipse fill="none" stroke="black" cx="171" cy="-18" rx="27" ry="18"/>
<text text-anchor="middle" x="171" y="-13.32" font-family="Times,serif" font-size="14.00">z3</text>
</g>
<!-- var8646911284551352323&#45;&gt;var8791026472627208195 -->
<g id="edge11" class="edge">
<title>var8646911284551352323&#45;&gt;var8791026472627208195</title>
<path fill="none" stroke="black" d="M171,-71.83C171,-64.55 171,-55.98 171,-47.83"/>
<polygon fill="black" stroke="black" points="174.5,-47.93 171,-37.93 167.5,-47.93 174.5,-47.93"/>
</g>
<!-- var8646911284551352324&#45;&gt;var8646911284551352325 -->
<g id="edge7" class="edge">
<title>var8646911284551352324&#45;&gt;var8646911284551352325</title>
<path fill="none" stroke="black" d="M270.22,-90C272.28,-90 274.38,-90 276.5,-90"/>
<polygon fill="black" stroke="black" points="276.23,-93.5 286.23,-90 276.23,-86.5 276.23,-93.5"/>
</g>
<!-- var8791026472627208196 -->
<g id="node13" class="node">
<title>var8791026472627208196</title>
<ellipse fill="none" stroke="black" cx="243" cy="-18" rx="27" ry="18"/>
<text text-anchor="middle" x="243" y="-13.32" font-family="Times,serif" font-size="14.00">z4</text>
</g>
<!-- var8646911284551352324&#45;&gt;var8791026472627208196 -->
<g id="edge10" class="edge">
<title>var8646911284551352324&#45;&gt;var8791026472627208196</title>
<path fill="none" stroke="black" d="M243,-71.83C243,-64.55 243,-55.98 243,-47.83"/>
<polygon fill="black" stroke="black" points="246.5,-47.93 243,-37.93 239.5,-47.93 246.5,-47.93"/>
</g>
<!-- var8791026472627208197 -->
<g id="node14" class="node">
<title>var8791026472627208197</title>
<ellipse fill="none" stroke="black" cx="315" cy="-18" rx="27" ry="18"/>
<text text-anchor="middle" x="315" y="-13.32" font-family="Times,serif" font-size="14.00">z5</text>
</g>
<!-- var8646911284551352325&#45;&gt;var8791026472627208197 -->
<g id="edge9" class="edge">
<title>var8646911284551352325&#45;&gt;var8791026472627208197</title>
<path fill="none" stroke="black" d="M315,-71.83C315,-64.55 315,-55.98 315,-47.83"/>
<polygon fill="black" stroke="black" points="318.5,-47.93 315,-37.93 311.5,-47.93 318.5,-47.93"/>
</g>
</g>
</svg>