<?xml version="1.0" encoding="UTF-8" standalone="no"?>
<!DOCTYPE svg PUBLIC "-//W3C//DTD SVG 1.1//EN"
 "http://www.w3.org/Graphics/SVG/1.1/DTD/svg11.dtd">
<!-- Generated by graphviz version 12.2.1 (20250203.1708)
 -->
<!-- Pages: 1 -->
<svg width="128pt" height="260pt"
 viewBox="0.00 0.00 128.00 260.00" xmlns="http://www.w3.org/2000/svg" xmlns:xlink="http://www.w3.org/1999/xlink">
<g id="graph0" class="graph" transform="scale(1 1) rotate(0) translate(4 256)">
<polygon fill="white" stroke="none" points="-4,4 -4,-256 124,-256 124,4 -4,4"/>
<!-- var5 -->
<g id="node1" class="node">
<title>var5</title>
<ellipse fill="none" stroke="black" cx="27" cy="-18" rx="27" ry="18"/>
<text text-anchor="middle" x="27" y="-13.32" font-family="Times,serif" font-size="14.00">W</text>
</g>
<!-- var6 -->
<g id="node2" class="node">
<title>var6</title>
<ellipse fill="none" stroke="black" cx="55" cy="-90" rx="27" ry="18"/>
<text text-anchor="middle" x="55" y="-85.33" font-family="Times,serif" font-size="14.00">X</text>
</g>
<!-- var6&#45;&gt;var5 -->
<g id="edge4" class="edge">
<title>var6&#45;&gt;var5</title>
<path fill="none" stroke="black" d="M48.36,-72.41C45.23,-64.57 41.4,-54.99 37.85,-46.13"/>
<polygon fill="black" stroke="black" points="41.11,-44.86 34.15,-36.88 34.61,-47.46 41.11,-44.86"/>
</g>
<!-- var7 -->
<g id="node3" class="node">
<title>var7</title>
<ellipse fill="none" stroke="black" cx="93" cy="-162" rx="27" ry="18"/>
<text text-anchor="middle" x="93" y="-157.32" font-family="Times,serif" font-size="14.00">Y</text>
</g>
<!-- var7&#45;&gt;var6 -->
<g id="edge2" class="edge">
<title>var7&#45;&gt;var6</title>
<path fill="none" stroke="black" d="M84.19,-144.76C79.73,-136.55 74.2,-126.37 69.16,-117.09"/>
<polygon fill="black" stroke="black" points="72.33,-115.6 64.49,-108.48 66.18,-118.94 72.33,-115.6"/>
</g>
<!-- var8 -->
<g id="node4" class="node">
<title>var8</title>
<ellipse fill="none" stroke="black" cx="38" cy="-234" rx="27" ry="18"/>
<text text-anchor="middle" x="38" y="-229.32" font-family="Times,serif" font-size="14.00">Z</text>
</g>
<!-- var8&#45;&gt;var5 -->
<g id="edge5" class="edge">
<title>var8&#45;&gt;var5</title>
<path fill="none" stroke="black" d="M33.85,-216.12C27.14,-186.86 15.04,-124.76 19,-72 19.6,-63.99 20.71,-55.35 21.91,-47.43"/>
<polygon fill="black" stroke="black" points="25.35,-48.04 23.51,-37.61 18.45,-46.91 25.35,-48.04"/>
</g>
<!-- var8&#45;&gt;var6 -->
<g id="edge3" class="edge">
<title>var8&#45;&gt;var6</title>
<path fill="none" stroke="black" d="M40.08,-215.59C42.95,-191.61 48.16,-148.14 51.6,-119.42"/>
<polygon fill="black" stroke="black" points="55.06,-119.96 52.77,-109.61 48.11,-119.13 55.06,-119.96"/>
</g>
<!-- var8&#45;&gt;var7 -->
<g id="edge1" class="edge">
<title>var8&#45;&gt;var7</title>
<path fill="none" stroke="black" d="M50.21,-217.46C57.11,-208.67 65.91,-197.48 73.73,-187.53"/>
<polygon fill="black" stroke="black" points="76.47,-189.71 79.89,-179.68 70.96,-185.38 76.47,-189.71"/>
</g>
</g>
</svg>