<?xml version="1.0" encoding="UTF-8" standalone="no"?>
<!DOCTYPE svg PUBLIC "-//W3C//DTD SVG 1.1//EN"
 "http://www.w3.org/Graphics/SVG/1.1/DTD/svg11.dtd">
<!-- Generated by graphviz version 13.1.2 (20250809.0930)
 -->
<!-- Pages: 1 -->
<svg width="360pt" height="145pt"
 viewBox="0.00 0.00 360.00 145.00" xmlns="http://www.w3.org/2000/svg" xmlns:xlink="http://www.w3.org/1999/xlink">
<g id="graph0" class="graph" transform="scale(0.622362 0.622362) rotate(0) translate(4 228.75)">
<polygon fill="white" stroke="none" points="-4,4 -4,-228.75 574.44,-228.75 574.44,4 -4,4"/>
<!-- var7061644215716937728 -->
<g id="node1" class="node">
<title>var7061644215716937728</title>
<ellipse fill="none" stroke="black" cx="240.68" cy="-79.76" rx="27" ry="18"/>
<text xml:space="preserve" text-anchor="middle" x="240.68" y="-75.08" font-family="Times,serif" font-size="14.00">b0</text>
</g>
<!-- factor2 -->
<g id="node18" class="node">
<title>factor2</title>
<ellipse fill="black" stroke="black" cx="219.69" cy="-1.8" rx="1.8" ry="1.8"/>
</g>
<!-- var7061644215716937728&#45;&#45;factor2 -->
<g id="edge3" class="edge">
<title>var7061644215716937728&#45;&#45;factor2</title>
<path fill="none" stroke="black" d="M235.81,-61.68C230.48,-41.89 222.4,-11.89 220.24,-3.85"/>
</g>
<!-- factor3 -->
<g id="node19" class="node">
<title>factor3</title>
<ellipse fill="black" stroke="black" cx="132.96" cy="-99.08" rx="1.8" ry="1.8"/>
</g>
<!-- var7061644215716937728&#45;&#45;factor3 -->
<g id="edge8" class="edge">
<title>var7061644215716937728&#45;&#45;factor3</title>
<path fill="none" stroke="black" d="M214.33,-84.49C186.42,-89.49 145.06,-96.91 135.15,-98.69"/>
</g>
<!-- factor4 -->
<g id="node20" class="node">
<title>factor4</title>
<ellipse fill="black" stroke="black" cx="180.96" cy="-160.41" rx="1.8" ry="1.8"/>
</g>
<!-- var7061644215716937728&#45;&#45;factor4 -->
<g id="edge13" class="edge">
<title>var7061644215716937728&#45;&#45;factor4</title>
<path fill="none" stroke="black" d="M228.59,-96.08C213.33,-116.7 188.31,-150.49 182.29,-158.61"/>
</g>
<!-- factor5 -->
<g id="node21" class="node">
<title>factor5</title>
<ellipse fill="black" stroke="black" cx="231.24" cy="-156.49" rx="1.8" ry="1.8"/>
</g>
<!-- var7061644215716937728&#45;&#45;factor5 -->
<g id="edge18" class="edge">
<title>var7061644215716937728&#45;&#45;factor5</title>
<path fill="none" stroke="black" d="M238.44,-97.94C236.04,-117.44 232.45,-146.67 231.48,-154.5"/>
</g>
<!-- factor6 -->
<g id="node22" class="node">
<title>factor6</title>
<ellipse fill="black" stroke="black" cx="288.07" cy="-110.42" rx="1.8" ry="1.8"/>
</g>
<!-- var7061644215716937728&#45;&#45;factor6 -->
<g id="edge23" class="edge">
<title>var7061644215716937728&#45;&#45;factor6</title>
<path fill="none" stroke="black" d="M260.23,-92.41C270.83,-99.27 282.58,-106.87 286.62,-109.48"/>
</g>
<!-- factor7 -->
<g id="node23" class="node">
<title>factor7</title>
<ellipse fill="black" stroke="black" cx="325.18" cy="-86.26" rx="1.8" ry="1.8"/>
</g>
<!-- var7061644215716937728&#45;&#45;factor7 -->
<g id="edge28" class="edge">
<title>var7061644215716937728&#45;&#45;factor7</title>
<path fill="none" stroke="black" d="M267.88,-81.85C288.72,-83.45 315.19,-85.49 322.95,-86.09"/>
</g>
<!-- factor8 -->
<g id="node24" class="node">
<title>factor8</title>
<ellipse fill="black" stroke="black" cx="358.17" cy="-90.19" rx="1.8" ry="1.8"/>
</g>
<!-- var7061644215716937728&#45;&#45;factor8 -->
<g id="edge33" class="edge">
<title>var7061644215716937728&#45;&#45;factor8</title>
<path fill="none" stroke="black" d="M267.93,-82.18C298.84,-84.93 346.27,-89.14 356.28,-90.03"/>
</g>
<!-- var8502796096475496448 -->
<g id="node2" class="node">
<title>var8502796096475496448</title>
<ellipse fill="none" stroke="black" cx="111.44" cy="-206.75" rx="27" ry="18"/>
<text xml:space="preserve" text-anchor="middle" x="111.44" y="-202.08" font-family="Times,serif" font-size="14.00">v0</text>
</g>
<!-- factor1 -->
<g id="node17" class="node">
<title>factor1</title>
<ellipse fill="black" stroke="black" cx="1.8" cy="-195.51" rx="1.8" ry="1.8"/>
</g>
<!-- var8502796096475496448&#45;&#45;factor1 -->
<g id="edge2" class="edge">
<title>var8502796096475496448&#45;&#45;factor1</title>
<path fill="none" stroke="black" d="M84.34,-203.97C55.93,-201.06 14.04,-196.77 4.01,-195.74"/>
</g>
<!-- var8502796096475496448&#45;&#45;factor3 -->
<g id="edge5" class="edge">
<title>var8502796096475496448&#45;&#45;factor3</title>
<path fill="none" stroke="black" d="M115.09,-188.49C120.56,-161.13 130.46,-111.59 132.56,-101.08"/>
</g>
<!-- var8502796096475496449 -->
<g id="node3" class="node">
<title>var8502796096475496449</title>
<ellipse fill="none" stroke="black" cx="183.44" cy="-206.75" rx="27" ry="18"/>
<text xml:space="preserve" text-anchor="middle" x="183.44" y="-202.08" font-family="Times,serif" font-size="14.00">v1</text>
</g>
<!-- var8502796096475496449&#45;&#45;factor3 -->
<g id="edge7" class="edge">
<title>var8502796096475496449&#45;&#45;factor3</title>
<path fill="none" stroke="black" d="M175.33,-189.45C162.62,-162.35 138.94,-111.84 133.92,-101.12"/>
</g>
<!-- var8502796096475496449&#45;&#45;factor4 -->
<g id="edge10" class="edge">
<title>var8502796096475496449&#45;&#45;factor4</title>
<path fill="none" stroke="black" d="M182.46,-188.44C181.93,-178.52 181.33,-167.36 181.08,-162.67"/>
</g>
<!-- var8502796096475496450 -->
<g id="node4" class="node">
<title>var8502796096475496450</title>
<ellipse fill="none" stroke="black" cx="255.44" cy="-206.75" rx="27" ry="18"/>
<text xml:space="preserve" text-anchor="middle" x="255.44" y="-202.08" font-family="Times,serif" font-size="14.00">v2</text>
</g>
<!-- var8502796096475496450&#45;&#45;factor4 -->
<g id="edge12" class="edge">
<title>var8502796096475496450&#45;&#45;factor4</title>
<path fill="none" stroke="black" d="M235.48,-194.33C216.52,-182.54 189.89,-165.96 182.77,-161.53"/>
</g>
<!-- var8502796096475496450&#45;&#45;factor5 -->
<g id="edge15" class="edge">
<title>var8502796096475496450&#45;&#45;factor5</title>
<path fill="none" stroke="black" d="M246.98,-189.17C241.41,-177.62 234.72,-163.73 232.23,-158.56"/>
</g>
<!-- var8502796096475496451 -->
<g id="node5" class="node">
<title>var8502796096475496451</title>
<ellipse fill="none" stroke="black" cx="327.44" cy="-206.75" rx="27" ry="18"/>
<text xml:space="preserve" text-anchor="middle" x="327.44" y="-202.08" font-family="Times,serif" font-size="14.00">v3</text>
</g>
<!-- var8502796096475496451&#45;&#45;factor5 -->
<g id="edge17" class="edge">
<title>var8502796096475496451&#45;&#45;factor5</title>
<path fill="none" stroke="black" d="M306.09,-195.6C280.85,-182.41 241.2,-161.69 232.82,-157.32"/>
</g>
<!-- var8502796096475496451&#45;&#45;factor6 -->
<g id="edge20" class="edge">
<title>var8502796096475496451&#45;&#45;factor6</title>
<path fill="none" stroke="black" d="M320.22,-189.08C310.1,-164.31 292.5,-121.27 288.77,-112.15"/>
</g>
<!-- var8502796096475496452 -->
<g id="node6" class="node">
<title>var8502796096475496452</title>
<ellipse fill="none" stroke="black" cx="399.44" cy="-206.75" rx="27" ry="18"/>
<text xml:space="preserve" text-anchor="middle" x="399.44" y="-202.08" font-family="Times,serif" font-size="14.00">v4</text>
</g>
<!-- var8502796096475496452&#45;&#45;factor6 -->
<g id="edge22" class="edge">
<title>var8502796096475496452&#45;&#45;factor6</title>
<path fill="none" stroke="black" d="M383.01,-192.54C354.93,-168.25 299.77,-120.54 289.67,-111.81"/>
</g>
<!-- var8502796096475496452&#45;&#45;factor7 -->
<g id="edge25" class="edge">
<title>var8502796096475496452&#45;&#45;factor7</title>
<path fill="none" stroke="black" d="M388.96,-189.74C370.41,-159.64 333.1,-99.11 326.27,-88.02"/>
</g>
<!-- var8502796096475496453 -->
<g id="node7" class="node">
<title>var8502796096475496453</title>
<ellipse fill="none" stroke="black" cx="471.44" cy="-206.75" rx="27" ry="18"/>
<text xml:space="preserve" text-anchor="middle" x="471.44" y="-202.08" font-family="Times,serif" font-size="14.00">v5</text>
</g>
<!-- var8502796096475496453&#45;&#45;factor7 -->
<g id="edge27" class="edge">
<title>var8502796096475496453&#45;&#45;factor7</title>
<path fill="none" stroke="black" d="M454.09,-192.46C418.37,-163.03 338.95,-97.61 326.76,-87.56"/>
</g>
<!-- var8502796096475496453&#45;&#45;factor8 -->
<g id="edge30" class="edge">
<title>var8502796096475496453&#45;&#45;factor8</title>
<path fill="none" stroke="black" d="M456.63,-191.51C428.57,-162.63 369.54,-101.9 359.6,-91.67"/>
</g>
<!-- var8502796096475496454 -->
<g id="node8" class="node">
<title>var8502796096475496454</title>
<ellipse fill="none" stroke="black" cx="543.44" cy="-206.75" rx="27" ry="18"/>
<text xml:space="preserve" text-anchor="middle" x="543.44" y="-202.08" font-family="Times,serif" font-size="14.00">v6</text>
</g>
<!-- var8502796096475496454&#45;&#45;factor8 -->
<g id="edge32" class="edge">
<title>var8502796096475496454&#45;&#45;factor8</title>
<path fill="none" stroke="black" d="M523.61,-194.28C479.18,-166.32 374.37,-100.38 359.85,-91.25"/>
</g>
<!-- var8646911284551352320 -->
<g id="node9" class="node">
<title>var8646911284551352320</title>
<ellipse fill="none" stroke="black" cx="111.44" cy="-134.75" rx="27" ry="18"/>
<text xml:space="preserve" text-anchor="middle" x="111.44" y="-130.08" font-family="Times,serif" font-size="14.00">x0</text>
</g>
<!-- factor0 -->
<g id="node16" class="node">
<title>factor0</title>
<ellipse fill="black" stroke="black" cx="5.77" cy="-63.09" rx="1.8" ry="1.8"/>
</g>
<!-- var8646911284551352320&#45;&#45;factor0 -->
<g id="edge1" class="edge">
<title>var8646911284551352320&#45;&#45;factor0</title>
<path fill="none" stroke="black" d="M92.55,-121.94C65,-103.26 16.11,-70.1 7.19,-64.05"/>
</g>
<!-- var8646911284551352320&#45;&#45;factor3 -->
<g id="edge4" class="edge">
<title>var8646911284551352320&#45;&#45;factor3</title>
<path fill="none" stroke="black" d="M121.7,-117.75C125.85,-110.86 130.11,-103.81 131.98,-100.71"/>
</g>
<!-- var8646911284551352321 -->
<g id="node10" class="node">
<title>var8646911284551352321</title>
<ellipse fill="none" stroke="black" cx="183.44" cy="-134.75" rx="27" ry="18"/>
<text xml:space="preserve" text-anchor="middle" x="183.44" y="-130.08" font-family="Times,serif" font-size="14.00">x1</text>
</g>
<!-- var8646911284551352321&#45;&#45;factor3 -->
<g id="edge6" class="edge">
<title>var8646911284551352321&#45;&#45;factor3</title>
<path fill="none" stroke="black" d="M164.64,-121.47C152.98,-113.23 139.36,-103.6 134.66,-100.28"/>
</g>
<!-- var8646911284551352321&#45;&#45;factor4 -->
<g id="edge9" class="edge">
<title>var8646911284551352321&#45;&#45;factor4</title>
<path fill="none" stroke="black" d="M181.67,-153.13C181.47,-155.18 181.29,-157 181.17,-158.31"/>
</g>
<!-- var8646911284551352322 -->
<g id="node11" class="node">
<title>var8646911284551352322</title>
<ellipse fill="none" stroke="black" cx="255.44" cy="-134.75" rx="27" ry="18"/>
<text xml:space="preserve" text-anchor="middle" x="255.44" y="-130.08" font-family="Times,serif" font-size="14.00">x2</text>
</g>
<!-- var8646911284551352322&#45;&#45;factor4 -->
<g id="edge11" class="edge">
<title>var8646911284551352322&#45;&#45;factor4</title>
<path fill="none" stroke="black" d="M231.05,-143.15C212.73,-149.47 189.67,-157.41 182.91,-159.74"/>
</g>
<!-- var8646911284551352322&#45;&#45;factor5 -->
<g id="edge14" class="edge">
<title>var8646911284551352322&#45;&#45;factor5</title>
<path fill="none" stroke="black" d="M239.16,-149.37C236.43,-151.83 234.02,-154 232.59,-155.28"/>
</g>
<!-- var8646911284551352323 -->
<g id="node12" class="node">
<title>var8646911284551352323</title>
<ellipse fill="none" stroke="black" cx="327.44" cy="-134.75" rx="27" ry="18"/>
<text xml:space="preserve" text-anchor="middle" x="327.44" y="-130.08" font-family="Times,serif" font-size="14.00">x3</text>
</g>
<!-- var8646911284551352323&#45;&#45;factor5 -->
<g id="edge16" class="edge">
<title>var8646911284551352323&#45;&#45;factor5</title>
<path fill="none" stroke="black" d="M301.41,-140.63C276.7,-146.22 242.08,-154.04 233.32,-156.02"/>
</g>
<!-- var8646911284551352323&#45;&#45;factor6 -->
<g id="edge19" class="edge">
<title>var8646911284551352323&#45;&#45;factor6</title>
<path fill="none" stroke="black" d="M307.29,-122.3C300.03,-117.81 292.85,-113.37 289.71,-111.43"/>
</g>
<!-- var8646911284551352324 -->
<g id="node13" class="node">
<title>var8646911284551352324</title>
<ellipse fill="none" stroke="black" cx="399.44" cy="-134.75" rx="27" ry="18"/>
<text xml:space="preserve" text-anchor="middle" x="399.44" y="-130.08" font-family="Times,serif" font-size="14.00">x4</text>
</g>
<!-- var8646911284551352324&#45;&#45;factor6 -->
<g id="edge21" class="edge">
<title>var8646911284551352324&#45;&#45;factor6</title>
<path fill="none" stroke="black" d="M373.33,-129.05C344.01,-122.64 299.29,-112.87 289.85,-110.81"/>
</g>
<!-- var8646911284551352324&#45;&#45;factor7 -->
<g id="edge24" class="edge">
<title>var8646911284551352324&#45;&#45;factor7</title>
<path fill="none" stroke="black" d="M379.93,-122.01C361.02,-109.66 334.18,-92.13 327,-87.45"/>
</g>
<!-- var8646911284551352325 -->
<g id="node14" class="node">
<title>var8646911284551352325</title>
<ellipse fill="none" stroke="black" cx="471.44" cy="-134.75" rx="27" ry="18"/>
<text xml:space="preserve" text-anchor="middle" x="471.44" y="-130.08" font-family="Times,serif" font-size="14.00">x5</text>
</g>
<!-- var8646911284551352325&#45;&#45;factor7 -->
<g id="edge26" class="edge">
<title>var8646911284551352325&#45;&#45;factor7</title>
<path fill="none" stroke="black" d="M446.96,-126.63C409.23,-114.12 339.87,-91.13 327.19,-86.93"/>
</g>
<!-- var8646911284551352325&#45;&#45;factor8 -->
<g id="edge29" class="edge">
<title>var8646911284551352325&#45;&#45;factor8</title>
<path fill="none" stroke="black" d="M447.97,-125.52C418.42,-113.89 370.27,-94.96 360.1,-90.95"/>
</g>
<!-- var8646911284551352326 -->
<g id="node15" class="node">
<title>var8646911284551352326</title>
<ellipse fill="none" stroke="black" cx="543.44" cy="-134.75" rx="27" ry="18"/>
<text xml:space="preserve" text-anchor="middle" x="543.44" y="-130.08" font-family="Times,serif" font-size="14.00">x6</text>
</g>
<!-- var8646911284551352326&#45;&#45;factor8 -->
<g id="edge31" class="edge">
<title>var8646911284551352326&#45;&#45;factor8</title>
<path fill="none" stroke="black" d="M517.68,-128.56C470.75,-117.27 374.79,-94.19 360.08,-90.65"/>
</g>
</g>
</svg>