<?xml version="1.0" encoding="UTF-8" standalone="no"?>
<!DOCTYPE svg PUBLIC "-//W3C//DTD SVG 1.1//EN"
 "http://www.w3.org/Graphics/SVG/1.1/DTD/svg11.dtd">
<!-- Generated by graphviz version 9.0.0 (20231118.0032)
 -->
<!-- Pages: 1 -->
<svg width="206pt" height="188pt"
 viewBox="0.00 0.00 206.00 188.00" xmlns="http://www.w3.org/2000/svg" xmlns:xlink="http://www.w3.org/1999/xlink">
<g id="graph0" class="graph" transform="scale(1 1) rotate(0) translate(4 184)">
<polygon fill="white" stroke="none" points="-4,4 -4,-184 202,-184 202,4 -4,4"/>
<!-- var4683743612465315841 -->
<g id="node1" class="node">
<title>var4683743612465315841</title>
<polygon fill="none" stroke="black" points="54,-180 0,-180 0,-144 54,-144 54,-180"/>
<text text-anchor="middle" x="27" y="-157.32" font-family="Times,serif" font-size="14.00">A1</text>
</g>
<!-- var6341068275337658370 -->
<g id="node4" class="node">
<title>var6341068275337658370</title>
<ellipse fill="none" stroke="black" cx="99" cy="-90" rx="27" ry="18"/>
<text text-anchor="middle" x="99" y="-85.33" font-family="Times,serif" font-size="14.00">X2</text>
</g>
<!-- var4683743612465315841&#45;&gt;var6341068275337658370 -->
<g id="edge2" class="edge">
<title>var4683743612465315841&#45;&gt;var6341068275337658370</title>
<path fill="none" stroke="black" d="M45.17,-143.83C54.54,-134.46 66.07,-122.93 76.05,-112.95"/>
<polygon fill="black" stroke="black" points="78.33,-115.62 82.92,-106.08 73.38,-110.67 78.33,-115.62"/>
</g>
<!-- var4683743612465315842 -->
<g id="node2" class="node">
<title>var4683743612465315842</title>
<polygon fill="none" stroke="black" points="126,-180 72,-180 72,-144 126,-144 126,-180"/>
<text text-anchor="middle" x="99" y="-157.32" font-family="Times,serif" font-size="14.00">A2</text>
</g>
<!-- var6341068275337658371 -->
<g id="node5" class="node">
<title>var6341068275337658371</title>
<ellipse fill="none" stroke="black" cx="171" cy="-90" rx="27" ry="18"/>
<text text-anchor="middle" x="171" y="-85.33" font-family="Times,serif" font-size="14.00">X3</text>
</g>
<!-- var4683743612465315842&#45;&gt;var6341068275337658371 -->
<g id="edge4" class="edge">
<title>var4683743612465315842&#45;&gt;var6341068275337658371</title>
<path fill="none" stroke="black" d="M117.17,-143.83C126.54,-134.46 138.07,-122.93 148.05,-112.95"/>
<polygon fill="black" stroke="black" points="150.33,-115.62 154.92,-106.08 145.38,-110.67 150.33,-115.62"/>
</g>
<!-- var6341068275337658369 -->
<g id="node3" class="node">
<title>var6341068275337658369</title>
<ellipse fill="none" stroke="black" cx="27" cy="-90" rx="27" ry="18"/>
<text text-anchor="middle" x="27" y="-85.33" font-family="Times,serif" font-size="14.00">X1</text>
</g>
<!-- var6341068275337658369&#45;&gt;var6341068275337658370 -->
<g id="edge1" class="edge">
<title>var6341068275337658369&#45;&gt;var6341068275337658370</title>
<path fill="none" stroke="black" d="M54.22,-90C56.28,-90 58.38,-90 60.5,-90"/>
<polygon fill="black" stroke="black" points="60.23,-93.5 70.23,-90 60.23,-86.5 60.23,-93.5"/>
</g>
<!-- var6485183463413514241 -->
<g id="node6" class="node">
<title>var6485183463413514241</title>
<polygon fill="none" stroke="black" points="54,-36 0,-36 0,0 54,0 54,-36"/>
<text text-anchor="middle" x="27" y="-13.32" font-family="Times,serif" font-size="14.00">Z1</text>
</g>
<!-- var6341068275337658369&#45;&gt;var6485183463413514241 -->
<g id="edge7" class="edge">
<title>var6341068275337658369&#45;&gt;var6485183463413514241</title>
<path fill="none" stroke="black" d="M27,-71.83C27,-64.55 27,-55.98 27,-47.83"/>
<polygon fill="black" stroke="black" points="30.5,-47.93 27,-37.93 23.5,-47.93 30.5,-47.93"/>
</g>
<!-- var6341068275337658370&#45;&gt;var6341068275337658371 -->
<g id="edge3" class="edge">
<title>var6341068275337658370&#45;&gt;var6341068275337658371</title>
<path fill="none" stroke="black" d="M126.22,-90C128.28,-90 130.38,-90 132.5,-90"/>
<polygon fill="black" stroke="black" points="132.23,-93.5 142.23,-90 132.23,-86.5 132.23,-93.5"/>
</g>
<!-- var6485183463413514242 -->
<g id="node7" class="node">
<title>var6485183463413514242</title>
<polygon fill="none" stroke="black" points="126,-36 72,-36 72,0 126,0 126,-36"/>
<text text-anchor="middle" x="99" y="-13.32" font-family="Times,serif" font-size="14.00">Z2</text>
</g>
<!-- var6341068275337658370&#45;&gt;var6485183463413514242 -->
<g id="edge6" class="edge">
<title>var6341068275337658370&#45;&gt;var6485183463413514242</title>
<path fill="none" stroke="black" d="M99,-71.83C99,-64.55 99,-55.98 99,-47.83"/>
<polygon fill="black" stroke="black" points="102.5,-47.93 99,-37.93 95.5,-47.93 102.5,-47.93"/>
</g>
<!-- var6485183463413514243 -->
<g id="node8" class="node">
<title>var6485183463413514243</title>
<polygon fill="none" stroke="black" points="198,-36 144,-36 144,0 198,0 198,-36"/>
<text text-anchor="middle" x="171" y="-13.32" font-family="Times,serif" font-size="14.00">Z3</text>
</g>
<!-- var6341068275337658371&#45;&gt;var6485183463413514243 -->
<g id="edge5" class="edge">
<title>var6341068275337658371&#45;&gt;var6485183463413514243</title>
<path fill="none" stroke="black" d="M171,-71.83C171,-64.55 171,-55.98 171,-47.83"/>
<polygon fill="black" stroke="black" points="174.5,-47.93 171,-37.93 167.5,-47.93 174.5,-47.93"/>
</g>
</g>
</svg>