<?xml version="1.0" encoding="UTF-8" standalone="no"?>
<!DOCTYPE svg PUBLIC "-//W3C//DTD SVG 1.1//EN"
 "http://www.w3.org/Graphics/SVG/1.1/DTD/svg11.dtd">
<!-- Generated by graphviz version 8.1.0 (20230707.2238)
 -->
<!-- Title: G Pages: 1 -->
<svg width="206pt" height="117pt"
 viewBox="0.00 0.00 206.00 116.90" xmlns="http://www.w3.org/2000/svg" xmlns:xlink="http://www.w3.org/1999/xlink">
<g id="graph0" class="graph" transform="scale(1 1) rotate(0) translate(4 112.9)">
<title>G</title>
<polygon fill="white" stroke="none" points="-4,4 -4,-112.9 202,-112.9 202,4 -4,4"/>
<!-- 0x559c2aa08b40 -->
<g id="node1" class="node">
<title>0x559c2aa08b40</title>
<ellipse fill="none" stroke="black" cx="99" cy="-85.05" rx="23.85" ry="23.85"/>
<text text-anchor="middle" x="99" y="-80.38" font-family="Times,serif" font-size="14.00">42</text>
</g>
<!-- 0x559c2a088300 -->
<g id="node2" class="node">
<title>0x559c2a088300</title>
<polygon fill="none" stroke="black" points="54,-25.2 0,-25.2 0,0 54,0 54,-25.2"/>
<text text-anchor="middle" x="27" y="-7.93" font-family="Times,serif" font-size="14.00"> 0.4</text>
</g>
<!-- 0x559c2aa08b40&#45;&gt;0x559c2a088300 -->
<g id="edge1" class="edge">
<title>0x559c2aa08b40&#45;&gt;0x559c2a088300</title>
<path fill="none" stroke="black" d="M82.3,-67.71C71.74,-57.37 58.03,-43.96 46.9,-33.07"/>
<polygon fill="black" stroke="black" points="49.93,-31.16 40.34,-26.67 45.04,-36.17 49.93,-31.16"/>
</g>
<!-- 0x559c2a6f8300 -->
<g id="node3" class="node">
<title>0x559c2a6f8300</title>
<polygon fill="none" stroke="black" points="126,-25.2 72,-25.2 72,0 126,0 126,-25.2"/>
<text text-anchor="middle" x="99" y="-7.93" font-family="Times,serif" font-size="14.00"> 0.1</text>
</g>
<!-- 0x559c2aa08b40&#45;&gt;0x559c2a6f8300 -->
<g id="edge2" class="edge">
<title>0x559c2aa08b40&#45;&gt;0x559c2a6f8300</title>
<path fill="none" stroke="black" d="M99,-60.98C99,-53.09 99,-44.28 99,-36.41"/>
<polygon fill="black" stroke="black" points="102.5,-36.44 99,-26.44 95.5,-36.44 102.5,-36.44"/>
</g>
<!-- 0x559c2a168d40 -->
<g id="node4" class="node">
<title>0x559c2a168d40</title>
<polygon fill="none" stroke="black" points="198,-25.2 144,-25.2 144,0 198,0 198,-25.2"/>
<text text-anchor="middle" x="171" y="-7.93" font-family="Times,serif" font-size="14.00"> 0.5</text>
</g>
<!-- 0x559c2aa08b40&#45;&gt;0x559c2a168d40 -->
<g id="edge3" class="edge">
<title>0x559c2aa08b40&#45;&gt;0x559c2a168d40</title>
<path fill="none" stroke="black" d="M115.7,-67.71C126.26,-57.37 139.97,-43.96 151.1,-33.07"/>
<polygon fill="black" stroke="black" points="152.96,-36.17 157.66,-26.67 148.07,-31.16 152.96,-36.17"/>
</g>
</g>
</svg>