<?xml version="1.0" encoding="UTF-8" standalone="no"?>
<!DOCTYPE svg PUBLIC "-//W3C//DTD SVG 1.1//EN"
 "http://www.w3.org/Graphics/SVG/1.1/DTD/svg11.dtd">
<!-- Generated by graphviz version 9.0.0 (20231118.0032)
 -->
<!-- Pages: 1 -->
<svg width="321pt" height="195pt"
 viewBox="0.00 0.00 321.20 195.20" xmlns="http://www.w3.org/2000/svg" xmlns:xlink="http://www.w3.org/1999/xlink">
<g id="graph0" class="graph" transform="scale(1 1) rotate(0) translate(4 191.2)">
<polygon fill="white" stroke="none" points="-4,4 -4,-191.2 317.2,-191.2 317.2,4 -4,4"/>
<!-- var1 -->
<g id="node1" class="node">
<title>var1</title>
<ellipse fill="none" stroke="black" cx="27" cy="-18" rx="27" ry="18"/>
<text text-anchor="middle" x="27" y="-13.32" font-family="Times,serif" font-size="14.00">1</text>
</g>
<!-- var2 -->
<g id="node2" class="node">
<title>var2</title>
<ellipse fill="none" stroke="black" cx="156.6" cy="-25.2" rx="27" ry="18"/>
<text text-anchor="middle" x="156.6" y="-20.52" font-family="Times,serif" font-size="14.00">2</text>
</g>
<!-- var1&#45;&#45;var2 -->
<g id="edge2" class="edge">
<title>var1&#45;&#45;var2</title>
<path fill="none" stroke="black" d="M54.17,-19.51C76.29,-20.74 107.36,-22.46 129.47,-23.69"/>
</g>
<!-- factor0 -->
<g id="node6" class="node">
<title>factor0</title>
<ellipse fill="black" stroke="black" cx="79.52" cy="-79.41" rx="1.8" ry="1.8"/>
</g>
<!-- var1&#45;&#45;factor0 -->
<g id="edge1" class="edge">
<title>var1&#45;&#45;factor0</title>
<path fill="none" stroke="black" d="M40.53,-33.81C53.9,-49.45 73.09,-71.88 78.22,-77.88"/>
</g>
<!-- var3 -->
<g id="node3" class="node">
<title>var3</title>
<ellipse fill="none" stroke="black" cx="286.2" cy="-25.2" rx="27" ry="18"/>
<text text-anchor="middle" x="286.2" y="-20.52" font-family="Times,serif" font-size="14.00">3</text>
</g>
<!-- var2&#45;&#45;var3 -->
<g id="edge3" class="edge">
<title>var2&#45;&#45;var3</title>
<path fill="none" stroke="black" d="M184.08,-25.2C206.08,-25.2 236.77,-25.2 258.75,-25.2"/>
</g>
<!-- var4 -->
<g id="node4" class="node">
<title>var4</title>
<ellipse fill="none" stroke="black" cx="279" cy="-162" rx="27" ry="18"/>
<text text-anchor="middle" x="279" y="-157.32" font-family="Times,serif" font-size="14.00">4</text>
</g>
<!-- var3&#45;&#45;var4 -->
<g id="edge4" class="edge">
<title>var3&#45;&#45;var4</title>
<path fill="none" stroke="black" d="M285.23,-43.65C283.85,-69.9 281.33,-117.75 279.96,-143.84"/>
</g>
<!-- var5 -->
<g id="node5" class="node">
<title>var5</title>
<ellipse fill="none" stroke="black" cx="142.2" cy="-169.2" rx="27" ry="18"/>
<text text-anchor="middle" x="142.2" y="-164.53" font-family="Times,serif" font-size="14.00">5</text>
</g>
<!-- var4&#45;&#45;var5 -->
<g id="edge5" class="edge">
<title>var4&#45;&#45;var5</title>
<path fill="none" stroke="black" d="M251.65,-163.44C227.79,-164.7 193.35,-166.51 169.51,-167.76"/>
</g>
<!-- var5&#45;&#45;var2 -->
<g id="edge6" class="edge">
<title>var5&#45;&#45;var2</title>
<path fill="none" stroke="black" d="M144.02,-150.96C146.79,-123.26 152.03,-70.9 154.79,-43.29"/>
</g>
</g>
</svg>