<?xml version="1.0" encoding="UTF-8" standalone="no"?>
<!DOCTYPE svg PUBLIC "-//W3C//DTD SVG 1.1//EN"
 "http://www.w3.org/Graphics/SVG/1.1/DTD/svg11.dtd">
<!-- Generated by graphviz version 9.0.0 (20231125.0833)
 -->
<!-- Pages: 1 -->
<svg width="206pt" height="44pt"
 viewBox="0.00 0.00 206.00 44.00" xmlns="http://www.w3.org/2000/svg" xmlns:xlink="http://www.w3.org/1999/xlink">
<g id="graph0" class="graph" transform="scale(1 1) rotate(0) translate(4 40)">
<polygon fill="white" stroke="none" points="-4,4 -4,-40 202,-40 202,4 -4,4"/>
<!-- var6341068275337658369 -->
<g id="node1" class="node">
<title>var6341068275337658369</title>
<ellipse fill="none" stroke="black" cx="27" cy="-18" rx="27" ry="18"/>
<text text-anchor="middle" x="27" y="-13.32" font-family="Times,serif" font-size="14.00">X1</text>
</g>
<!-- var6341068275337658370 -->
<g id="node2" class="node">
<title>var6341068275337658370</title>
<ellipse fill="none" stroke="black" cx="99" cy="-18" rx="27" ry="18"/>
<text text-anchor="middle" x="99" y="-13.32" font-family="Times,serif" font-size="14.00">X2</text>
</g>
<!-- var6341068275337658370&#45;&gt;var6341068275337658369 -->
<g id="edge2" class="edge">
<title>var6341068275337658370&#45;&gt;var6341068275337658369</title>
<path fill="none" stroke="black" d="M71.78,-18C69.72,-18 67.62,-18 65.5,-18"/>
<polygon fill="black" stroke="black" points="65.77,-14.5 55.77,-18 65.77,-21.5 65.77,-14.5"/>
</g>
<!-- var6341068275337658371 -->
<g id="node3" class="node">
<title>var6341068275337658371</title>
<ellipse fill="none" stroke="black" cx="171" cy="-18" rx="27" ry="18"/>
<text text-anchor="middle" x="171" y="-13.32" font-family="Times,serif" font-size="14.00">X3</text>
</g>
<!-- var6341068275337658371&#45;&gt;var6341068275337658370 -->
<g id="edge1" class="edge">
<title>var6341068275337658371&#45;&gt;var6341068275337658370</title>
<path fill="none" stroke="black" d="M143.78,-18C141.72,-18 139.62,-18 137.5,-18"/>
<polygon fill="black" stroke="black" points="137.77,-14.5 127.77,-18 137.77,-21.5 137.77,-14.5"/>
</g>
</g>
</svg>