<?xml version="1.0" encoding="UTF-8" standalone="no"?>
<!DOCTYPE svg PUBLIC "-//W3C//DTD SVG 1.1//EN"
 "http://www.w3.org/Graphics/SVG/1.1/DTD/svg11.dtd">
<!-- Generated by graphviz version 9.0.0 (20231125.0833)
 -->
<!-- Title: G Pages: 1 -->
<svg width="206pt" height="117pt"
 viewBox="0.00 0.00 206.00 116.90" xmlns="http://www.w3.org/2000/svg" xmlns:xlink="http://www.w3.org/1999/xlink">
<g id="graph0" class="graph" transform="scale(1 1) rotate(0) translate(4 112.9)">
<title>G</title>
<polygon fill="white" stroke="none" points="-4,4 -4,-112.9 202,-112.9 202,4 -4,4"/>
<!-- 0x5592d43a0300 -->
<g id="node1" class="node">
<title>0x5592d43a0300</title>
<ellipse fill="none" stroke="black" cx="99" cy="-85.05" rx="23.85" ry="23.85"/>
<text text-anchor="middle" x="99" y="-80.38" font-family="Times,serif" font-size="14.00">42</text>
</g>
<!-- 0x5592d25433f0 -->
<g id="node2" class="node">
<title>0x5592d25433f0</title>
<polygon fill="none" stroke="black" points="54,-25.2 0,-25.2 0,0 54,0 54,-25.2"/>
<text text-anchor="middle" x="27" y="-7.93" font-family="Times,serif" font-size="14.00"> 0.4</text>
</g>
<!-- 0x5592d43a0300&#45;&gt;0x5592d25433f0 -->
<g id="edge1" class="edge">
<title>0x5592d43a0300&#45;&gt;0x5592d25433f0</title>
<path fill="none" stroke="black" d="M82.3,-67.71C71.94,-57.58 58.56,-44.48 47.55,-33.71"/>
<polygon fill="black" stroke="black" points="50.01,-31.22 40.42,-26.73 45.12,-36.22 50.01,-31.22"/>
</g>
<!-- 0x5592d425ed60 -->
<g id="node3" class="node">
<title>0x5592d425ed60</title>
<polygon fill="none" stroke="black" points="126,-25.2 72,-25.2 72,0 126,0 126,-25.2"/>
<text text-anchor="middle" x="99" y="-7.93" font-family="Times,serif" font-size="14.00"> 0.1</text>
</g>
<!-- 0x5592d43a0300&#45;&gt;0x5592d425ed60 -->
<g id="edge2" class="edge">
<title>0x5592d43a0300&#45;&gt;0x5592d425ed60</title>
<path fill="none" stroke="black" d="M99,-60.98C99,-53.19 99,-44.49 99,-36.69"/>
<polygon fill="black" stroke="black" points="102.5,-36.95 99,-26.95 95.5,-36.96 102.5,-36.95"/>
</g>
<!-- 0x5592d2a1cdf0 -->
<g id="node4" class="node">
<title>0x5592d2a1cdf0</title>
<polygon fill="none" stroke="black" points="198,-25.2 144,-25.2 144,0 198,0 198,-25.2"/>
<text text-anchor="middle" x="171" y="-7.93" font-family="Times,serif" font-size="14.00"> 0.5</text>
</g>
<!-- 0x5592d43a0300&#45;&gt;0x5592d2a1cdf0 -->
<g id="edge3" class="edge">
<title>0x5592d43a0300&#45;&gt;0x5592d2a1cdf0</title>
<path fill="none" stroke="black" d="M115.7,-67.71C126.06,-57.58 139.44,-44.48 150.45,-33.71"/>
<polygon fill="black" stroke="black" points="152.88,-36.22 157.58,-26.73 147.99,-31.22 152.88,-36.22"/>
</g>
</g>
</svg>