<?xml version="1.0" encoding="UTF-8" standalone="no"?>
<!DOCTYPE svg PUBLIC "-//W3C//DTD SVG 1.1//EN"
 "http://www.w3.org/Graphics/SVG/1.1/DTD/svg11.dtd">
<!-- Generated by graphviz version 8.0.5 (0)
 -->
<!-- Pages: 1 -->
<svg width="360pt" height="16pt"
 viewBox="0.00 0.00 360.00 15.87" xmlns="http://www.w3.org/2000/svg" xmlns:xlink="http://www.w3.org/1999/xlink">
<g id="graph0" class="graph" transform="scale(0.360721 0.360721) rotate(0) translate(4 40)">
<polygon fill="white" stroke="none" points="-4,4 -4,-40 994,-40 994,4 -4,4"/>
<!-- var8646911284551352321 -->
<g id="node1" class="node">
<title>var8646911284551352321</title>
<ellipse fill="none" stroke="black" cx="27" cy="-18" rx="27" ry="18"/>
<text text-anchor="middle" x="27" y="-12.95" font-family="Times,serif" font-size="14.00">x1</text>
</g>
<!-- var8646911284551352322 -->
<g id="node2" class="node">
<title>var8646911284551352322</title>
<ellipse fill="none" stroke="black" cx="99" cy="-18" rx="27" ry="18"/>
<text text-anchor="middle" x="99" y="-12.95" font-family="Times,serif" font-size="14.00">x2</text>
</g>
<!-- var8646911284551352322&#45;&gt;var8646911284551352321 -->
<g id="edge13" class="edge">
<title>var8646911284551352322&#45;&gt;var8646911284551352321</title>
<path fill="none" stroke="black" d="M71.78,-18C69.63,-18 67.43,-18 65.23,-18"/>
<polygon fill="black" stroke="black" points="65.26,-14.5 55.26,-18 65.26,-21.5 65.26,-14.5"/>
</g>
<!-- var8646911284551352323 -->
<g id="node3" class="node">
<title>var8646911284551352323</title>
<ellipse fill="none" stroke="black" cx="171" cy="-18" rx="27" ry="18"/>
<text text-anchor="middle" x="171" y="-12.95" font-family="Times,serif" font-size="14.00">x3</text>
</g>
<!-- var8646911284551352323&#45;&gt;var8646911284551352322 -->
<g id="edge12" class="edge">
<title>var8646911284551352323&#45;&gt;var8646911284551352322</title>
<path fill="none" stroke="black" d="M143.78,-18C141.63,-18 139.43,-18 137.23,-18"/>
<polygon fill="black" stroke="black" points="137.26,-14.5 127.26,-18 137.26,-21.5 137.26,-14.5"/>
</g>
<!-- var8646911284551352324 -->
<g id="node4" class="node">
<title>var8646911284551352324</title>
<ellipse fill="none" stroke="black" cx="243" cy="-18" rx="27" ry="18"/>
<text text-anchor="middle" x="243" y="-12.95" font-family="Times,serif" font-size="14.00">x4</text>
</g>
<!-- var8646911284551352324&#45;&gt;var8646911284551352323 -->
<g id="edge11" class="edge">
<title>var8646911284551352324&#45;&gt;var8646911284551352323</title>
<path fill="none" stroke="black" d="M215.78,-18C213.63,-18 211.43,-18 209.23,-18"/>
<polygon fill="black" stroke="black" points="209.26,-14.5 199.26,-18 209.26,-21.5 209.26,-14.5"/>
</g>
<!-- var8646911284551352325 -->
<g id="node5" class="node">
<title>var8646911284551352325</title>
<ellipse fill="none" stroke="black" cx="315" cy="-18" rx="27" ry="18"/>
<text text-anchor="middle" x="315" y="-12.95" font-family="Times,serif" font-size="14.00">x5</text>
</g>
<!-- var8646911284551352325&#45;&gt;var8646911284551352324 -->
<g id="edge10" class="edge">
<title>var8646911284551352325&#45;&gt;var8646911284551352324</title>
<path fill="none" stroke="black" d="M287.78,-18C285.63,-18 283.43,-18 281.23,-18"/>
<polygon fill="black" stroke="black" points="281.26,-14.5 271.26,-18 281.26,-21.5 281.26,-14.5"/>
</g>
<!-- var8646911284551352326 -->
<g id="node6" class="node">
<title>var8646911284551352326</title>
<ellipse fill="none" stroke="black" cx="387" cy="-18" rx="27" ry="18"/>
<text text-anchor="middle" x="387" y="-12.95" font-family="Times,serif" font-size="14.00">x6</text>
</g>
<!-- var8646911284551352326&#45;&gt;var8646911284551352325 -->
<g id="edge9" class="edge">
<title>var8646911284551352326&#45;&gt;var8646911284551352325</title>
<path fill="none" stroke="black" d="M359.78,-18C357.63,-18 355.43,-18 353.23,-18"/>
<polygon fill="black" stroke="black" points="353.26,-14.5 343.26,-18 353.26,-21.5 353.26,-14.5"/>
</g>
<!-- var8646911284551352327 -->
<g id="node7" class="node">
<title>var8646911284551352327</title>
<ellipse fill="none" stroke="black" cx="459" cy="-18" rx="27" ry="18"/>
<text text-anchor="middle" x="459" y="-12.95" font-family="Times,serif" font-size="14.00">x7</text>
</g>
<!-- var8646911284551352327&#45;&gt;var8646911284551352326 -->
<g id="edge8" class="edge">
<title>var8646911284551352327&#45;&gt;var8646911284551352326</title>
<path fill="none" stroke="black" d="M431.78,-18C429.63,-18 427.43,-18 425.23,-18"/>
<polygon fill="black" stroke="black" points="425.26,-14.5 415.26,-18 425.26,-21.5 425.26,-14.5"/>
</g>
<!-- var8646911284551352328 -->
<g id="node8" class="node">
<title>var8646911284551352328</title>
<ellipse fill="none" stroke="black" cx="531" cy="-18" rx="27" ry="18"/>
<text text-anchor="middle" x="531" y="-12.95" font-family="Times,serif" font-size="14.00">x8</text>
</g>
<!-- var8646911284551352328&#45;&gt;var8646911284551352327 -->
<g id="edge7" class="edge">
<title>var8646911284551352328&#45;&gt;var8646911284551352327</title>
<path fill="none" stroke="black" d="M503.78,-18C501.63,-18 499.43,-18 497.23,-18"/>
<polygon fill="black" stroke="black" points="497.26,-14.5 487.26,-18 497.26,-21.5 497.26,-14.5"/>
</g>
<!-- var8646911284551352329 -->
<g id="node9" class="node">
<title>var8646911284551352329</title>
<ellipse fill="none" stroke="black" cx="603" cy="-18" rx="27" ry="18"/>
<text text-anchor="middle" x="603" y="-12.95" font-family="Times,serif" font-size="14.00">x9</text>
</g>
<!-- var8646911284551352329&#45;&gt;var8646911284551352328 -->
<g id="edge6" class="edge">
<title>var8646911284551352329&#45;&gt;var8646911284551352328</title>
<path fill="none" stroke="black" d="M575.78,-18C573.63,-18 571.43,-18 569.23,-18"/>
<polygon fill="black" stroke="black" points="569.26,-14.5 559.26,-18 569.26,-21.5 569.26,-14.5"/>
</g>
<!-- var8646911284551352330 -->
<g id="node10" class="node">
<title>var8646911284551352330</title>
<ellipse fill="none" stroke="black" cx="675" cy="-18" rx="27" ry="18"/>
<text text-anchor="middle" x="675" y="-12.95" font-family="Times,serif" font-size="14.00">x10</text>
</g>
<!-- var8646911284551352330&#45;&gt;var8646911284551352329 -->
<g id="edge5" class="edge">
<title>var8646911284551352330&#45;&gt;var8646911284551352329</title>
<path fill="none" stroke="black" d="M647.78,-18C645.63,-18 643.43,-18 641.23,-18"/>
<polygon fill="black" stroke="black" points="641.26,-14.5 631.26,-18 641.26,-21.5 641.26,-14.5"/>
</g>
<!-- var8646911284551352331 -->
<g id="node11" class="node">
<title>var8646911284551352331</title>
<ellipse fill="none" stroke="black" cx="747" cy="-18" rx="27" ry="18"/>
<text text-anchor="middle" x="747" y="-12.95" font-family="Times,serif" font-size="14.00">x11</text>
</g>
<!-- var8646911284551352331&#45;&gt;var8646911284551352330 -->
<g id="edge4" class="edge">
<title>var8646911284551352331&#45;&gt;var8646911284551352330</title>
<path fill="none" stroke="black" d="M719.78,-18C717.63,-18 715.43,-18 713.23,-18"/>
<polygon fill="black" stroke="black" points="713.26,-14.5 703.26,-18 713.26,-21.5 713.26,-14.5"/>
</g>
<!-- var8646911284551352332 -->
<g id="node12" class="node">
<title>var8646911284551352332</title>
<ellipse fill="none" stroke="black" cx="819" cy="-18" rx="27" ry="18"/>
<text text-anchor="middle" x="819" y="-12.95" font-family="Times,serif" font-size="14.00">x12</text>
</g>
<!-- var8646911284551352332&#45;&gt;var8646911284551352331 -->
<g id="edge3" class="edge">
<title>var8646911284551352332&#45;&gt;var8646911284551352331</title>
<path fill="none" stroke="black" d="M791.78,-18C789.63,-18 787.43,-18 785.23,-18"/>
<polygon fill="black" stroke="black" points="785.26,-14.5 775.26,-18 785.26,-21.5 785.26,-14.5"/>
</g>
<!-- var8646911284551352333 -->
<g id="node13" class="node">
<title>var8646911284551352333</title>
<ellipse fill="none" stroke="black" cx="891" cy="-18" rx="27" ry="18"/>
<text text-anchor="middle" x="891" y="-12.95" font-family="Times,serif" font-size="14.00">x13</text>
</g>
<!-- var8646911284551352333&#45;&gt;var8646911284551352332 -->
<g id="edge2" class="edge">
<title>var8646911284551352333&#45;&gt;var8646911284551352332</title>
<path fill="none" stroke="black" d="M863.78,-18C861.63,-18 859.43,-18 857.23,-18"/>
<polygon fill="black" stroke="black" points="857.26,-14.5 847.26,-18 857.26,-21.5 857.26,-14.5"/>
</g>
<!-- var8646911284551352334 -->
<g id="node14" class="node">
<title>var8646911284551352334</title>
<ellipse fill="none" stroke="black" cx="963" cy="-18" rx="27" ry="18"/>
<text text-anchor="middle" x="963" y="-12.95" font-family="Times,serif" font-size="14.00">x14</text>
</g>
<!-- var8646911284551352334&#45;&gt;var8646911284551352333 -->
<g id="edge1" class="edge">
<title>var8646911284551352334&#45;&gt;var8646911284551352333</title>
<path fill="none" stroke="black" d="M935.78,-18C933.63,-18 931.43,-18 929.23,-18"/>
<polygon fill="black" stroke="black" points="929.26,-14.5 919.26,-18 929.26,-21.5 929.26,-14.5"/>
</g>
</g>
</svg>