<?xml version="1.0" encoding="UTF-8" standalone="no"?>
<!DOCTYPE svg PUBLIC "-//W3C//DTD SVG 1.1//EN"
 "http://www.w3.org/Graphics/SVG/1.1/DTD/svg11.dtd">
<!-- Generated by graphviz version 11.0.0 (20240519.1550)
 -->
<!-- Title: G Pages: 1 -->
<svg width="350pt" height="105pt"
 viewBox="0.00 0.00 350.00 105.20" xmlns="http://www.w3.org/2000/svg" xmlns:xlink="http://www.w3.org/1999/xlink">
<g id="graph0" class="graph" transform="scale(1 1) rotate(0) translate(4 101.2)">
<title>G</title>
<polygon fill="white" stroke="none" points="-4,4 -4,-101.2 346,-101.2 346,4 -4,4"/>
<!-- 0x55948a168c20 -->
<g id="node1" class="node">
<title>0x55948a168c20</title>
<ellipse fill="none" stroke="black" cx="171" cy="-79.2" rx="18" ry="18"/>
<text text-anchor="middle" x="171" y="-74.52" font-family="Times,serif" font-size="14.00">2</text>
</g>
<!-- 0x55948a792080 -->
<g id="node2" class="node">
<title>0x55948a792080</title>
<polygon fill="none" stroke="black" points="54,-25.2 0,-25.2 0,0 54,0 54,-25.2"/>
<text text-anchor="middle" x="27" y="-7.93" font-family="Times,serif" font-size="14.00">0.99</text>
</g>
<!-- 0x55948a168c20&#45;&gt;0x55948a792080 -->
<g id="edge1" class="edge">
<title>0x55948a168c20&#45;&gt;0x55948a792080</title>
<path fill="none" stroke="black" d="M154.76,-70.92C132.95,-61.13 93.54,-43.45 64.23,-30.3"/>
<polygon fill="black" stroke="black" points="65.88,-27.21 55.33,-26.31 63.02,-33.59 65.88,-27.21"/>
</g>
<!-- 0x55948a212130 -->
<g id="node3" class="node">
<title>0x55948a212130</title>
<polygon fill="none" stroke="black" points="126,-25.2 72,-25.2 72,0 126,0 126,-25.2"/>
<text text-anchor="middle" x="99" y="-7.93" font-family="Times,serif" font-size="14.00">0.99</text>
</g>
<!-- 0x55948a168c20&#45;&gt;0x55948a212130 -->
<g id="edge2" class="edge">
<title>0x55948a168c20&#45;&gt;0x55948a212130</title>
<path fill="none" stroke="black" d="M157.79,-66.35C147.34,-56.97 132.53,-43.68 120.39,-32.79"/>
<polygon fill="black" stroke="black" points="123.03,-30.46 113.25,-26.38 118.35,-35.67 123.03,-30.46"/>
</g>
<!-- 0x55948a684ed0 -->
<g id="node4" class="node">
<title>0x55948a684ed0</title>
<polygon fill="none" stroke="black" points="198,-25.2 144,-25.2 144,0 198,0 198,-25.2"/>
<text text-anchor="middle" x="171" y="-7.93" font-family="Times,serif" font-size="14.00"> 0.1</text>
</g>
<!-- 0x55948a168c20&#45;&gt;0x55948a684ed0 -->
<g id="edge3" class="edge">
<title>0x55948a168c20&#45;&gt;0x55948a684ed0</title>
<path fill="none" stroke="black" d="M171,-60.89C171,-53.53 171,-44.84 171,-36.93"/>
<polygon fill="black" stroke="black" points="174.5,-36.96 171,-26.96 167.5,-36.96 174.5,-36.96"/>
</g>
<!-- 0x55948a756640 -->
<g id="node5" class="node">
<title>0x55948a756640</title>
<polygon fill="none" stroke="black" points="270,-25.2 216,-25.2 216,0 270,0 270,-25.2"/>
<text text-anchor="middle" x="243" y="-7.93" font-family="Times,serif" font-size="14.00">0.15</text>
</g>
<!-- 0x55948a168c20&#45;&gt;0x55948a756640 -->
<g id="edge4" class="edge">
<title>0x55948a168c20&#45;&gt;0x55948a756640</title>
<path fill="none" stroke="black" d="M184.21,-66.35C194.66,-56.97 209.47,-43.68 221.61,-32.79"/>
<polygon fill="black" stroke="black" points="223.65,-35.67 228.75,-26.38 218.97,-30.46 223.65,-35.67"/>
</g>
<!-- 0x55948a70d380 -->
<g id="node6" class="node">
<title>0x55948a70d380</title>
<polygon fill="none" stroke="black" points="342,-25.2 288,-25.2 288,0 342,0 342,-25.2"/>
<text text-anchor="middle" x="315" y="-7.93" font-family="Times,serif" font-size="14.00">0.95</text>
</g>
<!-- 0x55948a168c20&#45;&gt;0x55948a70d380 -->
<g id="edge5" class="edge">
<title>0x55948a168c20&#45;&gt;0x55948a70d380</title>
<path fill="none" stroke="black" d="M187.24,-70.92C209.05,-61.13 248.46,-43.45 277.77,-30.3"/>
<polygon fill="black" stroke="black" points="278.98,-33.59 286.67,-26.31 276.12,-27.21 278.98,-33.59"/>
</g>
</g>
</svg>