<?xml version="1.0" encoding="UTF-8" standalone="no"?>
<!DOCTYPE svg PUBLIC "-//W3C//DTD SVG 1.1//EN"
 "http://www.w3.org/Graphics/SVG/1.1/DTD/svg11.dtd">
<!-- Generated by graphviz version 2.50.0 (20220117.2223)
 -->
<!-- Title: G Pages: 1 -->
<svg width="206pt" height="114pt"
 viewBox="0.00 0.00 206.00 114.50" xmlns="http://www.w3.org/2000/svg" xmlns:xlink="http://www.w3.org/1999/xlink">
<g id="graph0" class="graph" transform="scale(1 1) rotate(0) translate(4 110.5)">
<title>G</title>
<polygon fill="white" stroke="transparent" points="-4,4 -4,-110.5 202,-110.5 202,4 -4,4"/>
<!-- 0x563366ad47c0 -->
<g id="node1" class="node">
<title>0x563366ad47c0</title>
<ellipse fill="none" stroke="black" cx="99" cy="-83.75" rx="23" ry="23"/>
<text text-anchor="middle" x="99" y="-80.05" font-family="Times,serif" font-size="14.00">42</text>
</g>
<!-- 0x563366b8a1e0 -->
<g id="node2" class="node">
<title>0x563366b8a1e0</title>
<polygon fill="none" stroke="black" points="54,-25 0,-25 0,0 54,0 54,-25"/>
<text text-anchor="middle" x="27" y="-8.8" font-family="Times,serif" font-size="14.00"> 0.4</text>
</g>
<!-- 0x563366ad47c0&#45;&gt;0x563366b8a1e0 -->
<g id="edge1" class="edge">
<title>0x563366ad47c0&#45;&gt;0x563366b8a1e0</title>
<path fill="none" stroke="black" d="M83.02,-67.38C72.25,-57.02 57.97,-43.29 46.53,-32.28"/>
<polygon fill="black" stroke="black" points="48.77,-29.58 39.13,-25.17 43.91,-34.62 48.77,-29.58"/>
</g>
<!-- 0x563365968cb0 -->
<g id="node3" class="node">
<title>0x563365968cb0</title>
<polygon fill="none" stroke="black" points="126,-25 72,-25 72,0 126,0 126,-25"/>
<text text-anchor="middle" x="99" y="-8.8" font-family="Times,serif" font-size="14.00"> 0.1</text>
</g>
<!-- 0x563366ad47c0&#45;&gt;0x563365968cb0 -->
<g id="edge2" class="edge">
<title>0x563366ad47c0&#45;&gt;0x563365968cb0</title>
<path fill="none" stroke="black" d="M99,-60.84C99,-52.67 99,-43.4 99,-35.24"/>
<polygon fill="black" stroke="black" points="102.5,-35.01 99,-25.01 95.5,-35.01 102.5,-35.01"/>
</g>
<!-- 0x5633664856f0 -->
<g id="node4" class="node">
<title>0x5633664856f0</title>
<polygon fill="none" stroke="black" points="198,-25 144,-25 144,0 198,0 198,-25"/>
<text text-anchor="middle" x="171" y="-8.8" font-family="Times,serif" font-size="14.00"> 0.5</text>
</g>
<!-- 0x563366ad47c0&#45;&gt;0x5633664856f0 -->
<g id="edge3" class="edge">
<title>0x563366ad47c0&#45;&gt;0x5633664856f0</title>
<path fill="none" stroke="black" d="M114.98,-67.38C125.75,-57.02 140.03,-43.29 151.47,-32.28"/>
<polygon fill="black" stroke="black" points="154.09,-34.62 158.87,-25.17 149.23,-29.58 154.09,-34.62"/>
</g>
</g>
</svg>
