<?xml version="1.0" encoding="UTF-8" standalone="no"?>
<!DOCTYPE svg PUBLIC "-//W3C//DTD SVG 1.1//EN"
 "http://www.w3.org/Graphics/SVG/1.1/DTD/svg11.dtd">
<!-- Generated by graphviz version 7.1.0 (20230122.1345)
 -->
<!-- Title: G Pages: 1 -->
<svg width="206pt" height="114pt"
 viewBox="0.00 0.00 206.00 114.50" xmlns="http://www.w3.org/2000/svg" xmlns:xlink="http://www.w3.org/1999/xlink">
<g id="graph0" class="graph" transform="scale(1 1) rotate(0) translate(4 110.5)">
<title>G</title>
<polygon fill="white" stroke="none" points="-4,4 -4,-110.5 202,-110.5 202,4 -4,4"/>
<!-- 0x55fd686cb200 -->
<g id="node1" class="node">
<title>0x55fd686cb200</title>
<ellipse fill="none" stroke="black" cx="99" cy="-83.75" rx="23" ry="23"/>
<text text-anchor="middle" x="99" y="-80.05" font-family="Times,serif" font-size="14.00">42</text>
</g>
<!-- 0x55fd686fd0f0 -->
<g id="node2" class="node">
<title>0x55fd686fd0f0</title>
<polygon fill="none" stroke="black" points="54,-25 0,-25 0,0 54,0 54,-25"/>
<text text-anchor="middle" x="27" y="-8.8" font-family="Times,serif" font-size="14.00"> 0.4</text>
</g>
<!-- 0x55fd686cb200&#45;&gt;0x55fd686fd0f0 -->
<g id="edge1" class="edge">
<title>0x55fd686cb200&#45;&gt;0x55fd686fd0f0</title>
<path fill="none" stroke="black" d="M82.66,-67.03C72.32,-57.08 58.85,-44.13 47.75,-33.46"/>
<polygon fill="black" stroke="black" points="50.19,-30.94 40.55,-26.53 45.33,-35.99 50.19,-30.94"/>
</g>
<!-- 0x55fd67a14690 -->
<g id="node3" class="node">
<title>0x55fd67a14690</title>
<polygon fill="none" stroke="black" points="126,-25 72,-25 72,0 126,0 126,-25"/>
<text text-anchor="middle" x="99" y="-8.8" font-family="Times,serif" font-size="14.00"> 0.1</text>
</g>
<!-- 0x55fd686cb200&#45;&gt;0x55fd67a14690 -->
<g id="edge2" class="edge">
<title>0x55fd686cb200&#45;&gt;0x55fd67a14690</title>
<path fill="none" stroke="black" d="M99,-60.46C99,-52.87 99,-44.37 99,-36.71"/>
<polygon fill="black" stroke="black" points="102.5,-36.78 99,-26.79 95.5,-36.79 102.5,-36.78"/>
</g>
<!-- 0x55fd67bd70a0 -->
<g id="node4" class="node">
<title>0x55fd67bd70a0</title>
<polygon fill="none" stroke="black" points="198,-25 144,-25 144,0 198,0 198,-25"/>
<text text-anchor="middle" x="171" y="-8.8" font-family="Times,serif" font-size="14.00"> 0.5</text>
</g>
<!-- 0x55fd686cb200&#45;&gt;0x55fd67bd70a0 -->
<g id="edge3" class="edge">
<title>0x55fd686cb200&#45;&gt;0x55fd67bd70a0</title>
<path fill="none" stroke="black" d="M115.34,-67.03C125.68,-57.08 139.15,-44.13 150.25,-33.46"/>
<polygon fill="black" stroke="black" points="152.67,-35.99 157.45,-26.53 147.81,-30.94 152.67,-35.99"/>
</g>
</g>
</svg>
