<?xml version="1.0" encoding="UTF-8" standalone="no"?>
<!DOCTYPE svg PUBLIC "-//W3C//DTD SVG 1.1//EN"
 "http://www.w3.org/Graphics/SVG/1.1/DTD/svg11.dtd">
<!-- Generated by graphviz version 7.1.0 (20230122.1345)
 -->
<!-- Title: G Pages: 1 -->
<svg width="710pt" height="177pt"
 viewBox="0.00 0.00 710.00 177.00" xmlns="http://www.w3.org/2000/svg" xmlns:xlink="http://www.w3.org/1999/xlink">
<g id="graph0" class="graph" transform="scale(1 1) rotate(0) translate(4 173)">
<title>G</title>
<polygon fill="white" stroke="none" points="-4,4 -4,-173 706,-173 706,4 -4,4"/>
<!-- 0x55752c18b1b0 -->
<g id="node1" class="node">
<title>0x55752c18b1b0</title>
<ellipse fill="none" stroke="black" cx="351" cy="-151" rx="18" ry="18"/>
<text text-anchor="middle" x="351" y="-147.3" font-family="Times,serif" font-size="14.00">2</text>
</g>
<!-- 0x55752c182180 -->
<g id="node2" class="node">
<title>0x55752c182180</title>
<ellipse fill="none" stroke="black" cx="99" cy="-79" rx="18" ry="18"/>
<text text-anchor="middle" x="99" y="-75.3" font-family="Times,serif" font-size="14.00">0</text>
</g>
<!-- 0x55752c18b1b0&#45;&gt;0x55752c182180 -->
<g id="edge1" class="edge">
<title>0x55752c18b1b0&#45;&gt;0x55752c182180</title>
<path fill="none" stroke="black" d="M333.68,-145.19C290.88,-133.3 179.81,-102.45 127.3,-87.86"/>
<polygon fill="black" stroke="black" points="128.47,-84.55 117.9,-85.25 126.6,-91.3 128.47,-84.55"/>
</g>
<!-- 0x55752c19a980 -->
<g id="node5" class="node">
<title>0x55752c19a980</title>
<ellipse fill="none" stroke="black" cx="243" cy="-79" rx="18" ry="18"/>
<text text-anchor="middle" x="243" y="-75.3" font-family="Times,serif" font-size="14.00">0</text>
</g>
<!-- 0x55752c18b1b0&#45;&gt;0x55752c19a980 -->
<g id="edge4" class="edge">
<title>0x55752c18b1b0&#45;&gt;0x55752c19a980</title>
<path fill="none" stroke="black" d="M335.98,-140.27C318.25,-128.77 288.51,-109.5 267.44,-95.84"/>
<polygon fill="black" stroke="black" points="269.45,-92.98 259.16,-90.47 265.65,-98.85 269.45,-92.98"/>
</g>
<!-- 0x55752c3248a0 -->
<g id="node8" class="node">
<title>0x55752c3248a0</title>
<ellipse fill="none" stroke="black" cx="351" cy="-79" rx="18" ry="18"/>
<text text-anchor="middle" x="351" y="-75.3" font-family="Times,serif" font-size="14.00">0</text>
</g>
<!-- 0x55752c18b1b0&#45;&gt;0x55752c3248a0 -->
<g id="edge7" class="edge">
<title>0x55752c18b1b0&#45;&gt;0x55752c3248a0</title>
<path fill="none" stroke="black" d="M351,-132.7C351,-125.41 351,-116.73 351,-108.54"/>
<polygon fill="black" stroke="black" points="354.5,-108.62 351,-98.62 347.5,-108.62 354.5,-108.62"/>
</g>
<!-- 0x55752bfb29f0 -->
<g id="node11" class="node">
<title>0x55752bfb29f0</title>
<ellipse fill="none" stroke="black" cx="459" cy="-79" rx="18" ry="18"/>
<text text-anchor="middle" x="459" y="-75.3" font-family="Times,serif" font-size="14.00">0</text>
</g>
<!-- 0x55752c18b1b0&#45;&gt;0x55752bfb29f0 -->
<g id="edge10" class="edge">
<title>0x55752c18b1b0&#45;&gt;0x55752bfb29f0</title>
<path fill="none" stroke="black" d="M366.02,-140.27C383.75,-128.77 413.49,-109.5 434.56,-95.84"/>
<polygon fill="black" stroke="black" points="436.35,-98.85 442.84,-90.47 432.55,-92.98 436.35,-98.85"/>
</g>
<!-- 0x55752c269900 -->
<g id="node14" class="node">
<title>0x55752c269900</title>
<ellipse fill="none" stroke="black" cx="603" cy="-79" rx="18" ry="18"/>
<text text-anchor="middle" x="603" y="-75.3" font-family="Times,serif" font-size="14.00">0</text>
</g>
<!-- 0x55752c18b1b0&#45;&gt;0x55752c269900 -->
<g id="edge13" class="edge">
<title>0x55752c18b1b0&#45;&gt;0x55752c269900</title>
<path fill="none" stroke="black" d="M368.32,-145.19C411.12,-133.3 522.19,-102.45 574.7,-87.86"/>
<polygon fill="black" stroke="black" points="575.4,-91.3 584.1,-85.25 573.53,-84.55 575.4,-91.3"/>
</g>
<!-- 0x55752c036220 -->
<g id="node3" class="node">
<title>0x55752c036220</title>
<polygon fill="none" stroke="black" points="54,-25 0,-25 0,0 54,0 54,-25"/>
<text text-anchor="middle" x="27" y="-8.8" font-family="Times,serif" font-size="14.00">0.99</text>
</g>
<!-- 0x55752c182180&#45;&gt;0x55752c036220 -->
<g id="edge2" class="edge">
<title>0x55752c182180&#45;&gt;0x55752c036220</title>
<path fill="none" stroke="black" stroke-dasharray="5,2" d="M85.79,-66.17C75.34,-56.8 60.53,-43.54 48.39,-32.66"/>
<polygon fill="black" stroke="black" points="51.03,-30.33 41.25,-26.27 46.36,-35.54 51.03,-30.33"/>
</g>
<!-- 0x55752c09c020 -->
<g id="node4" class="node">
<title>0x55752c09c020</title>
<polygon fill="none" stroke="black" points="126,-25 72,-25 72,0 126,0 126,-25"/>
<text text-anchor="middle" x="99" y="-8.8" font-family="Times,serif" font-size="14.00">0.01</text>
</g>
<!-- 0x55752c182180&#45;&gt;0x55752c09c020 -->
<g id="edge3" class="edge">
<title>0x55752c182180&#45;&gt;0x55752c09c020</title>
<path fill="none" stroke="black" d="M99,-60.72C99,-53.37 99,-44.69 99,-36.79"/>
<polygon fill="black" stroke="black" points="102.5,-36.84 99,-26.84 95.5,-36.84 102.5,-36.84"/>
</g>
<!-- 0x55752c0423e0 -->
<g id="node6" class="node">
<title>0x55752c0423e0</title>
<polygon fill="none" stroke="black" points="198,-25 144,-25 144,0 198,0 198,-25"/>
<text text-anchor="middle" x="171" y="-8.8" font-family="Times,serif" font-size="14.00">0.99</text>
</g>
<!-- 0x55752c19a980&#45;&gt;0x55752c0423e0 -->
<g id="edge5" class="edge">
<title>0x55752c19a980&#45;&gt;0x55752c0423e0</title>
<path fill="none" stroke="black" stroke-dasharray="5,2" d="M229.79,-66.17C219.34,-56.8 204.53,-43.54 192.39,-32.66"/>
<polygon fill="black" stroke="black" points="195.03,-30.33 185.25,-26.27 190.36,-35.54 195.03,-30.33"/>
</g>
<!-- 0x55752c0b84d0 -->
<g id="node7" class="node">
<title>0x55752c0b84d0</title>
<polygon fill="none" stroke="black" points="270,-25 216,-25 216,0 270,0 270,-25"/>
<text text-anchor="middle" x="243" y="-8.8" font-family="Times,serif" font-size="14.00">0.01</text>
</g>
<!-- 0x55752c19a980&#45;&gt;0x55752c0b84d0 -->
<g id="edge6" class="edge">
<title>0x55752c19a980&#45;&gt;0x55752c0b84d0</title>
<path fill="none" stroke="black" d="M243,-60.72C243,-53.37 243,-44.69 243,-36.79"/>
<polygon fill="black" stroke="black" points="246.5,-36.84 243,-26.84 239.5,-36.84 246.5,-36.84"/>
</g>
<!-- 0x55752c0c3d30 -->
<g id="node9" class="node">
<title>0x55752c0c3d30</title>
<polygon fill="none" stroke="black" points="342,-25 288,-25 288,0 342,0 342,-25"/>
<text text-anchor="middle" x="315" y="-8.8" font-family="Times,serif" font-size="14.00"> 0.1</text>
</g>
<!-- 0x55752c3248a0&#45;&gt;0x55752c0c3d30 -->
<g id="edge8" class="edge">
<title>0x55752c3248a0&#45;&gt;0x55752c0c3d30</title>
<path fill="none" stroke="black" stroke-dasharray="5,2" d="M342.47,-62.71C337.87,-54.47 332.11,-44.15 327.05,-35.1"/>
<polygon fill="black" stroke="black" points="330.22,-33.6 322.29,-26.57 324.11,-37.01 330.22,-33.6"/>
</g>
<!-- 0x55752c1619e0 -->
<g id="node10" class="node">
<title>0x55752c1619e0</title>
<polygon fill="none" stroke="black" points="414,-25 360,-25 360,0 414,0 414,-25"/>
<text text-anchor="middle" x="387" y="-8.8" font-family="Times,serif" font-size="14.00"> 0.9</text>
</g>
<!-- 0x55752c3248a0&#45;&gt;0x55752c1619e0 -->
<g id="edge9" class="edge">
<title>0x55752c3248a0&#45;&gt;0x55752c1619e0</title>
<path fill="none" stroke="black" d="M359.53,-62.71C364.13,-54.47 369.89,-44.15 374.95,-35.1"/>
<polygon fill="black" stroke="black" points="377.89,-37.01 379.71,-26.57 371.78,-33.6 377.89,-37.01"/>
</g>
<!-- 0x55752bfb52f0 -->
<g id="node12" class="node">
<title>0x55752bfb52f0</title>
<polygon fill="none" stroke="black" points="486,-25 432,-25 432,0 486,0 486,-25"/>
<text text-anchor="middle" x="459" y="-8.8" font-family="Times,serif" font-size="14.00">0.15</text>
</g>
<!-- 0x55752bfb29f0&#45;&gt;0x55752bfb52f0 -->
<g id="edge11" class="edge">
<title>0x55752bfb29f0&#45;&gt;0x55752bfb52f0</title>
<path fill="none" stroke="black" stroke-dasharray="5,2" d="M459,-60.72C459,-53.37 459,-44.69 459,-36.79"/>
<polygon fill="black" stroke="black" points="462.5,-36.84 459,-26.84 455.5,-36.84 462.5,-36.84"/>
</g>
<!-- 0x55752c15a8f0 -->
<g id="node13" class="node">
<title>0x55752c15a8f0</title>
<polygon fill="none" stroke="black" points="558,-25 504,-25 504,0 558,0 558,-25"/>
<text text-anchor="middle" x="531" y="-8.8" font-family="Times,serif" font-size="14.00">0.85</text>
</g>
<!-- 0x55752bfb29f0&#45;&gt;0x55752c15a8f0 -->
<g id="edge12" class="edge">
<title>0x55752bfb29f0&#45;&gt;0x55752c15a8f0</title>
<path fill="none" stroke="black" d="M472.21,-66.17C482.66,-56.8 497.47,-43.54 509.61,-32.66"/>
<polygon fill="black" stroke="black" points="511.64,-35.54 516.75,-26.27 506.97,-30.33 511.64,-35.54"/>
</g>
<!-- 0x55752bf1bfc0 -->
<g id="node15" class="node">
<title>0x55752bf1bfc0</title>
<polygon fill="none" stroke="black" points="630,-25 576,-25 576,0 630,0 630,-25"/>
<text text-anchor="middle" x="603" y="-8.8" font-family="Times,serif" font-size="14.00">0.95</text>
</g>
<!-- 0x55752c269900&#45;&gt;0x55752bf1bfc0 -->
<g id="edge14" class="edge">
<title>0x55752c269900&#45;&gt;0x55752bf1bfc0</title>
<path fill="none" stroke="black" stroke-dasharray="5,2" d="M603,-60.72C603,-53.37 603,-44.69 603,-36.79"/>
<polygon fill="black" stroke="black" points="606.5,-36.84 603,-26.84 599.5,-36.84 606.5,-36.84"/>
</g>
<!-- 0x55752c195890 -->
<g id="node16" class="node">
<title>0x55752c195890</title>
<polygon fill="none" stroke="black" points="702,-25 648,-25 648,0 702,0 702,-25"/>
<text text-anchor="middle" x="675" y="-8.8" font-family="Times,serif" font-size="14.00">0.05</text>
</g>
<!-- 0x55752c269900&#45;&gt;0x55752c195890 -->
<g id="edge15" class="edge">
<title>0x55752c269900&#45;&gt;0x55752c195890</title>
<path fill="none" stroke="black" d="M616.21,-66.17C626.66,-56.8 641.47,-43.54 653.61,-32.66"/>
<polygon fill="black" stroke="black" points="655.64,-35.54 660.75,-26.27 650.97,-30.33 655.64,-35.54"/>
</g>
</g>
</svg>
