<?xml version="1.0" encoding="UTF-8" standalone="no"?>
<!DOCTYPE svg PUBLIC "-//W3C//DTD SVG 1.1//EN"
 "http://www.w3.org/Graphics/SVG/1.1/DTD/svg11.dtd">
<!-- Generated by graphviz version 7.1.0 (20230122.1345)
 -->
<!-- Title: G Pages: 1 -->
<svg width="1070pt" height="177pt"
 viewBox="0.00 0.00 1070.00 177.00" xmlns="http://www.w3.org/2000/svg" xmlns:xlink="http://www.w3.org/1999/xlink">
<g id="graph0" class="graph" transform="scale(1 1) rotate(0) translate(4 173)">
<title>G</title>
<polygon fill="white" stroke="none" points="-4,4 -4,-173 1066,-173 1066,4 -4,4"/>
<!-- 0x563dd42687f0 -->
<g id="node1" class="node">
<title>0x563dd42687f0</title>
<ellipse fill="none" stroke="black" cx="531" cy="-151" rx="18" ry="18"/>
<text text-anchor="middle" x="531" y="-147.3" font-family="Times,serif" font-size="14.00">2</text>
</g>
<!-- 0x563dd49bd420 -->
<g id="node2" class="node">
<title>0x563dd49bd420</title>
<ellipse fill="none" stroke="black" cx="135" cy="-79" rx="18" ry="18"/>
<text text-anchor="middle" x="135" y="-75.3" font-family="Times,serif" font-size="14.00">1</text>
</g>
<!-- 0x563dd42687f0&#45;&gt;0x563dd49bd420 -->
<g id="edge1" class="edge">
<title>0x563dd42687f0&#45;&gt;0x563dd49bd420</title>
<path fill="none" stroke="black" d="M513.22,-146.86C450.79,-135.82 241.26,-98.78 163.96,-85.12"/>
<polygon fill="black" stroke="black" points="164.68,-81.69 154.23,-83.4 163.46,-88.59 164.68,-81.69"/>
</g>
<!-- 0x563dd49b9b40 -->
<g id="node6" class="node">
<title>0x563dd49b9b40</title>
<ellipse fill="none" stroke="black" cx="351" cy="-79" rx="18" ry="18"/>
<text text-anchor="middle" x="351" y="-75.3" font-family="Times,serif" font-size="14.00">1</text>
</g>
<!-- 0x563dd42687f0&#45;&gt;0x563dd49b9b40 -->
<g id="edge5" class="edge">
<title>0x563dd42687f0&#45;&gt;0x563dd49b9b40</title>
<path fill="none" stroke="black" d="M514.39,-143.54C483.26,-131.43 415.88,-105.23 378.09,-90.54"/>
<polygon fill="black" stroke="black" points="379.83,-87.46 369.24,-87.09 377.29,-93.98 379.83,-87.46"/>
</g>
<!-- 0x563dd4873420 -->
<g id="node10" class="node">
<title>0x563dd4873420</title>
<ellipse fill="none" stroke="black" cx="531" cy="-79" rx="18" ry="18"/>
<text text-anchor="middle" x="531" y="-75.3" font-family="Times,serif" font-size="14.00">1</text>
</g>
<!-- 0x563dd42687f0&#45;&gt;0x563dd4873420 -->
<g id="edge9" class="edge">
<title>0x563dd42687f0&#45;&gt;0x563dd4873420</title>
<path fill="none" stroke="black" d="M531,-132.7C531,-125.41 531,-116.73 531,-108.54"/>
<polygon fill="black" stroke="black" points="534.5,-108.62 531,-98.62 527.5,-108.62 534.5,-108.62"/>
</g>
<!-- 0x563dd484c820 -->
<g id="node14" class="node">
<title>0x563dd484c820</title>
<ellipse fill="none" stroke="black" cx="711" cy="-79" rx="18" ry="18"/>
<text text-anchor="middle" x="711" y="-75.3" font-family="Times,serif" font-size="14.00">1</text>
</g>
<!-- 0x563dd42687f0&#45;&gt;0x563dd484c820 -->
<g id="edge13" class="edge">
<title>0x563dd42687f0&#45;&gt;0x563dd484c820</title>
<path fill="none" stroke="black" d="M547.61,-143.54C578.74,-131.43 646.12,-105.23 683.91,-90.54"/>
<polygon fill="black" stroke="black" points="684.71,-93.98 692.76,-87.09 682.17,-87.46 684.71,-93.98"/>
</g>
<!-- 0x563dd382d5a0 -->
<g id="node18" class="node">
<title>0x563dd382d5a0</title>
<ellipse fill="none" stroke="black" cx="927" cy="-79" rx="18" ry="18"/>
<text text-anchor="middle" x="927" y="-75.3" font-family="Times,serif" font-size="14.00">1</text>
</g>
<!-- 0x563dd42687f0&#45;&gt;0x563dd382d5a0 -->
<g id="edge17" class="edge">
<title>0x563dd42687f0&#45;&gt;0x563dd382d5a0</title>
<path fill="none" stroke="black" d="M548.78,-146.86C611.21,-135.82 820.74,-98.78 898.04,-85.12"/>
<polygon fill="black" stroke="black" points="898.54,-88.59 907.77,-83.4 897.32,-81.69 898.54,-88.59"/>
</g>
<!-- 0x563dd47dca90 -->
<g id="node3" class="node">
<title>0x563dd47dca90</title>
<polygon fill="none" stroke="black" points="54,-25 0,-25 0,0 54,0 54,-25"/>
<text text-anchor="middle" x="27" y="-8.8" font-family="Times,serif" font-size="14.00">0.02</text>
</g>
<!-- 0x563dd49bd420&#45;&gt;0x563dd47dca90 -->
<g id="edge2" class="edge">
<title>0x563dd49bd420&#45;&gt;0x563dd47dca90</title>
<path fill="none" stroke="black" d="M119.98,-69.03C103.72,-59.32 77.36,-43.57 56.85,-31.32"/>
<polygon fill="black" stroke="black" points="58.71,-28.36 48.33,-26.24 55.12,-34.37 58.71,-28.36"/>
</g>
<!-- 0x563dd47fdb70 -->
<g id="node4" class="node">
<title>0x563dd47fdb70</title>
<polygon fill="none" stroke="black" points="126,-25 72,-25 72,0 126,0 126,-25"/>
<text text-anchor="middle" x="99" y="-8.8" font-family="Times,serif" font-size="14.00">0.88</text>
</g>
<!-- 0x563dd49bd420&#45;&gt;0x563dd47fdb70 -->
<g id="edge3" class="edge">
<title>0x563dd49bd420&#45;&gt;0x563dd47fdb70</title>
<path fill="none" stroke="black" d="M126.47,-62.71C121.87,-54.47 116.11,-44.15 111.05,-35.1"/>
<polygon fill="black" stroke="black" points="114.22,-33.6 106.29,-26.57 108.11,-37.01 114.22,-33.6"/>
</g>
<!-- 0x563dd45c2a60 -->
<g id="node5" class="node">
<title>0x563dd45c2a60</title>
<polygon fill="none" stroke="black" points="198,-25 144,-25 144,0 198,0 198,-25"/>
<text text-anchor="middle" x="171" y="-8.8" font-family="Times,serif" font-size="14.00"> 0.1</text>
</g>
<!-- 0x563dd49bd420&#45;&gt;0x563dd45c2a60 -->
<g id="edge4" class="edge">
<title>0x563dd49bd420&#45;&gt;0x563dd45c2a60</title>
<path fill="none" stroke="black" d="M143.53,-62.71C148.13,-54.47 153.89,-44.15 158.95,-35.1"/>
<polygon fill="black" stroke="black" points="161.89,-37.01 163.71,-26.57 155.78,-33.6 161.89,-37.01"/>
</g>
<!-- 0x563dd4689a50 -->
<g id="node7" class="node">
<title>0x563dd4689a50</title>
<polygon fill="none" stroke="black" points="270,-25 216,-25 216,0 270,0 270,-25"/>
<text text-anchor="middle" x="243" y="-8.8" font-family="Times,serif" font-size="14.00">0.02</text>
</g>
<!-- 0x563dd49b9b40&#45;&gt;0x563dd4689a50 -->
<g id="edge6" class="edge">
<title>0x563dd49b9b40&#45;&gt;0x563dd4689a50</title>
<path fill="none" stroke="black" d="M335.98,-69.03C319.72,-59.32 293.36,-43.57 272.85,-31.32"/>
<polygon fill="black" stroke="black" points="274.71,-28.36 264.33,-26.24 271.12,-34.37 274.71,-28.36"/>
</g>
<!-- 0x563dd48bc3e0 -->
<g id="node8" class="node">
<title>0x563dd48bc3e0</title>
<polygon fill="none" stroke="black" points="342,-25 288,-25 288,0 342,0 342,-25"/>
<text text-anchor="middle" x="315" y="-8.8" font-family="Times,serif" font-size="14.00"> 0.2</text>
</g>
<!-- 0x563dd49b9b40&#45;&gt;0x563dd48bc3e0 -->
<g id="edge7" class="edge">
<title>0x563dd49b9b40&#45;&gt;0x563dd48bc3e0</title>
<path fill="none" stroke="black" d="M342.47,-62.71C337.87,-54.47 332.11,-44.15 327.05,-35.1"/>
<polygon fill="black" stroke="black" points="330.22,-33.6 322.29,-26.57 324.11,-37.01 330.22,-33.6"/>
</g>
<!-- 0x563dd493d6b0 -->
<g id="node9" class="node">
<title>0x563dd493d6b0</title>
<polygon fill="none" stroke="black" points="414,-25 360,-25 360,0 414,0 414,-25"/>
<text text-anchor="middle" x="387" y="-8.8" font-family="Times,serif" font-size="14.00">0.78</text>
</g>
<!-- 0x563dd49b9b40&#45;&gt;0x563dd493d6b0 -->
<g id="edge8" class="edge">
<title>0x563dd49b9b40&#45;&gt;0x563dd493d6b0</title>
<path fill="none" stroke="black" d="M359.53,-62.71C364.13,-54.47 369.89,-44.15 374.95,-35.1"/>
<polygon fill="black" stroke="black" points="377.89,-37.01 379.71,-26.57 371.78,-33.6 377.89,-37.01"/>
</g>
<!-- 0x563dd465ad90 -->
<g id="node11" class="node">
<title>0x563dd465ad90</title>
<polygon fill="none" stroke="black" points="486,-25 432,-25 432,0 486,0 486,-25"/>
<text text-anchor="middle" x="459" y="-8.8" font-family="Times,serif" font-size="14.00">0.33</text>
</g>
<!-- 0x563dd4873420&#45;&gt;0x563dd465ad90 -->
<g id="edge10" class="edge">
<title>0x563dd4873420&#45;&gt;0x563dd465ad90</title>
<path fill="none" stroke="black" d="M517.79,-66.17C507.34,-56.8 492.53,-43.54 480.39,-32.66"/>
<polygon fill="black" stroke="black" points="483.03,-30.33 473.25,-26.27 478.36,-35.54 483.03,-30.33"/>
</g>
<!-- 0x563dd48414b0 -->
<g id="node12" class="node">
<title>0x563dd48414b0</title>
<polygon fill="none" stroke="black" points="558,-25 504,-25 504,0 558,0 558,-25"/>
<text text-anchor="middle" x="531" y="-8.8" font-family="Times,serif" font-size="14.00">0.33</text>
</g>
<!-- 0x563dd4873420&#45;&gt;0x563dd48414b0 -->
<g id="edge11" class="edge">
<title>0x563dd4873420&#45;&gt;0x563dd48414b0</title>
<path fill="none" stroke="black" d="M531,-60.72C531,-53.37 531,-44.69 531,-36.79"/>
<polygon fill="black" stroke="black" points="534.5,-36.84 531,-26.84 527.5,-36.84 534.5,-36.84"/>
</g>
<!-- 0x563dd4841df0 -->
<g id="node13" class="node">
<title>0x563dd4841df0</title>
<polygon fill="none" stroke="black" points="630,-25 576,-25 576,0 630,0 630,-25"/>
<text text-anchor="middle" x="603" y="-8.8" font-family="Times,serif" font-size="14.00">0.34</text>
</g>
<!-- 0x563dd4873420&#45;&gt;0x563dd4841df0 -->
<g id="edge12" class="edge">
<title>0x563dd4873420&#45;&gt;0x563dd4841df0</title>
<path fill="none" stroke="black" d="M544.21,-66.17C554.66,-56.8 569.47,-43.54 581.61,-32.66"/>
<polygon fill="black" stroke="black" points="583.64,-35.54 588.75,-26.27 578.97,-30.33 583.64,-35.54"/>
</g>
<!-- 0x563dd45186e0 -->
<g id="node15" class="node">
<title>0x563dd45186e0</title>
<polygon fill="none" stroke="black" points="702,-25 648,-25 648,0 702,0 702,-25"/>
<text text-anchor="middle" x="675" y="-8.8" font-family="Times,serif" font-size="14.00">0.33</text>
</g>
<!-- 0x563dd484c820&#45;&gt;0x563dd45186e0 -->
<g id="edge14" class="edge">
<title>0x563dd484c820&#45;&gt;0x563dd45186e0</title>
<path fill="none" stroke="black" d="M702.47,-62.71C697.87,-54.47 692.11,-44.15 687.05,-35.1"/>
<polygon fill="black" stroke="black" points="690.22,-33.6 682.29,-26.57 684.11,-37.01 690.22,-33.6"/>
</g>
<!-- 0x563dd4840690 -->
<g id="node16" class="node">
<title>0x563dd4840690</title>
<polygon fill="none" stroke="black" points="774,-25 720,-25 720,0 774,0 774,-25"/>
<text text-anchor="middle" x="747" y="-8.8" font-family="Times,serif" font-size="14.00">0.33</text>
</g>
<!-- 0x563dd484c820&#45;&gt;0x563dd4840690 -->
<g id="edge15" class="edge">
<title>0x563dd484c820&#45;&gt;0x563dd4840690</title>
<path fill="none" stroke="black" d="M719.53,-62.71C724.13,-54.47 729.89,-44.15 734.95,-35.1"/>
<polygon fill="black" stroke="black" points="737.89,-37.01 739.71,-26.57 731.78,-33.6 737.89,-37.01"/>
</g>
<!-- 0x563dd4842540 -->
<g id="node17" class="node">
<title>0x563dd4842540</title>
<polygon fill="none" stroke="black" points="846,-25 792,-25 792,0 846,0 846,-25"/>
<text text-anchor="middle" x="819" y="-8.8" font-family="Times,serif" font-size="14.00">0.34</text>
</g>
<!-- 0x563dd484c820&#45;&gt;0x563dd4842540 -->
<g id="edge16" class="edge">
<title>0x563dd484c820&#45;&gt;0x563dd4842540</title>
<path fill="none" stroke="black" d="M726.02,-69.03C742.28,-59.32 768.64,-43.57 789.15,-31.32"/>
<polygon fill="black" stroke="black" points="790.88,-34.37 797.67,-26.24 787.29,-28.36 790.88,-34.37"/>
</g>
<!-- 0x563dd45bfbd0 -->
<g id="node19" class="node">
<title>0x563dd45bfbd0</title>
<polygon fill="none" stroke="black" points="918,-25 864,-25 864,0 918,0 918,-25"/>
<text text-anchor="middle" x="891" y="-8.8" font-family="Times,serif" font-size="14.00">0.95</text>
</g>
<!-- 0x563dd382d5a0&#45;&gt;0x563dd45bfbd0 -->
<g id="edge18" class="edge">
<title>0x563dd382d5a0&#45;&gt;0x563dd45bfbd0</title>
<path fill="none" stroke="black" d="M918.47,-62.71C913.87,-54.47 908.11,-44.15 903.05,-35.1"/>
<polygon fill="black" stroke="black" points="906.22,-33.6 898.29,-26.57 900.11,-37.01 906.22,-33.6"/>
</g>
<!-- 0x563dd4842060 -->
<g id="node20" class="node">
<title>0x563dd4842060</title>
<polygon fill="none" stroke="black" points="990,-25 936,-25 936,0 990,0 990,-25"/>
<text text-anchor="middle" x="963" y="-8.8" font-family="Times,serif" font-size="14.00">0.02</text>
</g>
<!-- 0x563dd382d5a0&#45;&gt;0x563dd4842060 -->
<g id="edge19" class="edge">
<title>0x563dd382d5a0&#45;&gt;0x563dd4842060</title>
<path fill="none" stroke="black" d="M935.53,-62.71C940.13,-54.47 945.89,-44.15 950.95,-35.1"/>
<polygon fill="black" stroke="black" points="953.89,-37.01 955.71,-26.57 947.78,-33.6 953.89,-37.01"/>
</g>
<!-- 0x563dd3573b50 -->
<g id="node21" class="node">
<title>0x563dd3573b50</title>
<polygon fill="none" stroke="black" points="1062,-25 1008,-25 1008,0 1062,0 1062,-25"/>
<text text-anchor="middle" x="1035" y="-8.8" font-family="Times,serif" font-size="14.00">0.03</text>
</g>
<!-- 0x563dd382d5a0&#45;&gt;0x563dd3573b50 -->
<g id="edge20" class="edge">
<title>0x563dd382d5a0&#45;&gt;0x563dd3573b50</title>
<path fill="none" stroke="black" d="M942.02,-69.03C958.28,-59.32 984.64,-43.57 1005.15,-31.32"/>
<polygon fill="black" stroke="black" points="1006.88,-34.37 1013.67,-26.24 1003.29,-28.36 1006.88,-34.37"/>
</g>
</g>
</svg>
