<?xml version="1.0" encoding="UTF-8" standalone="no"?>
<!DOCTYPE svg PUBLIC "-//W3C//DTD SVG 1.1//EN"
 "http://www.w3.org/Graphics/SVG/1.1/DTD/svg11.dtd">
<!-- Generated by graphviz version 2.50.0 (20220117.2223)
 -->
<!-- Title: G Pages: 1 -->
<svg width="1070pt" height="177pt"
 viewBox="0.00 0.00 1070.00 177.00" xmlns="http://www.w3.org/2000/svg" xmlns:xlink="http://www.w3.org/1999/xlink">
<g id="graph0" class="graph" transform="scale(1 1) rotate(0) translate(4 173)">
<title>G</title>
<polygon fill="white" stroke="transparent" points="-4,4 -4,-173 1066,-173 1066,4 -4,4"/>
<!-- 0x55ed0f4663c0 -->
<g id="node1" class="node">
<title>0x55ed0f4663c0</title>
<ellipse fill="none" stroke="black" cx="531" cy="-151" rx="18" ry="18"/>
<text text-anchor="middle" x="531" y="-147.3" font-family="Times,serif" font-size="14.00">2</text>
</g>
<!-- 0x55ed0f6cf050 -->
<g id="node2" class="node">
<title>0x55ed0f6cf050</title>
<ellipse fill="none" stroke="black" cx="135" cy="-79" rx="18" ry="18"/>
<text text-anchor="middle" x="135" y="-75.3" font-family="Times,serif" font-size="14.00">1</text>
</g>
<!-- 0x55ed0f4663c0&#45;&gt;0x55ed0f6cf050 -->
<g id="edge1" class="edge">
<title>0x55ed0f4663c0&#45;&gt;0x55ed0f6cf050</title>
<path fill="none" stroke="black" d="M513.22,-146.86C450.53,-135.78 239.53,-98.48 163.02,-84.95"/>
<polygon fill="black" stroke="black" points="163.19,-81.43 152.74,-83.14 161.97,-88.32 163.19,-81.43"/>
</g>
<!-- 0x55ed0f6b7470 -->
<g id="node6" class="node">
<title>0x55ed0f6b7470</title>
<ellipse fill="none" stroke="black" cx="351" cy="-79" rx="18" ry="18"/>
<text text-anchor="middle" x="351" y="-75.3" font-family="Times,serif" font-size="14.00">1</text>
</g>
<!-- 0x55ed0f4663c0&#45;&gt;0x55ed0f6b7470 -->
<g id="edge5" class="edge">
<title>0x55ed0f4663c0&#45;&gt;0x55ed0f6b7470</title>
<path fill="none" stroke="black" d="M514.39,-143.54C483.04,-131.35 414.96,-104.87 377.32,-90.24"/>
<polygon fill="black" stroke="black" points="378.16,-86.81 367.57,-86.44 375.62,-93.33 378.16,-86.81"/>
</g>
<!-- 0x55ed0f5a8530 -->
<g id="node10" class="node">
<title>0x55ed0f5a8530</title>
<ellipse fill="none" stroke="black" cx="531" cy="-79" rx="18" ry="18"/>
<text text-anchor="middle" x="531" y="-75.3" font-family="Times,serif" font-size="14.00">1</text>
</g>
<!-- 0x55ed0f4663c0&#45;&gt;0x55ed0f5a8530 -->
<g id="edge9" class="edge">
<title>0x55ed0f4663c0&#45;&gt;0x55ed0f5a8530</title>
<path fill="none" stroke="black" d="M531,-132.7C531,-124.98 531,-115.71 531,-107.11"/>
<polygon fill="black" stroke="black" points="534.5,-107.1 531,-97.1 527.5,-107.1 534.5,-107.1"/>
</g>
<!-- 0x55ed0f64a120 -->
<g id="node14" class="node">
<title>0x55ed0f64a120</title>
<ellipse fill="none" stroke="black" cx="711" cy="-79" rx="18" ry="18"/>
<text text-anchor="middle" x="711" y="-75.3" font-family="Times,serif" font-size="14.00">1</text>
</g>
<!-- 0x55ed0f4663c0&#45;&gt;0x55ed0f64a120 -->
<g id="edge13" class="edge">
<title>0x55ed0f4663c0&#45;&gt;0x55ed0f64a120</title>
<path fill="none" stroke="black" d="M547.61,-143.54C578.96,-131.35 647.04,-104.87 684.68,-90.24"/>
<polygon fill="black" stroke="black" points="686.38,-93.33 694.43,-86.44 683.84,-86.81 686.38,-93.33"/>
</g>
<!-- 0x55ed0f2a5010 -->
<g id="node18" class="node">
<title>0x55ed0f2a5010</title>
<ellipse fill="none" stroke="black" cx="927" cy="-79" rx="18" ry="18"/>
<text text-anchor="middle" x="927" y="-75.3" font-family="Times,serif" font-size="14.00">1</text>
</g>
<!-- 0x55ed0f4663c0&#45;&gt;0x55ed0f2a5010 -->
<g id="edge17" class="edge">
<title>0x55ed0f4663c0&#45;&gt;0x55ed0f2a5010</title>
<path fill="none" stroke="black" d="M548.78,-146.86C611.47,-135.78 822.47,-98.48 898.98,-84.95"/>
<polygon fill="black" stroke="black" points="900.03,-88.32 909.26,-83.14 898.81,-81.43 900.03,-88.32"/>
</g>
<!-- 0x55ed0f483880 -->
<g id="node3" class="node">
<title>0x55ed0f483880</title>
<polygon fill="none" stroke="black" points="54,-25 0,-25 0,0 54,0 54,-25"/>
<text text-anchor="middle" x="27" y="-8.8" font-family="Times,serif" font-size="14.00">0.02</text>
</g>
<!-- 0x55ed0f6cf050&#45;&gt;0x55ed0f483880 -->
<g id="edge2" class="edge">
<title>0x55ed0f6cf050&#45;&gt;0x55ed0f483880</title>
<path fill="none" stroke="black" d="M119.98,-69.03C103.22,-59.02 75.73,-42.6 54.98,-30.21"/>
<polygon fill="black" stroke="black" points="56.64,-27.13 46.26,-25 53.05,-33.14 56.64,-27.13"/>
</g>
<!-- 0x55ed0e796a10 -->
<g id="node4" class="node">
<title>0x55ed0e796a10</title>
<polygon fill="none" stroke="black" points="126,-25 72,-25 72,0 126,0 126,-25"/>
<text text-anchor="middle" x="99" y="-8.8" font-family="Times,serif" font-size="14.00">0.88</text>
</g>
<!-- 0x55ed0f6cf050&#45;&gt;0x55ed0e796a10 -->
<g id="edge3" class="edge">
<title>0x55ed0f6cf050&#45;&gt;0x55ed0e796a10</title>
<path fill="none" stroke="black" d="M126.65,-63.04C121.85,-54.44 115.76,-43.52 110.51,-34.12"/>
<polygon fill="black" stroke="black" points="113.55,-32.39 105.62,-25.37 107.44,-35.81 113.55,-32.39"/>
</g>
<!-- 0x55ed0f378680 -->
<g id="node5" class="node">
<title>0x55ed0f378680</title>
<polygon fill="none" stroke="black" points="198,-25 144,-25 144,0 198,0 198,-25"/>
<text text-anchor="middle" x="171" y="-8.8" font-family="Times,serif" font-size="14.00"> 0.1</text>
</g>
<!-- 0x55ed0f6cf050&#45;&gt;0x55ed0f378680 -->
<g id="edge4" class="edge">
<title>0x55ed0f6cf050&#45;&gt;0x55ed0f378680</title>
<path fill="none" stroke="black" d="M143.35,-63.04C148.15,-54.44 154.24,-43.52 159.49,-34.12"/>
<polygon fill="black" stroke="black" points="162.56,-35.81 164.38,-25.37 156.45,-32.39 162.56,-35.81"/>
</g>
<!-- 0x55ed0f9000e0 -->
<g id="node7" class="node">
<title>0x55ed0f9000e0</title>
<polygon fill="none" stroke="black" points="270,-25 216,-25 216,0 270,0 270,-25"/>
<text text-anchor="middle" x="243" y="-8.8" font-family="Times,serif" font-size="14.00">0.02</text>
</g>
<!-- 0x55ed0f6b7470&#45;&gt;0x55ed0f9000e0 -->
<g id="edge6" class="edge">
<title>0x55ed0f6b7470&#45;&gt;0x55ed0f9000e0</title>
<path fill="none" stroke="black" d="M335.98,-69.03C319.22,-59.02 291.73,-42.6 270.98,-30.21"/>
<polygon fill="black" stroke="black" points="272.64,-27.13 262.26,-25 269.05,-33.14 272.64,-27.13"/>
</g>
<!-- 0x55ed0e1ca3f0 -->
<g id="node8" class="node">
<title>0x55ed0e1ca3f0</title>
<polygon fill="none" stroke="black" points="342,-25 288,-25 288,0 342,0 342,-25"/>
<text text-anchor="middle" x="315" y="-8.8" font-family="Times,serif" font-size="14.00"> 0.2</text>
</g>
<!-- 0x55ed0f6b7470&#45;&gt;0x55ed0e1ca3f0 -->
<g id="edge7" class="edge">
<title>0x55ed0f6b7470&#45;&gt;0x55ed0e1ca3f0</title>
<path fill="none" stroke="black" d="M342.65,-63.04C337.85,-54.44 331.76,-43.52 326.51,-34.12"/>
<polygon fill="black" stroke="black" points="329.55,-32.39 321.62,-25.37 323.44,-35.81 329.55,-32.39"/>
</g>
<!-- 0x55ed0f603f70 -->
<g id="node9" class="node">
<title>0x55ed0f603f70</title>
<polygon fill="none" stroke="black" points="414,-25 360,-25 360,0 414,0 414,-25"/>
<text text-anchor="middle" x="387" y="-8.8" font-family="Times,serif" font-size="14.00">0.78</text>
</g>
<!-- 0x55ed0f6b7470&#45;&gt;0x55ed0f603f70 -->
<g id="edge8" class="edge">
<title>0x55ed0f6b7470&#45;&gt;0x55ed0f603f70</title>
<path fill="none" stroke="black" d="M359.35,-63.04C364.15,-54.44 370.24,-43.52 375.49,-34.12"/>
<polygon fill="black" stroke="black" points="378.56,-35.81 380.38,-25.37 372.45,-32.39 378.56,-35.81"/>
</g>
<!-- 0x55ed0f550890 -->
<g id="node11" class="node">
<title>0x55ed0f550890</title>
<polygon fill="none" stroke="black" points="486,-25 432,-25 432,0 486,0 486,-25"/>
<text text-anchor="middle" x="459" y="-8.8" font-family="Times,serif" font-size="14.00">0.33</text>
</g>
<!-- 0x55ed0f5a8530&#45;&gt;0x55ed0f550890 -->
<g id="edge10" class="edge">
<title>0x55ed0f5a8530&#45;&gt;0x55ed0f550890</title>
<path fill="none" stroke="black" d="M517.79,-66.17C507.14,-56.62 491.95,-43.02 479.69,-32.03"/>
<polygon fill="black" stroke="black" points="481.91,-29.32 472.12,-25.26 477.24,-34.53 481.91,-29.32"/>
</g>
<!-- 0x55ed0f559020 -->
<g id="node12" class="node">
<title>0x55ed0f559020</title>
<polygon fill="none" stroke="black" points="558,-25 504,-25 504,0 558,0 558,-25"/>
<text text-anchor="middle" x="531" y="-8.8" font-family="Times,serif" font-size="14.00">0.33</text>
</g>
<!-- 0x55ed0f5a8530&#45;&gt;0x55ed0f559020 -->
<g id="edge11" class="edge">
<title>0x55ed0f5a8530&#45;&gt;0x55ed0f559020</title>
<path fill="none" stroke="black" d="M531,-60.72C531,-52.93 531,-43.65 531,-35.39"/>
<polygon fill="black" stroke="black" points="534.5,-35.32 531,-25.32 527.5,-35.32 534.5,-35.32"/>
</g>
<!-- 0x55ed0f615830 -->
<g id="node13" class="node">
<title>0x55ed0f615830</title>
<polygon fill="none" stroke="black" points="630,-25 576,-25 576,0 630,0 630,-25"/>
<text text-anchor="middle" x="603" y="-8.8" font-family="Times,serif" font-size="14.00">0.34</text>
</g>
<!-- 0x55ed0f5a8530&#45;&gt;0x55ed0f615830 -->
<g id="edge12" class="edge">
<title>0x55ed0f5a8530&#45;&gt;0x55ed0f615830</title>
<path fill="none" stroke="black" d="M544.21,-66.17C554.86,-56.62 570.05,-43.02 582.31,-32.03"/>
<polygon fill="black" stroke="black" points="584.76,-34.53 589.88,-25.26 580.09,-29.32 584.76,-34.53"/>
</g>
<!-- 0x55ed0f333380 -->
<g id="node15" class="node">
<title>0x55ed0f333380</title>
<polygon fill="none" stroke="black" points="702,-25 648,-25 648,0 702,0 702,-25"/>
<text text-anchor="middle" x="675" y="-8.8" font-family="Times,serif" font-size="14.00">0.33</text>
</g>
<!-- 0x55ed0f64a120&#45;&gt;0x55ed0f333380 -->
<g id="edge14" class="edge">
<title>0x55ed0f64a120&#45;&gt;0x55ed0f333380</title>
<path fill="none" stroke="black" d="M702.65,-63.04C697.85,-54.44 691.76,-43.52 686.51,-34.12"/>
<polygon fill="black" stroke="black" points="689.55,-32.39 681.62,-25.37 683.44,-35.81 689.55,-32.39"/>
</g>
<!-- 0x55ed0f4f5590 -->
<g id="node16" class="node">
<title>0x55ed0f4f5590</title>
<polygon fill="none" stroke="black" points="774,-25 720,-25 720,0 774,0 774,-25"/>
<text text-anchor="middle" x="747" y="-8.8" font-family="Times,serif" font-size="14.00">0.33</text>
</g>
<!-- 0x55ed0f64a120&#45;&gt;0x55ed0f4f5590 -->
<g id="edge15" class="edge">
<title>0x55ed0f64a120&#45;&gt;0x55ed0f4f5590</title>
<path fill="none" stroke="black" d="M719.35,-63.04C724.15,-54.44 730.24,-43.52 735.49,-34.12"/>
<polygon fill="black" stroke="black" points="738.56,-35.81 740.38,-25.37 732.45,-32.39 738.56,-35.81"/>
</g>
<!-- 0x55ed0f4cd4b0 -->
<g id="node17" class="node">
<title>0x55ed0f4cd4b0</title>
<polygon fill="none" stroke="black" points="846,-25 792,-25 792,0 846,0 846,-25"/>
<text text-anchor="middle" x="819" y="-8.8" font-family="Times,serif" font-size="14.00">0.34</text>
</g>
<!-- 0x55ed0f64a120&#45;&gt;0x55ed0f4cd4b0 -->
<g id="edge16" class="edge">
<title>0x55ed0f64a120&#45;&gt;0x55ed0f4cd4b0</title>
<path fill="none" stroke="black" d="M726.02,-69.03C742.78,-59.02 770.27,-42.6 791.02,-30.21"/>
<polygon fill="black" stroke="black" points="792.95,-33.14 799.74,-25 789.36,-27.13 792.95,-33.14"/>
</g>
<!-- 0x55ed0f73da40 -->
<g id="node19" class="node">
<title>0x55ed0f73da40</title>
<polygon fill="none" stroke="black" points="918,-25 864,-25 864,0 918,0 918,-25"/>
<text text-anchor="middle" x="891" y="-8.8" font-family="Times,serif" font-size="14.00">0.95</text>
</g>
<!-- 0x55ed0f2a5010&#45;&gt;0x55ed0f73da40 -->
<g id="edge18" class="edge">
<title>0x55ed0f2a5010&#45;&gt;0x55ed0f73da40</title>
<path fill="none" stroke="black" d="M918.65,-63.04C913.85,-54.44 907.76,-43.52 902.51,-34.12"/>
<polygon fill="black" stroke="black" points="905.55,-32.39 897.62,-25.37 899.44,-35.81 905.55,-32.39"/>
</g>
<!-- 0x55ed0f723ff0 -->
<g id="node20" class="node">
<title>0x55ed0f723ff0</title>
<polygon fill="none" stroke="black" points="990,-25 936,-25 936,0 990,0 990,-25"/>
<text text-anchor="middle" x="963" y="-8.8" font-family="Times,serif" font-size="14.00">0.02</text>
</g>
<!-- 0x55ed0f2a5010&#45;&gt;0x55ed0f723ff0 -->
<g id="edge19" class="edge">
<title>0x55ed0f2a5010&#45;&gt;0x55ed0f723ff0</title>
<path fill="none" stroke="black" d="M935.35,-63.04C940.15,-54.44 946.24,-43.52 951.49,-34.12"/>
<polygon fill="black" stroke="black" points="954.56,-35.81 956.38,-25.37 948.45,-32.39 954.56,-35.81"/>
</g>
<!-- 0x55ed0f65ef00 -->
<g id="node21" class="node">
<title>0x55ed0f65ef00</title>
<polygon fill="none" stroke="black" points="1062,-25 1008,-25 1008,0 1062,0 1062,-25"/>
<text text-anchor="middle" x="1035" y="-8.8" font-family="Times,serif" font-size="14.00">0.03</text>
</g>
<!-- 0x55ed0f2a5010&#45;&gt;0x55ed0f65ef00 -->
<g id="edge20" class="edge">
<title>0x55ed0f2a5010&#45;&gt;0x55ed0f65ef00</title>
<path fill="none" stroke="black" d="M942.02,-69.03C958.78,-59.02 986.27,-42.6 1007.02,-30.21"/>
<polygon fill="black" stroke="black" points="1008.95,-33.14 1015.74,-25 1005.36,-27.13 1008.95,-33.14"/>
</g>
</g>
</svg>
