<?xml version="1.0" encoding="UTF-8" standalone="no"?>
<!DOCTYPE svg PUBLIC "-//W3C//DTD SVG 1.1//EN"
 "http://www.w3.org/Graphics/SVG/1.1/DTD/svg11.dtd">
<!-- Generated by graphviz version 2.50.0 (20211209.0339)
 -->
<!-- Title: G Pages: 1 -->
<svg width="638pt" height="177pt"
 viewBox="0.00 0.00 638.00 177.00" xmlns="http://www.w3.org/2000/svg" xmlns:xlink="http://www.w3.org/1999/xlink">
<g id="graph0" class="graph" transform="scale(1 1) rotate(0) translate(4 173)">
<title>G</title>
<polygon fill="white" stroke="transparent" points="-4,4 -4,-173 634,-173 634,4 -4,4"/>
<!-- 0x562c52b37050 -->
<g id="node1" class="node">
<title>0x562c52b37050</title>
<ellipse fill="none" stroke="black" cx="378" cy="-151" rx="18" ry="18"/>
<text text-anchor="middle" x="378" y="-147.3" font-family="Times,serif" font-size="14.00">2</text>
</g>
<!-- 0x562c52e53e20 -->
<g id="node2" class="node">
<title>0x562c52e53e20</title>
<ellipse fill="none" stroke="black" cx="135" cy="-79" rx="18" ry="18"/>
<text text-anchor="middle" x="135" y="-75.3" font-family="Times,serif" font-size="14.00">1</text>
</g>
<!-- 0x562c52b37050&#45;&gt;0x562c52e53e20 -->
<g id="edge1" class="edge">
<title>0x562c52b37050&#45;&gt;0x562c52e53e20</title>
<path fill="none" stroke="black" d="M360.91,-145.08C319.26,-133.08 212.22,-102.24 161.9,-87.75"/>
<polygon fill="black" stroke="black" points="162.65,-84.32 152.07,-84.92 160.71,-91.05 162.65,-84.32"/>
</g>
<!-- 0x562c52a7f330 -->
<g id="node6" class="node">
<title>0x562c52a7f330</title>
<ellipse fill="none" stroke="black" cx="315" cy="-79" rx="18" ry="18"/>
<text text-anchor="middle" x="315" y="-75.3" font-family="Times,serif" font-size="14.00">1</text>
</g>
<!-- 0x562c52b37050&#45;&gt;0x562c52a7f330 -->
<g id="edge5" class="edge">
<title>0x562c52b37050&#45;&gt;0x562c52a7f330</title>
<path fill="none" stroke="black" d="M366.44,-137.16C357.32,-127.03 344.41,-112.68 333.81,-100.9"/>
<polygon fill="black" stroke="black" points="336.2,-98.32 326.91,-93.23 331,-103.01 336.2,-98.32"/>
</g>
<!-- 0x562c5309f550 -->
<g id="node10" class="node">
<title>0x562c5309f550</title>
<polygon fill="none" stroke="black" points="405,-91.5 351,-91.5 351,-66.5 405,-66.5 405,-91.5"/>
<text text-anchor="middle" x="378" y="-75.3" font-family="Times,serif" font-size="14.00">0.33</text>
</g>
<!-- 0x562c52b37050&#45;&gt;0x562c5309f550 -->
<g id="edge9" class="edge">
<title>0x562c52b37050&#45;&gt;0x562c5309f550</title>
<path fill="none" stroke="black" d="M378,-132.7C378,-123.4 378,-111.85 378,-101.93"/>
<polygon fill="black" stroke="black" points="381.5,-101.63 378,-91.63 374.5,-101.63 381.5,-101.63"/>
</g>
<!-- 0x562c52be21a0 -->
<g id="node11" class="node">
<title>0x562c52be21a0</title>
<polygon fill="none" stroke="black" points="477,-91.5 423,-91.5 423,-66.5 477,-66.5 477,-91.5"/>
<text text-anchor="middle" x="450" y="-75.3" font-family="Times,serif" font-size="14.00">0.33</text>
</g>
<!-- 0x562c52b37050&#45;&gt;0x562c52be21a0 -->
<g id="edge10" class="edge">
<title>0x562c52b37050&#45;&gt;0x562c52be21a0</title>
<path fill="none" stroke="black" d="M390.54,-137.81C401.62,-127.04 417.94,-111.17 430.69,-98.78"/>
<polygon fill="black" stroke="black" points="433.35,-101.07 438.08,-91.59 428.47,-96.05 433.35,-101.07"/>
</g>
<!-- 0x562c52db7400 -->
<g id="node12" class="node">
<title>0x562c52db7400</title>
<ellipse fill="none" stroke="black" cx="522" cy="-79" rx="18" ry="18"/>
<text text-anchor="middle" x="522" y="-75.3" font-family="Times,serif" font-size="14.00">1</text>
</g>
<!-- 0x562c52b37050&#45;&gt;0x562c52db7400 -->
<g id="edge11" class="edge">
<title>0x562c52b37050&#45;&gt;0x562c52db7400</title>
<path fill="none" stroke="black" d="M393.96,-142.24C418.83,-130.15 467.04,-106.72 496.69,-92.31"/>
<polygon fill="black" stroke="black" points="498.5,-95.31 505.97,-87.79 495.44,-89.02 498.5,-95.31"/>
</g>
<!-- 0x562c52c855f0 -->
<g id="node3" class="node">
<title>0x562c52c855f0</title>
<polygon fill="none" stroke="black" points="54,-25 0,-25 0,0 54,0 54,-25"/>
<text text-anchor="middle" x="27" y="-8.8" font-family="Times,serif" font-size="14.00">0.02</text>
</g>
<!-- 0x562c52e53e20&#45;&gt;0x562c52c855f0 -->
<g id="edge2" class="edge">
<title>0x562c52e53e20&#45;&gt;0x562c52c855f0</title>
<path fill="none" stroke="black" d="M119.98,-69.03C103.22,-59.02 75.73,-42.6 54.98,-30.21"/>
<polygon fill="black" stroke="black" points="56.64,-27.13 46.26,-25 53.05,-33.14 56.64,-27.13"/>
</g>
<!-- 0x562c52cc1090 -->
<g id="node4" class="node">
<title>0x562c52cc1090</title>
<polygon fill="none" stroke="black" points="126,-25 72,-25 72,0 126,0 126,-25"/>
<text text-anchor="middle" x="99" y="-8.8" font-family="Times,serif" font-size="14.00">0.88</text>
</g>
<!-- 0x562c52e53e20&#45;&gt;0x562c52cc1090 -->
<g id="edge3" class="edge">
<title>0x562c52e53e20&#45;&gt;0x562c52cc1090</title>
<path fill="none" stroke="black" d="M126.65,-63.04C121.85,-54.44 115.76,-43.52 110.51,-34.12"/>
<polygon fill="black" stroke="black" points="113.55,-32.39 105.62,-25.37 107.44,-35.81 113.55,-32.39"/>
</g>
<!-- 0x562c530aa5e0 -->
<g id="node5" class="node">
<title>0x562c530aa5e0</title>
<polygon fill="none" stroke="black" points="198,-25 144,-25 144,0 198,0 198,-25"/>
<text text-anchor="middle" x="171" y="-8.8" font-family="Times,serif" font-size="14.00"> 0.1</text>
</g>
<!-- 0x562c52e53e20&#45;&gt;0x562c530aa5e0 -->
<g id="edge4" class="edge">
<title>0x562c52e53e20&#45;&gt;0x562c530aa5e0</title>
<path fill="none" stroke="black" d="M143.35,-63.04C148.15,-54.44 154.24,-43.52 159.49,-34.12"/>
<polygon fill="black" stroke="black" points="162.56,-35.81 164.38,-25.37 156.45,-32.39 162.56,-35.81"/>
</g>
<!-- 0x562c52c10580 -->
<g id="node7" class="node">
<title>0x562c52c10580</title>
<polygon fill="none" stroke="black" points="270,-25 216,-25 216,0 270,0 270,-25"/>
<text text-anchor="middle" x="243" y="-8.8" font-family="Times,serif" font-size="14.00">0.02</text>
</g>
<!-- 0x562c52a7f330&#45;&gt;0x562c52c10580 -->
<g id="edge6" class="edge">
<title>0x562c52a7f330&#45;&gt;0x562c52c10580</title>
<path fill="none" stroke="black" d="M301.79,-66.17C291.14,-56.62 275.95,-43.02 263.69,-32.03"/>
<polygon fill="black" stroke="black" points="265.91,-29.32 256.12,-25.26 261.24,-34.53 265.91,-29.32"/>
</g>
<!-- 0x562c52eab070 -->
<g id="node8" class="node">
<title>0x562c52eab070</title>
<polygon fill="none" stroke="black" points="342,-25 288,-25 288,0 342,0 342,-25"/>
<text text-anchor="middle" x="315" y="-8.8" font-family="Times,serif" font-size="14.00"> 0.2</text>
</g>
<!-- 0x562c52a7f330&#45;&gt;0x562c52eab070 -->
<g id="edge7" class="edge">
<title>0x562c52a7f330&#45;&gt;0x562c52eab070</title>
<path fill="none" stroke="black" d="M315,-60.72C315,-52.93 315,-43.65 315,-35.39"/>
<polygon fill="black" stroke="black" points="318.5,-35.32 315,-25.32 311.5,-35.32 318.5,-35.32"/>
</g>
<!-- 0x562c52cff930 -->
<g id="node9" class="node">
<title>0x562c52cff930</title>
<polygon fill="none" stroke="black" points="414,-25 360,-25 360,0 414,0 414,-25"/>
<text text-anchor="middle" x="387" y="-8.8" font-family="Times,serif" font-size="14.00">0.78</text>
</g>
<!-- 0x562c52a7f330&#45;&gt;0x562c52cff930 -->
<g id="edge8" class="edge">
<title>0x562c52a7f330&#45;&gt;0x562c52cff930</title>
<path fill="none" stroke="black" d="M328.21,-66.17C338.86,-56.62 354.05,-43.02 366.31,-32.03"/>
<polygon fill="black" stroke="black" points="368.76,-34.53 373.88,-25.26 364.09,-29.32 368.76,-34.53"/>
</g>
<!-- 0x562c52ebce60 -->
<g id="node13" class="node">
<title>0x562c52ebce60</title>
<polygon fill="none" stroke="black" points="486,-25 432,-25 432,0 486,0 486,-25"/>
<text text-anchor="middle" x="459" y="-8.8" font-family="Times,serif" font-size="14.00">0.95</text>
</g>
<!-- 0x562c52db7400&#45;&gt;0x562c52ebce60 -->
<g id="edge12" class="edge">
<title>0x562c52db7400&#45;&gt;0x562c52ebce60</title>
<path fill="none" stroke="black" d="M509.85,-65.56C500.65,-56.14 487.84,-43.02 477.38,-32.32"/>
<polygon fill="black" stroke="black" points="479.75,-29.74 470.26,-25.03 474.75,-34.63 479.75,-29.74"/>
</g>
<!-- 0x562c52f11d00 -->
<g id="node14" class="node">
<title>0x562c52f11d00</title>
<polygon fill="none" stroke="black" points="558,-25 504,-25 504,0 558,0 558,-25"/>
<text text-anchor="middle" x="531" y="-8.8" font-family="Times,serif" font-size="14.00">0.02</text>
</g>
<!-- 0x562c52db7400&#45;&gt;0x562c52f11d00 -->
<g id="edge13" class="edge">
<title>0x562c52db7400&#45;&gt;0x562c52f11d00</title>
<path fill="none" stroke="black" d="M524.36,-61.05C525.48,-53.08 526.82,-43.47 528,-34.99"/>
<polygon fill="black" stroke="black" points="531.47,-35.44 529.39,-25.05 524.54,-34.47 531.47,-35.44"/>
</g>
<!-- 0x562c52f2a730 -->
<g id="node15" class="node">
<title>0x562c52f2a730</title>
<polygon fill="none" stroke="black" points="630,-25 576,-25 576,0 630,0 630,-25"/>
<text text-anchor="middle" x="603" y="-8.8" font-family="Times,serif" font-size="14.00">0.03</text>
</g>
<!-- 0x562c52db7400&#45;&gt;0x562c52f2a730 -->
<g id="edge14" class="edge">
<title>0x562c52db7400&#45;&gt;0x562c52f2a730</title>
<path fill="none" stroke="black" d="M535.74,-67.06C547.97,-57.32 566.08,-42.9 580.43,-31.47"/>
<polygon fill="black" stroke="black" points="582.73,-34.12 588.37,-25.15 578.37,-28.64 582.73,-34.12"/>
</g>
</g>
</svg>
