<?xml version="1.0" encoding="UTF-8" standalone="no"?>
<!DOCTYPE svg PUBLIC "-//W3C//DTD SVG 1.1//EN"
 "http://www.w3.org/Graphics/SVG/1.1/DTD/svg11.dtd">
<!-- Generated by graphviz version 2.50.0 (20211209.0339)
 -->
<!-- Title: G Pages: 1 -->
<svg width="710pt" height="177pt"
 viewBox="0.00 0.00 710.00 177.00" xmlns="http://www.w3.org/2000/svg" xmlns:xlink="http://www.w3.org/1999/xlink">
<g id="graph0" class="graph" transform="scale(1 1) rotate(0) translate(4 173)">
<title>G</title>
<polygon fill="white" stroke="transparent" points="-4,4 -4,-173 706,-173 706,4 -4,4"/>
<!-- 0x56517e1e87c0 -->
<g id="node1" class="node">
<title>0x56517e1e87c0</title>
<ellipse fill="none" stroke="black" cx="351" cy="-151" rx="18" ry="18"/>
<text text-anchor="middle" x="351" y="-147.3" font-family="Times,serif" font-size="14.00">2</text>
</g>
<!-- 0x56517e0794a0 -->
<g id="node2" class="node">
<title>0x56517e0794a0</title>
<ellipse fill="none" stroke="black" cx="99" cy="-79" rx="18" ry="18"/>
<text text-anchor="middle" x="99" y="-75.3" font-family="Times,serif" font-size="14.00">0</text>
</g>
<!-- 0x56517e1e87c0&#45;&gt;0x56517e0794a0 -->
<g id="edge1" class="edge">
<title>0x56517e1e87c0&#45;&gt;0x56517e0794a0</title>
<path fill="none" stroke="black" d="M333.68,-145.19C290.51,-133.2 177.86,-101.91 125.93,-87.48"/>
<polygon fill="black" stroke="black" points="126.68,-84.06 116.11,-84.75 124.81,-90.8 126.68,-84.06"/>
</g>
<!-- 0x56517d0d97f0 -->
<g id="node5" class="node">
<title>0x56517d0d97f0</title>
<ellipse fill="none" stroke="black" cx="243" cy="-79" rx="18" ry="18"/>
<text text-anchor="middle" x="243" y="-75.3" font-family="Times,serif" font-size="14.00">0</text>
</g>
<!-- 0x56517e1e87c0&#45;&gt;0x56517d0d97f0 -->
<g id="edge4" class="edge">
<title>0x56517e1e87c0&#45;&gt;0x56517d0d97f0</title>
<path fill="none" stroke="black" d="M335.98,-140.27C317.93,-128.56 287.43,-108.79 266.3,-95.1"/>
<polygon fill="black" stroke="black" points="268.18,-92.15 257.89,-89.65 264.38,-98.03 268.18,-92.15"/>
</g>
<!-- 0x56517e36e530 -->
<g id="node8" class="node">
<title>0x56517e36e530</title>
<ellipse fill="none" stroke="black" cx="351" cy="-79" rx="18" ry="18"/>
<text text-anchor="middle" x="351" y="-75.3" font-family="Times,serif" font-size="14.00">0</text>
</g>
<!-- 0x56517e1e87c0&#45;&gt;0x56517e36e530 -->
<g id="edge7" class="edge">
<title>0x56517e1e87c0&#45;&gt;0x56517e36e530</title>
<path fill="none" stroke="black" d="M351,-132.7C351,-124.98 351,-115.71 351,-107.11"/>
<polygon fill="black" stroke="black" points="354.5,-107.1 351,-97.1 347.5,-107.1 354.5,-107.1"/>
</g>
<!-- 0x56517e363b10 -->
<g id="node11" class="node">
<title>0x56517e363b10</title>
<ellipse fill="none" stroke="black" cx="459" cy="-79" rx="18" ry="18"/>
<text text-anchor="middle" x="459" y="-75.3" font-family="Times,serif" font-size="14.00">0</text>
</g>
<!-- 0x56517e1e87c0&#45;&gt;0x56517e363b10 -->
<g id="edge10" class="edge">
<title>0x56517e1e87c0&#45;&gt;0x56517e363b10</title>
<path fill="none" stroke="black" d="M366.02,-140.27C384.07,-128.56 414.57,-108.79 435.7,-95.1"/>
<polygon fill="black" stroke="black" points="437.62,-98.03 444.11,-89.65 433.82,-92.15 437.62,-98.03"/>
</g>
<!-- 0x56517e361cc0 -->
<g id="node14" class="node">
<title>0x56517e361cc0</title>
<ellipse fill="none" stroke="black" cx="603" cy="-79" rx="18" ry="18"/>
<text text-anchor="middle" x="603" y="-75.3" font-family="Times,serif" font-size="14.00">0</text>
</g>
<!-- 0x56517e1e87c0&#45;&gt;0x56517e361cc0 -->
<g id="edge13" class="edge">
<title>0x56517e1e87c0&#45;&gt;0x56517e361cc0</title>
<path fill="none" stroke="black" d="M368.32,-145.19C411.49,-133.2 524.14,-101.91 576.07,-87.48"/>
<polygon fill="black" stroke="black" points="577.19,-90.8 585.89,-84.75 575.32,-84.06 577.19,-90.8"/>
</g>
<!-- 0x56517e19f410 -->
<g id="node3" class="node">
<title>0x56517e19f410</title>
<polygon fill="none" stroke="black" points="54,-25 0,-25 0,0 54,0 54,-25"/>
<text text-anchor="middle" x="27" y="-8.8" font-family="Times,serif" font-size="14.00">0.99</text>
</g>
<!-- 0x56517e0794a0&#45;&gt;0x56517e19f410 -->
<g id="edge2" class="edge">
<title>0x56517e0794a0&#45;&gt;0x56517e19f410</title>
<path fill="none" stroke="black" stroke-dasharray="5,2" d="M85.79,-66.17C75.14,-56.62 59.95,-43.02 47.69,-32.03"/>
<polygon fill="black" stroke="black" points="49.91,-29.32 40.12,-25.26 45.24,-34.53 49.91,-29.32"/>
</g>
<!-- 0x56517e0f7650 -->
<g id="node4" class="node">
<title>0x56517e0f7650</title>
<polygon fill="none" stroke="black" points="126,-25 72,-25 72,0 126,0 126,-25"/>
<text text-anchor="middle" x="99" y="-8.8" font-family="Times,serif" font-size="14.00">0.01</text>
</g>
<!-- 0x56517e0794a0&#45;&gt;0x56517e0f7650 -->
<g id="edge3" class="edge">
<title>0x56517e0794a0&#45;&gt;0x56517e0f7650</title>
<path fill="none" stroke="black" d="M99,-60.72C99,-52.93 99,-43.65 99,-35.39"/>
<polygon fill="black" stroke="black" points="102.5,-35.32 99,-25.32 95.5,-35.32 102.5,-35.32"/>
</g>
<!-- 0x56517e20abf0 -->
<g id="node6" class="node">
<title>0x56517e20abf0</title>
<polygon fill="none" stroke="black" points="198,-25 144,-25 144,0 198,0 198,-25"/>
<text text-anchor="middle" x="171" y="-8.8" font-family="Times,serif" font-size="14.00">0.99</text>
</g>
<!-- 0x56517d0d97f0&#45;&gt;0x56517e20abf0 -->
<g id="edge5" class="edge">
<title>0x56517d0d97f0&#45;&gt;0x56517e20abf0</title>
<path fill="none" stroke="black" stroke-dasharray="5,2" d="M229.79,-66.17C219.14,-56.62 203.95,-43.02 191.69,-32.03"/>
<polygon fill="black" stroke="black" points="193.91,-29.32 184.12,-25.26 189.24,-34.53 193.91,-29.32"/>
</g>
<!-- 0x56517e207720 -->
<g id="node7" class="node">
<title>0x56517e207720</title>
<polygon fill="none" stroke="black" points="270,-25 216,-25 216,0 270,0 270,-25"/>
<text text-anchor="middle" x="243" y="-8.8" font-family="Times,serif" font-size="14.00">0.01</text>
</g>
<!-- 0x56517d0d97f0&#45;&gt;0x56517e207720 -->
<g id="edge6" class="edge">
<title>0x56517d0d97f0&#45;&gt;0x56517e207720</title>
<path fill="none" stroke="black" d="M243,-60.72C243,-52.93 243,-43.65 243,-35.39"/>
<polygon fill="black" stroke="black" points="246.5,-35.32 243,-25.32 239.5,-35.32 246.5,-35.32"/>
</g>
<!-- 0x56517e1c7770 -->
<g id="node9" class="node">
<title>0x56517e1c7770</title>
<polygon fill="none" stroke="black" points="342,-25 288,-25 288,0 342,0 342,-25"/>
<text text-anchor="middle" x="315" y="-8.8" font-family="Times,serif" font-size="14.00"> 0.1</text>
</g>
<!-- 0x56517e36e530&#45;&gt;0x56517e1c7770 -->
<g id="edge8" class="edge">
<title>0x56517e36e530&#45;&gt;0x56517e1c7770</title>
<path fill="none" stroke="black" stroke-dasharray="5,2" d="M342.65,-63.04C337.85,-54.44 331.76,-43.52 326.51,-34.12"/>
<polygon fill="black" stroke="black" points="329.55,-32.39 321.62,-25.37 323.44,-35.81 329.55,-32.39"/>
</g>
<!-- 0x56517e1d9c00 -->
<g id="node10" class="node">
<title>0x56517e1d9c00</title>
<polygon fill="none" stroke="black" points="414,-25 360,-25 360,0 414,0 414,-25"/>
<text text-anchor="middle" x="387" y="-8.8" font-family="Times,serif" font-size="14.00"> 0.9</text>
</g>
<!-- 0x56517e36e530&#45;&gt;0x56517e1d9c00 -->
<g id="edge9" class="edge">
<title>0x56517e36e530&#45;&gt;0x56517e1d9c00</title>
<path fill="none" stroke="black" d="M359.35,-63.04C364.15,-54.44 370.24,-43.52 375.49,-34.12"/>
<polygon fill="black" stroke="black" points="378.56,-35.81 380.38,-25.37 372.45,-32.39 378.56,-35.81"/>
</g>
<!-- 0x56517e1740a0 -->
<g id="node12" class="node">
<title>0x56517e1740a0</title>
<polygon fill="none" stroke="black" points="486,-25 432,-25 432,0 486,0 486,-25"/>
<text text-anchor="middle" x="459" y="-8.8" font-family="Times,serif" font-size="14.00">0.15</text>
</g>
<!-- 0x56517e363b10&#45;&gt;0x56517e1740a0 -->
<g id="edge11" class="edge">
<title>0x56517e363b10&#45;&gt;0x56517e1740a0</title>
<path fill="none" stroke="black" stroke-dasharray="5,2" d="M459,-60.72C459,-52.93 459,-43.65 459,-35.39"/>
<polygon fill="black" stroke="black" points="462.5,-35.32 459,-25.32 455.5,-35.32 462.5,-35.32"/>
</g>
<!-- 0x56517e232ad0 -->
<g id="node13" class="node">
<title>0x56517e232ad0</title>
<polygon fill="none" stroke="black" points="558,-25 504,-25 504,0 558,0 558,-25"/>
<text text-anchor="middle" x="531" y="-8.8" font-family="Times,serif" font-size="14.00">0.85</text>
</g>
<!-- 0x56517e363b10&#45;&gt;0x56517e232ad0 -->
<g id="edge12" class="edge">
<title>0x56517e363b10&#45;&gt;0x56517e232ad0</title>
<path fill="none" stroke="black" d="M472.21,-66.17C482.86,-56.62 498.05,-43.02 510.31,-32.03"/>
<polygon fill="black" stroke="black" points="512.76,-34.53 517.88,-25.26 508.09,-29.32 512.76,-34.53"/>
</g>
<!-- 0x56517e219720 -->
<g id="node15" class="node">
<title>0x56517e219720</title>
<polygon fill="none" stroke="black" points="630,-25 576,-25 576,0 630,0 630,-25"/>
<text text-anchor="middle" x="603" y="-8.8" font-family="Times,serif" font-size="14.00">0.95</text>
</g>
<!-- 0x56517e361cc0&#45;&gt;0x56517e219720 -->
<g id="edge14" class="edge">
<title>0x56517e361cc0&#45;&gt;0x56517e219720</title>
<path fill="none" stroke="black" stroke-dasharray="5,2" d="M603,-60.72C603,-52.93 603,-43.65 603,-35.39"/>
<polygon fill="black" stroke="black" points="606.5,-35.32 603,-25.32 599.5,-35.32 606.5,-35.32"/>
</g>
<!-- 0x56517e37bca0 -->
<g id="node16" class="node">
<title>0x56517e37bca0</title>
<polygon fill="none" stroke="black" points="702,-25 648,-25 648,0 702,0 702,-25"/>
<text text-anchor="middle" x="675" y="-8.8" font-family="Times,serif" font-size="14.00">0.05</text>
</g>
<!-- 0x56517e361cc0&#45;&gt;0x56517e37bca0 -->
<g id="edge15" class="edge">
<title>0x56517e361cc0&#45;&gt;0x56517e37bca0</title>
<path fill="none" stroke="black" d="M616.21,-66.17C626.86,-56.62 642.05,-43.02 654.31,-32.03"/>
<polygon fill="black" stroke="black" points="656.76,-34.53 661.88,-25.26 652.09,-29.32 656.76,-34.53"/>
</g>
</g>
</svg>
