<?xml version="1.0" encoding="UTF-8" standalone="no"?>
<!DOCTYPE svg PUBLIC "-//W3C//DTD SVG 1.1//EN"
 "http://www.w3.org/Graphics/SVG/1.1/DTD/svg11.dtd">
<!-- Generated by graphviz version 3.0.0 (20220315.2325)
 -->
<!-- Title: G Pages: 1 -->
<svg width="350pt" height="105pt"
 viewBox="0.00 0.00 350.00 105.00" xmlns="http://www.w3.org/2000/svg" xmlns:xlink="http://www.w3.org/1999/xlink">
<g id="graph0" class="graph" transform="scale(1 1) rotate(0) translate(4 101)">
<title>G</title>
<polygon fill="white" stroke="transparent" points="-4,4 -4,-101 346,-101 346,4 -4,4"/>
<!-- 0x55db5e4468e0 -->
<g id="node1" class="node">
<title>0x55db5e4468e0</title>
<ellipse fill="none" stroke="black" cx="171" cy="-79" rx="18" ry="18"/>
<text text-anchor="middle" x="171" y="-75.3" font-family="Times,serif" font-size="14.00">2</text>
</g>
<!-- 0x55db5de74db0 -->
<g id="node2" class="node">
<title>0x55db5de74db0</title>
<polygon fill="none" stroke="black" points="54,-25 0,-25 0,0 54,0 54,-25"/>
<text text-anchor="middle" x="27" y="-8.8" font-family="Times,serif" font-size="14.00">0.99</text>
</g>
<!-- 0x55db5e4468e0&#45;&gt;0x55db5de74db0 -->
<g id="edge1" class="edge">
<title>0x55db5e4468e0&#45;&gt;0x55db5de74db0</title>
<path fill="none" stroke="black" d="M154.76,-70.73C132.39,-60.71 91.53,-42.4 62.03,-29.19"/>
<polygon fill="black" stroke="black" points="63.44,-25.99 52.89,-25.1 60.58,-32.38 63.44,-25.99"/>
</g>
<!-- 0x55db5deafd30 -->
<g id="node3" class="node">
<title>0x55db5deafd30</title>
<polygon fill="none" stroke="black" points="126,-25 72,-25 72,0 126,0 126,-25"/>
<text text-anchor="middle" x="99" y="-8.8" font-family="Times,serif" font-size="14.00">0.99</text>
</g>
<!-- 0x55db5e4468e0&#45;&gt;0x55db5deafd30 -->
<g id="edge2" class="edge">
<title>0x55db5e4468e0&#45;&gt;0x55db5deafd30</title>
<path fill="none" stroke="black" d="M157.79,-66.17C147.14,-56.62 131.95,-43.02 119.69,-32.03"/>
<polygon fill="black" stroke="black" points="121.91,-29.32 112.12,-25.26 117.24,-34.53 121.91,-29.32"/>
</g>
<!-- 0x55db5deccb30 -->
<g id="node4" class="node">
<title>0x55db5deccb30</title>
<polygon fill="none" stroke="black" points="198,-25 144,-25 144,0 198,0 198,-25"/>
<text text-anchor="middle" x="171" y="-8.8" font-family="Times,serif" font-size="14.00"> 0.1</text>
</g>
<!-- 0x55db5e4468e0&#45;&gt;0x55db5deccb30 -->
<g id="edge3" class="edge">
<title>0x55db5e4468e0&#45;&gt;0x55db5deccb30</title>
<path fill="none" stroke="black" d="M171,-60.72C171,-52.93 171,-43.65 171,-35.39"/>
<polygon fill="black" stroke="black" points="174.5,-35.32 171,-25.32 167.5,-35.32 174.5,-35.32"/>
</g>
<!-- 0x55db5df6c260 -->
<g id="node5" class="node">
<title>0x55db5df6c260</title>
<polygon fill="none" stroke="black" points="270,-25 216,-25 216,0 270,0 270,-25"/>
<text text-anchor="middle" x="243" y="-8.8" font-family="Times,serif" font-size="14.00">0.15</text>
</g>
<!-- 0x55db5e4468e0&#45;&gt;0x55db5df6c260 -->
<g id="edge4" class="edge">
<title>0x55db5e4468e0&#45;&gt;0x55db5df6c260</title>
<path fill="none" stroke="black" d="M184.21,-66.17C194.86,-56.62 210.05,-43.02 222.31,-32.03"/>
<polygon fill="black" stroke="black" points="224.76,-34.53 229.88,-25.26 220.09,-29.32 224.76,-34.53"/>
</g>
<!-- 0x55db5e30b0c0 -->
<g id="node6" class="node">
<title>0x55db5e30b0c0</title>
<polygon fill="none" stroke="black" points="342,-25 288,-25 288,0 342,0 342,-25"/>
<text text-anchor="middle" x="315" y="-8.8" font-family="Times,serif" font-size="14.00">0.95</text>
</g>
<!-- 0x55db5e4468e0&#45;&gt;0x55db5e30b0c0 -->
<g id="edge5" class="edge">
<title>0x55db5e4468e0&#45;&gt;0x55db5e30b0c0</title>
<path fill="none" stroke="black" d="M187.24,-70.73C209.61,-60.71 250.47,-42.4 279.97,-29.19"/>
<polygon fill="black" stroke="black" points="281.42,-32.38 289.11,-25.1 278.56,-25.99 281.42,-32.38"/>
</g>
</g>
</svg>
