<?xml version="1.0" encoding="UTF-8" standalone="no"?>
<!DOCTYPE svg PUBLIC "-//W3C//DTD SVG 1.1//EN"
 "http://www.w3.org/Graphics/SVG/1.1/DTD/svg11.dtd">
<!-- Generated by graphviz version 7.1.0 (20230122.1345)
 -->
<!-- Title: G Pages: 1 -->
<svg width="350pt" height="105pt"
 viewBox="0.00 0.00 350.00 105.00" xmlns="http://www.w3.org/2000/svg" xmlns:xlink="http://www.w3.org/1999/xlink">
<g id="graph0" class="graph" transform="scale(1 1) rotate(0) translate(4 101)">
<title>G</title>
<polygon fill="white" stroke="none" points="-4,4 -4,-101 346,-101 346,4 -4,4"/>
<!-- 0x55d7b1a53f60 -->
<g id="node1" class="node">
<title>0x55d7b1a53f60</title>
<ellipse fill="none" stroke="black" cx="171" cy="-79" rx="18" ry="18"/>
<text text-anchor="middle" x="171" y="-75.3" font-family="Times,serif" font-size="14.00">2</text>
</g>
<!-- 0x55d7b21a34f0 -->
<g id="node2" class="node">
<title>0x55d7b21a34f0</title>
<polygon fill="none" stroke="black" points="54,-25 0,-25 0,0 54,0 54,-25"/>
<text text-anchor="middle" x="27" y="-8.8" font-family="Times,serif" font-size="14.00">0.99</text>
</g>
<!-- 0x55d7b1a53f60&#45;&gt;0x55d7b21a34f0 -->
<g id="edge1" class="edge">
<title>0x55d7b1a53f60&#45;&gt;0x55d7b21a34f0</title>
<path fill="none" stroke="black" d="M154.76,-70.73C132.88,-60.93 93.3,-43.2 63.97,-30.06"/>
<polygon fill="black" stroke="black" points="65.62,-26.96 55.06,-26.07 62.76,-33.35 65.62,-26.96"/>
</g>
<!-- 0x55d7b22bf3a0 -->
<g id="node3" class="node">
<title>0x55d7b22bf3a0</title>
<polygon fill="none" stroke="black" points="126,-25 72,-25 72,0 126,0 126,-25"/>
<text text-anchor="middle" x="99" y="-8.8" font-family="Times,serif" font-size="14.00">0.99</text>
</g>
<!-- 0x55d7b1a53f60&#45;&gt;0x55d7b22bf3a0 -->
<g id="edge2" class="edge">
<title>0x55d7b1a53f60&#45;&gt;0x55d7b22bf3a0</title>
<path fill="none" stroke="black" d="M157.79,-66.17C147.34,-56.8 132.53,-43.54 120.39,-32.66"/>
<polygon fill="black" stroke="black" points="123.03,-30.33 113.25,-26.27 118.36,-35.54 123.03,-30.33"/>
</g>
<!-- 0x55d7b19f1150 -->
<g id="node4" class="node">
<title>0x55d7b19f1150</title>
<polygon fill="none" stroke="black" points="198,-25 144,-25 144,0 198,0 198,-25"/>
<text text-anchor="middle" x="171" y="-8.8" font-family="Times,serif" font-size="14.00"> 0.1</text>
</g>
<!-- 0x55d7b1a53f60&#45;&gt;0x55d7b19f1150 -->
<g id="edge3" class="edge">
<title>0x55d7b1a53f60&#45;&gt;0x55d7b19f1150</title>
<path fill="none" stroke="black" d="M171,-60.72C171,-53.37 171,-44.69 171,-36.79"/>
<polygon fill="black" stroke="black" points="174.5,-36.84 171,-26.84 167.5,-36.84 174.5,-36.84"/>
</g>
<!-- 0x55d7b0a6b640 -->
<g id="node5" class="node">
<title>0x55d7b0a6b640</title>
<polygon fill="none" stroke="black" points="270,-25 216,-25 216,0 270,0 270,-25"/>
<text text-anchor="middle" x="243" y="-8.8" font-family="Times,serif" font-size="14.00">0.15</text>
</g>
<!-- 0x55d7b1a53f60&#45;&gt;0x55d7b0a6b640 -->
<g id="edge4" class="edge">
<title>0x55d7b1a53f60&#45;&gt;0x55d7b0a6b640</title>
<path fill="none" stroke="black" d="M184.21,-66.17C194.66,-56.8 209.47,-43.54 221.61,-32.66"/>
<polygon fill="black" stroke="black" points="223.64,-35.54 228.75,-26.27 218.97,-30.33 223.64,-35.54"/>
</g>
<!-- 0x55d7b1657880 -->
<g id="node6" class="node">
<title>0x55d7b1657880</title>
<polygon fill="none" stroke="black" points="342,-25 288,-25 288,0 342,0 342,-25"/>
<text text-anchor="middle" x="315" y="-8.8" font-family="Times,serif" font-size="14.00">0.95</text>
</g>
<!-- 0x55d7b1a53f60&#45;&gt;0x55d7b1657880 -->
<g id="edge5" class="edge">
<title>0x55d7b1a53f60&#45;&gt;0x55d7b1657880</title>
<path fill="none" stroke="black" d="M187.24,-70.73C209.12,-60.93 248.7,-43.2 278.03,-30.06"/>
<polygon fill="black" stroke="black" points="279.24,-33.35 286.94,-26.07 276.38,-26.96 279.24,-33.35"/>
</g>
</g>
</svg>
