<?xml version="1.0" encoding="UTF-8" standalone="no"?>
<!DOCTYPE svg PUBLIC "-//W3C//DTD SVG 1.1//EN"
 "http://www.w3.org/Graphics/SVG/1.1/DTD/svg11.dtd">
<!-- Generated by graphviz version 6.0.1 (20220911.2005)
 -->
<!-- Pages: 1 -->
<svg width="206pt" height="188pt"
 viewBox="0.00 0.00 206.00 188.00" xmlns="http://www.w3.org/2000/svg" xmlns:xlink="http://www.w3.org/1999/xlink">
<g id="graph0" class="graph" transform="scale(1 1) rotate(0) translate(4 184)">
<polygon fill="white" stroke="none" points="-4,4 -4,-184 202,-184 202,4 -4,4"/>
<!-- var4683743612465315841 -->
<g id="node1" class="node">
<title>var4683743612465315841</title>
<polygon fill="none" stroke="black" points="54,-180 0,-180 0,-144 54,-144 54,-180"/>
<text text-anchor="middle" x="27" y="-158.3" font-family="Times,serif" font-size="14.00">A1</text>
</g>
<!-- var4755801206503243778 -->
<g id="node4" class="node">
<title>var4755801206503243778</title>
<ellipse fill="none" stroke="black" cx="99" cy="-18" rx="27" ry="18"/>
<text text-anchor="middle" x="99" y="-14.3" font-family="Times,serif" font-size="14.00">B2</text>
</g>
<!-- var4683743612465315841&#45;&gt;var4755801206503243778 -->
<g id="edge5" class="edge">
<title>var4683743612465315841&#45;&gt;var4755801206503243778</title>
<path fill="none" stroke="black" d="M36.12,-143.76C48.7,-118.6 71.45,-73.1 85.86,-44.28"/>
<polygon fill="black" stroke="black" points="89.06,-45.7 90.4,-35.19 82.8,-42.57 89.06,-45.7"/>
</g>
<!-- var6341068275337658370 -->
<g id="node7" class="node">
<title>var6341068275337658370</title>
<ellipse fill="none" stroke="black" cx="99" cy="-90" rx="27" ry="18"/>
<text text-anchor="middle" x="99" y="-86.3" font-family="Times,serif" font-size="14.00">X2</text>
</g>
<!-- var4683743612465315841&#45;&gt;var6341068275337658370 -->
<g id="edge8" class="edge">
<title>var4683743612465315841&#45;&gt;var6341068275337658370</title>
<path fill="none" stroke="black" d="M45.17,-143.83C54.73,-134.27 66.53,-122.47 76.65,-112.35"/>
<polygon fill="black" stroke="black" points="79.4,-114.55 83.99,-105.01 74.45,-109.6 79.4,-114.55"/>
</g>
<!-- var4683743612465315842 -->
<g id="node2" class="node">
<title>var4683743612465315842</title>
<polygon fill="none" stroke="black" points="126,-180 72,-180 72,-144 126,-144 126,-180"/>
<text text-anchor="middle" x="99" y="-158.3" font-family="Times,serif" font-size="14.00">A2</text>
</g>
<!-- var4755801206503243779 -->
<g id="node5" class="node">
<title>var4755801206503243779</title>
<ellipse fill="none" stroke="black" cx="171" cy="-18" rx="27" ry="18"/>
<text text-anchor="middle" x="171" y="-14.3" font-family="Times,serif" font-size="14.00">B3</text>
</g>
<!-- var4683743612465315842&#45;&gt;var4755801206503243779 -->
<g id="edge1" class="edge">
<title>var4683743612465315842&#45;&gt;var4755801206503243779</title>
<path fill="none" stroke="black" d="M108.12,-143.76C120.7,-118.6 143.45,-73.1 157.86,-44.28"/>
<polygon fill="black" stroke="black" points="161.06,-45.7 162.4,-35.19 154.8,-42.57 161.06,-45.7"/>
</g>
<!-- var6341068275337658371 -->
<g id="node8" class="node">
<title>var6341068275337658371</title>
<ellipse fill="none" stroke="black" cx="171" cy="-90" rx="27" ry="18"/>
<text text-anchor="middle" x="171" y="-86.3" font-family="Times,serif" font-size="14.00">X3</text>
</g>
<!-- var4683743612465315842&#45;&gt;var6341068275337658371 -->
<g id="edge4" class="edge">
<title>var4683743612465315842&#45;&gt;var6341068275337658371</title>
<path fill="none" stroke="black" d="M117.17,-143.83C126.73,-134.27 138.53,-122.47 148.65,-112.35"/>
<polygon fill="black" stroke="black" points="151.4,-114.55 155.99,-105.01 146.45,-109.6 151.4,-114.55"/>
</g>
<!-- var4755801206503243777 -->
<g id="node3" class="node">
<title>var4755801206503243777</title>
<ellipse fill="none" stroke="black" cx="27" cy="-18" rx="27" ry="18"/>
<text text-anchor="middle" x="27" y="-14.3" font-family="Times,serif" font-size="14.00">B1</text>
</g>
<!-- var4755801206503243777&#45;&gt;var4755801206503243778 -->
<g id="edge6" class="edge">
<title>var4755801206503243777&#45;&gt;var4755801206503243778</title>
<path fill="none" stroke="black" d="M54.22,-18C56.64,-18 59.11,-18 61.6,-18"/>
<polygon fill="black" stroke="black" points="61.74,-21.5 71.74,-18 61.74,-14.5 61.74,-21.5"/>
</g>
<!-- var4755801206503243778&#45;&gt;var4755801206503243779 -->
<g id="edge2" class="edge">
<title>var4755801206503243778&#45;&gt;var4755801206503243779</title>
<path fill="none" stroke="black" d="M126.22,-18C128.64,-18 131.11,-18 133.6,-18"/>
<polygon fill="black" stroke="black" points="133.74,-21.5 143.74,-18 133.74,-14.5 133.74,-21.5"/>
</g>
<!-- var6341068275337658369 -->
<g id="node6" class="node">
<title>var6341068275337658369</title>
<ellipse fill="none" stroke="black" cx="27" cy="-90" rx="27" ry="18"/>
<text text-anchor="middle" x="27" y="-86.3" font-family="Times,serif" font-size="14.00">X1</text>
</g>
<!-- var6341068275337658369&#45;&gt;var6341068275337658370 -->
<g id="edge7" class="edge">
<title>var6341068275337658369&#45;&gt;var6341068275337658370</title>
<path fill="none" stroke="black" d="M54.22,-90C56.64,-90 59.11,-90 61.6,-90"/>
<polygon fill="black" stroke="black" points="61.74,-93.5 71.74,-90 61.74,-86.5 61.74,-93.5"/>
</g>
<!-- var6341068275337658370&#45;&gt;var6341068275337658371 -->
<g id="edge3" class="edge">
<title>var6341068275337658370&#45;&gt;var6341068275337658371</title>
<path fill="none" stroke="black" d="M126.22,-90C128.64,-90 131.11,-90 133.6,-90"/>
<polygon fill="black" stroke="black" points="133.74,-93.5 143.74,-90 133.74,-86.5 133.74,-93.5"/>
</g>
</g>
</svg>
