<?xml version="1.0" encoding="UTF-8" standalone="no"?>
<!DOCTYPE svg PUBLIC "-//W3C//DTD SVG 1.1//EN"
 "http://www.w3.org/Graphics/SVG/1.1/DTD/svg11.dtd">
<!-- Generated by graphviz version 2.50.0 (20220117.2223)
 -->
<!-- Pages: 1 -->
<svg width="134pt" height="116pt"
 viewBox="0.00 0.00 134.00 116.00" xmlns="http://www.w3.org/2000/svg" xmlns:xlink="http://www.w3.org/1999/xlink">
<g id="graph0" class="graph" transform="scale(1 1) rotate(0) translate(4 112)">
<polygon fill="white" stroke="transparent" points="-4,4 -4,-112 130,-112 130,4 -4,4"/>
<!-- varA1 -->
<g id="node1" class="node">
<title>varA1</title>
<polygon fill="none" stroke="black" points="54,-108 0,-108 0,-72 54,-72 54,-108"/>
<text text-anchor="middle" x="27" y="-86.3" font-family="Times,serif" font-size="14.00">A1</text>
</g>
<!-- varX2 -->
<g id="node3" class="node">
<title>varX2</title>
<ellipse fill="none" stroke="black" cx="99" cy="-18" rx="27" ry="18"/>
<text text-anchor="middle" x="99" y="-14.3" font-family="Times,serif" font-size="14.00">X2</text>
</g>
<!-- varA1&#45;&gt;varX2 -->
<g id="edge2" class="edge">
<title>varA1&#45;&gt;varX2</title>
<path fill="none" stroke="black" d="M45.17,-71.83C54.73,-62.27 66.53,-50.47 76.65,-40.35"/>
<polygon fill="black" stroke="black" points="79.4,-42.55 83.99,-33.01 74.45,-37.6 79.4,-42.55"/>
</g>
<!-- varX1 -->
<g id="node2" class="node">
<title>varX1</title>
<polygon fill="none" stroke="black" points="54,-36 0,-36 0,0 54,0 54,-36"/>
<text text-anchor="middle" x="27" y="-14.3" font-family="Times,serif" font-size="14.00">X1</text>
</g>
<!-- varX1&#45;&gt;varX2 -->
<g id="edge1" class="edge">
<title>varX1&#45;&gt;varX2</title>
<path fill="none" stroke="black" d="M54.22,-18C56.64,-18 59.11,-18 61.6,-18"/>
<polygon fill="black" stroke="black" points="61.74,-21.5 71.74,-18 61.74,-14.5 61.74,-21.5"/>
</g>
</g>
</svg>
