<?xml version="1.0" encoding="UTF-8" standalone="no"?>
<!DOCTYPE svg PUBLIC "-//W3C//DTD SVG 1.1//EN"
 "http://www.w3.org/Graphics/SVG/1.1/DTD/svg11.dtd">
<!-- Generated by graphviz version 2.50.0 (20220117.2223)
 -->
<!-- Pages: 1 -->
<svg width="206pt" height="44pt"
 viewBox="0.00 0.00 206.00 44.00" xmlns="http://www.w3.org/2000/svg" xmlns:xlink="http://www.w3.org/1999/xlink">
<g id="graph0" class="graph" transform="scale(1 1) rotate(0) translate(4 40)">
<polygon fill="white" stroke="transparent" points="-4,4 -4,-40 202,-40 202,4 -4,4"/>
<!-- varX1 -->
<g id="node1" class="node">
<title>varX1</title>
<ellipse fill="none" stroke="black" cx="27" cy="-18" rx="27" ry="18"/>
<text text-anchor="middle" x="27" y="-14.3" font-family="Times,serif" font-size="14.00">X1</text>
</g>
<!-- varX2 -->
<g id="node2" class="node">
<title>varX2</title>
<ellipse fill="none" stroke="black" cx="99" cy="-18" rx="27" ry="18"/>
<text text-anchor="middle" x="99" y="-14.3" font-family="Times,serif" font-size="14.00">X2</text>
</g>
<!-- varX1&#45;&gt;varX2 -->
<g id="edge2" class="edge">
<title>varX1&#45;&gt;varX2</title>
<path fill="none" stroke="black" d="M54.22,-18C56.64,-18 59.11,-18 61.6,-18"/>
<polygon fill="black" stroke="black" points="61.74,-21.5 71.74,-18 61.74,-14.5 61.74,-21.5"/>
</g>
<!-- varX3 -->
<g id="node3" class="node">
<title>varX3</title>
<ellipse fill="none" stroke="black" cx="171" cy="-18" rx="27" ry="18"/>
<text text-anchor="middle" x="171" y="-14.3" font-family="Times,serif" font-size="14.00">X3</text>
</g>
<!-- varX2&#45;&gt;varX3 -->
<g id="edge1" class="edge">
<title>varX2&#45;&gt;varX3</title>
<path fill="none" stroke="black" d="M126.22,-18C128.64,-18 131.11,-18 133.6,-18"/>
<polygon fill="black" stroke="black" points="133.74,-21.5 143.74,-18 133.74,-14.5 133.74,-21.5"/>
</g>
</g>
</svg>
