<?xml version="1.0" encoding="UTF-8" standalone="no"?>
<!DOCTYPE svg PUBLIC "-//W3C//DTD SVG 1.1//EN"
 "http://www.w3.org/Graphics/SVG/1.1/DTD/svg11.dtd">
<!-- Generated by graphviz version 6.0.2 (20221126.1951)
 -->
<!-- Pages: 1 -->
<svg width="128pt" height="260pt"
 viewBox="0.00 0.00 128.00 260.00" xmlns="http://www.w3.org/2000/svg" xmlns:xlink="http://www.w3.org/1999/xlink">
<g id="graph0" class="graph" transform="scale(1 1) rotate(0) translate(4 256)">
<polygon fill="white" stroke="none" points="-4,4 -4,-256 124,-256 124,4 -4,4"/>
<!-- var5 -->
<g id="node1" class="node">
<title>var5</title>
<ellipse fill="none" stroke="black" cx="27" cy="-18" rx="27" ry="18"/>
<text text-anchor="middle" x="27" y="-14.3" font-family="Times,serif" font-size="14.00">W</text>
</g>
<!-- var6 -->
<g id="node2" class="node">
<title>var6</title>
<ellipse fill="none" stroke="black" cx="55" cy="-90" rx="27" ry="18"/>
<text text-anchor="middle" x="55" y="-86.3" font-family="Times,serif" font-size="14.00">X</text>
</g>
<!-- var6&#45;&gt;var5 -->
<g id="edge4" class="edge">
<title>var6&#45;&gt;var5</title>
<path fill="none" stroke="black" d="M48.36,-72.41C45.09,-64.22 41.06,-54.14 37.38,-44.95"/>
<polygon fill="black" stroke="black" points="40.55,-43.45 33.59,-35.47 34.05,-46.05 40.55,-43.45"/>
</g>
<!-- var7 -->
<g id="node3" class="node">
<title>var7</title>
<ellipse fill="none" stroke="black" cx="93" cy="-162" rx="27" ry="18"/>
<text text-anchor="middle" x="93" y="-158.3" font-family="Times,serif" font-size="14.00">Y</text>
</g>
<!-- var7&#45;&gt;var6 -->
<g id="edge2" class="edge">
<title>var7&#45;&gt;var6</title>
<path fill="none" stroke="black" d="M84.19,-144.76C79.58,-136.28 73.84,-125.71 68.68,-116.2"/>
<polygon fill="black" stroke="black" points="71.61,-114.27 63.77,-107.15 65.46,-117.61 71.61,-114.27"/>
</g>
<!-- var8 -->
<g id="node4" class="node">
<title>var8</title>
<ellipse fill="none" stroke="black" cx="38" cy="-234" rx="27" ry="18"/>
<text text-anchor="middle" x="38" y="-230.3" font-family="Times,serif" font-size="14.00">Z</text>
</g>
<!-- var8&#45;&gt;var5 -->
<g id="edge5" class="edge">
<title>var8&#45;&gt;var5</title>
<path fill="none" stroke="black" d="M33.85,-216.12C27.14,-186.86 15.04,-124.76 19,-72 19.64,-63.52 20.84,-54.34 22.12,-46.04"/>
<polygon fill="black" stroke="black" points="25.58,-46.55 23.75,-36.11 18.68,-45.41 25.58,-46.55"/>
</g>
<!-- var8&#45;&gt;var6 -->
<g id="edge3" class="edge">
<title>var8&#45;&gt;var6</title>
<path fill="none" stroke="black" d="M40.05,-215.87C42.95,-191.67 48.27,-147.21 51.72,-118.39"/>
<polygon fill="black" stroke="black" points="55.23,-118.53 52.94,-108.19 48.28,-117.7 55.23,-118.53"/>
</g>
<!-- var8&#45;&gt;var7 -->
<g id="edge1" class="edge">
<title>var8&#45;&gt;var7</title>
<path fill="none" stroke="black" d="M49.93,-217.81C57.21,-208.55 66.66,-196.52 74.85,-186.09"/>
<polygon fill="black" stroke="black" points="77.66,-188.18 81.09,-178.16 72.16,-183.86 77.66,-188.18"/>
</g>
</g>
</svg>
