<?xml version="1.0" encoding="UTF-8" standalone="no"?>
<!DOCTYPE svg PUBLIC "-//W3C//DTD SVG 1.1//EN"
 "http://www.w3.org/Graphics/SVG/1.1/DTD/svg11.dtd">
<!-- Generated by graphviz version 7.1.0 (20230122.1345)
 -->
<!-- Pages: 1 -->
<svg width="350pt" height="188pt"
 viewBox="0.00 0.00 350.00 188.00" xmlns="http://www.w3.org/2000/svg" xmlns:xlink="http://www.w3.org/1999/xlink">
<g id="graph0" class="graph" transform="scale(1 1) rotate(0) translate(4 184)">
<polygon fill="white" stroke="none" points="-4,4 -4,-184 346,-184 346,4 -4,4"/>
<!-- var4683743612465315841 -->
<g id="node1" class="node">
<title>var4683743612465315841</title>
<polygon fill="none" stroke="black" points="54,-180 0,-180 0,-144 54,-144 54,-180"/>
<text text-anchor="middle" x="27" y="-158.3" font-family="Times,serif" font-size="14.00">A1</text>
</g>
<!-- var6341068275337658370 -->
<g id="node6" class="node">
<title>var6341068275337658370</title>
<ellipse fill="none" stroke="black" cx="99" cy="-90" rx="27" ry="18"/>
<text text-anchor="middle" x="99" y="-86.3" font-family="Times,serif" font-size="14.00">X2</text>
</g>
<!-- var4683743612465315841&#45;&gt;var6341068275337658370 -->
<g id="edge2" class="edge">
<title>var4683743612465315841&#45;&gt;var6341068275337658370</title>
<path fill="none" stroke="black" d="M45.17,-143.83C54.54,-134.46 66.07,-122.93 76.05,-112.95"/>
<polygon fill="black" stroke="black" points="78.33,-115.62 82.92,-106.08 73.38,-110.67 78.33,-115.62"/>
</g>
<!-- var4683743612465315842 -->
<g id="node2" class="node">
<title>var4683743612465315842</title>
<polygon fill="none" stroke="black" points="126,-180 72,-180 72,-144 126,-144 126,-180"/>
<text text-anchor="middle" x="99" y="-158.3" font-family="Times,serif" font-size="14.00">A2</text>
</g>
<!-- var6341068275337658371 -->
<g id="node7" class="node">
<title>var6341068275337658371</title>
<ellipse fill="none" stroke="black" cx="171" cy="-90" rx="27" ry="18"/>
<text text-anchor="middle" x="171" y="-86.3" font-family="Times,serif" font-size="14.00">X3</text>
</g>
<!-- var4683743612465315842&#45;&gt;var6341068275337658371 -->
<g id="edge4" class="edge">
<title>var4683743612465315842&#45;&gt;var6341068275337658371</title>
<path fill="none" stroke="black" d="M117.17,-143.83C126.54,-134.46 138.07,-122.93 148.05,-112.95"/>
<polygon fill="black" stroke="black" points="150.33,-115.62 154.92,-106.08 145.38,-110.67 150.33,-115.62"/>
</g>
<!-- var4683743612465315843 -->
<g id="node3" class="node">
<title>var4683743612465315843</title>
<polygon fill="none" stroke="black" points="198,-180 144,-180 144,-144 198,-144 198,-180"/>
<text text-anchor="middle" x="171" y="-158.3" font-family="Times,serif" font-size="14.00">A3</text>
</g>
<!-- var6341068275337658372 -->
<g id="node8" class="node">
<title>var6341068275337658372</title>
<ellipse fill="none" stroke="black" cx="243" cy="-90" rx="27" ry="18"/>
<text text-anchor="middle" x="243" y="-86.3" font-family="Times,serif" font-size="14.00">X4</text>
</g>
<!-- var4683743612465315843&#45;&gt;var6341068275337658372 -->
<g id="edge6" class="edge">
<title>var4683743612465315843&#45;&gt;var6341068275337658372</title>
<path fill="none" stroke="black" d="M189.17,-143.83C198.54,-134.46 210.07,-122.93 220.05,-112.95"/>
<polygon fill="black" stroke="black" points="222.33,-115.62 226.92,-106.08 217.38,-110.67 222.33,-115.62"/>
</g>
<!-- var4683743612465315844 -->
<g id="node4" class="node">
<title>var4683743612465315844</title>
<polygon fill="none" stroke="black" points="270,-180 216,-180 216,-144 270,-144 270,-180"/>
<text text-anchor="middle" x="243" y="-158.3" font-family="Times,serif" font-size="14.00">A4</text>
</g>
<!-- var6341068275337658373 -->
<g id="node9" class="node">
<title>var6341068275337658373</title>
<ellipse fill="none" stroke="black" cx="315" cy="-90" rx="27" ry="18"/>
<text text-anchor="middle" x="315" y="-86.3" font-family="Times,serif" font-size="14.00">X5</text>
</g>
<!-- var4683743612465315844&#45;&gt;var6341068275337658373 -->
<g id="edge8" class="edge">
<title>var4683743612465315844&#45;&gt;var6341068275337658373</title>
<path fill="none" stroke="black" d="M261.17,-143.83C270.54,-134.46 282.07,-122.93 292.05,-112.95"/>
<polygon fill="black" stroke="black" points="294.33,-115.62 298.92,-106.08 289.38,-110.67 294.33,-115.62"/>
</g>
<!-- var6341068275337658369 -->
<g id="node5" class="node">
<title>var6341068275337658369</title>
<ellipse fill="none" stroke="black" cx="27" cy="-90" rx="27" ry="18"/>
<text text-anchor="middle" x="27" y="-86.3" font-family="Times,serif" font-size="14.00">X1</text>
</g>
<!-- var6341068275337658369&#45;&gt;var6341068275337658370 -->
<g id="edge1" class="edge">
<title>var6341068275337658369&#45;&gt;var6341068275337658370</title>
<path fill="none" stroke="black" d="M54.22,-90C56.28,-90 58.38,-90 60.5,-90"/>
<polygon fill="black" stroke="black" points="60.23,-93.5 70.23,-90 60.23,-86.5 60.23,-93.5"/>
</g>
<!-- var6485183463413514241 -->
<g id="node10" class="node">
<title>var6485183463413514241</title>
<ellipse fill="none" stroke="black" cx="27" cy="-18" rx="27" ry="18"/>
<text text-anchor="middle" x="27" y="-14.3" font-family="Times,serif" font-size="14.00">Z1</text>
</g>
<!-- var6341068275337658369&#45;&gt;var6485183463413514241 -->
<g id="edge13" class="edge">
<title>var6341068275337658369&#45;&gt;var6485183463413514241</title>
<path fill="none" stroke="black" d="M27,-71.83C27,-64.55 27,-55.98 27,-47.83"/>
<polygon fill="black" stroke="black" points="30.5,-47.93 27,-37.93 23.5,-47.93 30.5,-47.93"/>
</g>
<!-- var6341068275337658370&#45;&gt;var6341068275337658371 -->
<g id="edge3" class="edge">
<title>var6341068275337658370&#45;&gt;var6341068275337658371</title>
<path fill="none" stroke="black" d="M126.22,-90C128.28,-90 130.38,-90 132.5,-90"/>
<polygon fill="black" stroke="black" points="132.23,-93.5 142.23,-90 132.23,-86.5 132.23,-93.5"/>
</g>
<!-- var6485183463413514242 -->
<g id="node11" class="node">
<title>var6485183463413514242</title>
<ellipse fill="none" stroke="black" cx="99" cy="-18" rx="27" ry="18"/>
<text text-anchor="middle" x="99" y="-14.3" font-family="Times,serif" font-size="14.00">Z2</text>
</g>
<!-- var6341068275337658370&#45;&gt;var6485183463413514242 -->
<g id="edge12" class="edge">
<title>var6341068275337658370&#45;&gt;var6485183463413514242</title>
<path fill="none" stroke="black" d="M99,-71.83C99,-64.55 99,-55.98 99,-47.83"/>
<polygon fill="black" stroke="black" points="102.5,-47.93 99,-37.93 95.5,-47.93 102.5,-47.93"/>
</g>
<!-- var6341068275337658371&#45;&gt;var6341068275337658372 -->
<g id="edge5" class="edge">
<title>var6341068275337658371&#45;&gt;var6341068275337658372</title>
<path fill="none" stroke="black" d="M198.22,-90C200.28,-90 202.38,-90 204.5,-90"/>
<polygon fill="black" stroke="black" points="204.23,-93.5 214.23,-90 204.23,-86.5 204.23,-93.5"/>
</g>
<!-- var6485183463413514243 -->
<g id="node12" class="node">
<title>var6485183463413514243</title>
<ellipse fill="none" stroke="black" cx="171" cy="-18" rx="27" ry="18"/>
<text text-anchor="middle" x="171" y="-14.3" font-family="Times,serif" font-size="14.00">Z3</text>
</g>
<!-- var6341068275337658371&#45;&gt;var6485183463413514243 -->
<g id="edge11" class="edge">
<title>var6341068275337658371&#45;&gt;var6485183463413514243</title>
<path fill="none" stroke="black" d="M171,-71.83C171,-64.55 171,-55.98 171,-47.83"/>
<polygon fill="black" stroke="black" points="174.5,-47.93 171,-37.93 167.5,-47.93 174.5,-47.93"/>
</g>
<!-- var6341068275337658372&#45;&gt;var6341068275337658373 -->
<g id="edge7" class="edge">
<title>var6341068275337658372&#45;&gt;var6341068275337658373</title>
<path fill="none" stroke="black" d="M270.22,-90C272.28,-90 274.38,-90 276.5,-90"/>
<polygon fill="black" stroke="black" points="276.23,-93.5 286.23,-90 276.23,-86.5 276.23,-93.5"/>
</g>
<!-- var6485183463413514244 -->
<g id="node13" class="node">
<title>var6485183463413514244</title>
<ellipse fill="none" stroke="black" cx="243" cy="-18" rx="27" ry="18"/>
<text text-anchor="middle" x="243" y="-14.3" font-family="Times,serif" font-size="14.00">Z4</text>
</g>
<!-- var6341068275337658372&#45;&gt;var6485183463413514244 -->
<g id="edge10" class="edge">
<title>var6341068275337658372&#45;&gt;var6485183463413514244</title>
<path fill="none" stroke="black" d="M243,-71.83C243,-64.55 243,-55.98 243,-47.83"/>
<polygon fill="black" stroke="black" points="246.5,-47.93 243,-37.93 239.5,-47.93 246.5,-47.93"/>
</g>
<!-- var6485183463413514245 -->
<g id="node14" class="node">
<title>var6485183463413514245</title>
<ellipse fill="none" stroke="black" cx="315" cy="-18" rx="27" ry="18"/>
<text text-anchor="middle" x="315" y="-14.3" font-family="Times,serif" font-size="14.00">Z5</text>
</g>
<!-- var6341068275337658373&#45;&gt;var6485183463413514245 -->
<g id="edge9" class="edge">
<title>var6341068275337658373&#45;&gt;var6485183463413514245</title>
<path fill="none" stroke="black" d="M315,-71.83C315,-64.55 315,-55.98 315,-47.83"/>
<polygon fill="black" stroke="black" points="318.5,-47.93 315,-37.93 311.5,-47.93 318.5,-47.93"/>
</g>
</g>
</svg>
