<?xml version="1.0" encoding="UTF-8" standalone="no"?>
<!DOCTYPE svg PUBLIC "-//W3C//DTD SVG 1.1//EN"
 "http://www.w3.org/Graphics/SVG/1.1/DTD/svg11.dtd">
<!-- Generated by graphviz version 3.0.0 (20220315.2325)
 -->
<!-- Pages: 1 -->
<svg width="206pt" height="84pt"
 viewBox="0.00 0.00 206.00 83.60" xmlns="http://www.w3.org/2000/svg" xmlns:xlink="http://www.w3.org/1999/xlink">
<g id="graph0" class="graph" transform="scale(1 1) rotate(0) translate(4 79.6)">
<polygon fill="white" stroke="transparent" points="-4,4 -4,-79.6 202,-79.6 202,4 -4,4"/>
<!-- varX1 -->
<g id="node1" class="node">
<title>varX1</title>
<ellipse fill="none" stroke="black" cx="27" cy="-57.6" rx="27" ry="18"/>
<text text-anchor="middle" x="27" y="-53.9" font-family="Times,serif" font-size="14.00">X1</text>
</g>
<!-- factor0 -->
<g id="node4" class="node">
<title>factor0</title>
<ellipse fill="black" stroke="black" cx="16" cy="-1.8" rx="1.8" ry="1.8"/>
</g>
<!-- varX1&#45;&#45;factor0 -->
<g id="edge1" class="edge">
<title>varX1&#45;&#45;factor0</title>
<path fill="none" stroke="black" d="M23.52,-39.58C20.7,-25.79 17.06,-7.97 16.19,-3.73"/>
</g>
<!-- factor1 -->
<g id="node5" class="node">
<title>factor1</title>
<ellipse fill="black" stroke="black" cx="69" cy="-1.8" rx="1.8" ry="1.8"/>
</g>
<!-- varX1&#45;&#45;factor1 -->
<g id="edge3" class="edge">
<title>varX1&#45;&#45;factor1</title>
<path fill="none" stroke="black" d="M38.92,-41.33C49.79,-27.41 64.67,-8.35 68.22,-3.8"/>
</g>
<!-- factor3 -->
<g id="node7" class="node">
<title>factor3</title>
<ellipse fill="black" stroke="black" cx="38" cy="-1.8" rx="1.8" ry="1.8"/>
</g>
<!-- varX1&#45;&#45;factor3 -->
<g id="edge6" class="edge">
<title>varX1&#45;&#45;factor3</title>
<path fill="none" stroke="black" d="M30.48,-39.58C33.3,-25.79 36.94,-7.97 37.81,-3.73"/>
</g>
<!-- varX2 -->
<g id="node2" class="node">
<title>varX2</title>
<ellipse fill="none" stroke="black" cx="99" cy="-57.6" rx="27" ry="18"/>
<text text-anchor="middle" x="99" y="-53.9" font-family="Times,serif" font-size="14.00">X2</text>
</g>
<!-- varX2&#45;&#45;factor1 -->
<g id="edge2" class="edge">
<title>varX2&#45;&#45;factor1</title>
<path fill="none" stroke="black" d="M90,-40.46C82.27,-26.59 71.99,-8.16 69.54,-3.77"/>
</g>
<!-- factor2 -->
<g id="node6" class="node">
<title>factor2</title>
<ellipse fill="black" stroke="black" cx="135" cy="-1.8" rx="1.8" ry="1.8"/>
</g>
<!-- varX2&#45;&#45;factor2 -->
<g id="edge5" class="edge">
<title>varX2&#45;&#45;factor2</title>
<path fill="none" stroke="black" d="M109.61,-40.75C118.9,-26.86 131.37,-8.22 134.34,-3.78"/>
</g>
<!-- factor4 -->
<g id="node8" class="node">
<title>factor4</title>
<ellipse fill="black" stroke="black" cx="99" cy="-1.8" rx="1.8" ry="1.8"/>
</g>
<!-- varX2&#45;&#45;factor4 -->
<g id="edge7" class="edge">
<title>varX2&#45;&#45;factor4</title>
<path fill="none" stroke="black" d="M99,-39.58C99,-25.79 99,-7.97 99,-3.73"/>
</g>
<!-- varX3 -->
<g id="node3" class="node">
<title>varX3</title>
<ellipse fill="none" stroke="black" cx="171" cy="-57.6" rx="27" ry="18"/>
<text text-anchor="middle" x="171" y="-53.9" font-family="Times,serif" font-size="14.00">X3</text>
</g>
<!-- varX3&#45;&#45;factor2 -->
<g id="edge4" class="edge">
<title>varX3&#45;&#45;factor2</title>
<path fill="none" stroke="black" d="M160.39,-40.75C151.1,-26.86 138.63,-8.22 135.66,-3.78"/>
</g>
<!-- factor5 -->
<g id="node9" class="node">
<title>factor5</title>
<ellipse fill="black" stroke="black" cx="171" cy="-1.8" rx="1.8" ry="1.8"/>
</g>
<!-- varX3&#45;&#45;factor5 -->
<g id="edge8" class="edge">
<title>varX3&#45;&#45;factor5</title>
<path fill="none" stroke="black" d="M171,-39.58C171,-25.79 171,-7.97 171,-3.73"/>
</g>
</g>
</svg>
