<?xml version="1.0" encoding="UTF-8" standalone="no"?>
<!DOCTYPE svg PUBLIC "-//W3C//DTD SVG 1.1//EN"
 "http://www.w3.org/Graphics/SVG/1.1/DTD/svg11.dtd">
<!-- Generated by graphviz version 3.0.0 (20220315.2325)
 -->
<!-- Pages: 1 -->
<svg width="350pt" height="116pt"
 viewBox="0.00 0.00 350.00 116.00" xmlns="http://www.w3.org/2000/svg" xmlns:xlink="http://www.w3.org/1999/xlink">
<g id="graph0" class="graph" transform="scale(1 1) rotate(0) translate(4 112)">
<polygon fill="white" stroke="transparent" points="-4,4 -4,-112 346,-112 346,4 -4,4"/>
<!-- varu1 -->
<g id="node1" class="node">
<title>varu1</title>
<polygon fill="none" stroke="black" points="54,-108 0,-108 0,-72 54,-72 54,-108"/>
<text text-anchor="middle" x="27" y="-86.3" font-family="Times,serif" font-size="14.00">u1</text>
</g>
<!-- varx2 -->
<g id="node6" class="node">
<title>varx2</title>
<ellipse fill="none" stroke="black" cx="99" cy="-18" rx="27" ry="18"/>
<text text-anchor="middle" x="99" y="-14.3" font-family="Times,serif" font-size="14.00">x2</text>
</g>
<!-- varu1&#45;&gt;varx2 -->
<g id="edge2" class="edge">
<title>varu1&#45;&gt;varx2</title>
<path fill="none" stroke="black" d="M45.17,-71.83C54.73,-62.27 66.53,-50.47 76.65,-40.35"/>
<polygon fill="black" stroke="black" points="79.4,-42.55 83.99,-33.01 74.45,-37.6 79.4,-42.55"/>
</g>
<!-- varu2 -->
<g id="node2" class="node">
<title>varu2</title>
<polygon fill="none" stroke="black" points="126,-108 72,-108 72,-72 126,-72 126,-108"/>
<text text-anchor="middle" x="99" y="-86.3" font-family="Times,serif" font-size="14.00">u2</text>
</g>
<!-- varx3 -->
<g id="node7" class="node">
<title>varx3</title>
<ellipse fill="none" stroke="black" cx="171" cy="-18" rx="27" ry="18"/>
<text text-anchor="middle" x="171" y="-14.3" font-family="Times,serif" font-size="14.00">x3</text>
</g>
<!-- varu2&#45;&gt;varx3 -->
<g id="edge4" class="edge">
<title>varu2&#45;&gt;varx3</title>
<path fill="none" stroke="black" d="M117.17,-71.83C126.73,-62.27 138.53,-50.47 148.65,-40.35"/>
<polygon fill="black" stroke="black" points="151.4,-42.55 155.99,-33.01 146.45,-37.6 151.4,-42.55"/>
</g>
<!-- varu3 -->
<g id="node3" class="node">
<title>varu3</title>
<polygon fill="none" stroke="black" points="198,-108 144,-108 144,-72 198,-72 198,-108"/>
<text text-anchor="middle" x="171" y="-86.3" font-family="Times,serif" font-size="14.00">u3</text>
</g>
<!-- varx4 -->
<g id="node8" class="node">
<title>varx4</title>
<ellipse fill="none" stroke="black" cx="243" cy="-18" rx="27" ry="18"/>
<text text-anchor="middle" x="243" y="-14.3" font-family="Times,serif" font-size="14.00">x4</text>
</g>
<!-- varu3&#45;&gt;varx4 -->
<g id="edge6" class="edge">
<title>varu3&#45;&gt;varx4</title>
<path fill="none" stroke="black" d="M189.17,-71.83C198.73,-62.27 210.53,-50.47 220.65,-40.35"/>
<polygon fill="black" stroke="black" points="223.4,-42.55 227.99,-33.01 218.45,-37.6 223.4,-42.55"/>
</g>
<!-- varu4 -->
<g id="node4" class="node">
<title>varu4</title>
<polygon fill="none" stroke="black" points="270,-108 216,-108 216,-72 270,-72 270,-108"/>
<text text-anchor="middle" x="243" y="-86.3" font-family="Times,serif" font-size="14.00">u4</text>
</g>
<!-- varx5 -->
<g id="node9" class="node">
<title>varx5</title>
<ellipse fill="none" stroke="black" cx="315" cy="-18" rx="27" ry="18"/>
<text text-anchor="middle" x="315" y="-14.3" font-family="Times,serif" font-size="14.00">x5</text>
</g>
<!-- varu4&#45;&gt;varx5 -->
<g id="edge8" class="edge">
<title>varu4&#45;&gt;varx5</title>
<path fill="none" stroke="black" d="M261.17,-71.83C270.73,-62.27 282.53,-50.47 292.65,-40.35"/>
<polygon fill="black" stroke="black" points="295.4,-42.55 299.99,-33.01 290.45,-37.6 295.4,-42.55"/>
</g>
<!-- varx1 -->
<g id="node5" class="node">
<title>varx1</title>
<ellipse fill="none" stroke="black" cx="27" cy="-18" rx="27" ry="18"/>
<text text-anchor="middle" x="27" y="-14.3" font-family="Times,serif" font-size="14.00">x1</text>
</g>
<!-- varx1&#45;&gt;varx2 -->
<g id="edge1" class="edge">
<title>varx1&#45;&gt;varx2</title>
<path fill="none" stroke="black" d="M54.22,-18C56.64,-18 59.11,-18 61.6,-18"/>
<polygon fill="black" stroke="black" points="61.74,-21.5 71.74,-18 61.74,-14.5 61.74,-21.5"/>
</g>
<!-- varx2&#45;&gt;varx3 -->
<g id="edge3" class="edge">
<title>varx2&#45;&gt;varx3</title>
<path fill="none" stroke="black" d="M126.22,-18C128.64,-18 131.11,-18 133.6,-18"/>
<polygon fill="black" stroke="black" points="133.74,-21.5 143.74,-18 133.74,-14.5 133.74,-21.5"/>
</g>
<!-- varx3&#45;&gt;varx4 -->
<g id="edge5" class="edge">
<title>varx3&#45;&gt;varx4</title>
<path fill="none" stroke="black" d="M198.22,-18C200.64,-18 203.11,-18 205.6,-18"/>
<polygon fill="black" stroke="black" points="205.74,-21.5 215.74,-18 205.74,-14.5 205.74,-21.5"/>
</g>
<!-- varx4&#45;&gt;varx5 -->
<g id="edge7" class="edge">
<title>varx4&#45;&gt;varx5</title>
<path fill="none" stroke="black" d="M270.22,-18C272.64,-18 275.11,-18 277.6,-18"/>
<polygon fill="black" stroke="black" points="277.74,-21.5 287.74,-18 277.74,-14.5 277.74,-21.5"/>
</g>
</g>
</svg>
