<?xml version="1.0" encoding="UTF-8" standalone="no"?>
<!DOCTYPE svg PUBLIC "-//W3C//DTD SVG 1.1//EN"
 "http://www.w3.org/Graphics/SVG/1.1/DTD/svg11.dtd">
<!-- Generated by graphviz version 6.0.1 (20220911.2005)
 -->
<!-- Pages: 1 -->
<svg width="350pt" height="188pt"
 viewBox="0.00 0.00 350.00 188.00" xmlns="http://www.w3.org/2000/svg" xmlns:xlink="http://www.w3.org/1999/xlink">
<g id="graph0" class="graph" transform="scale(1 1) rotate(0) translate(4 184)">
<polygon fill="white" stroke="none" points="-4,4 -4,-184 346,-184 346,4 -4,4"/>
<!-- var8430738502437568513 -->
<g id="node1" class="node">
<title>var8430738502437568513</title>
<polygon fill="none" stroke="black" points="54,-180 0,-180 0,-144 54,-144 54,-180"/>
<text text-anchor="middle" x="27" y="-158.3" font-family="Times,serif" font-size="14.00">u1</text>
</g>
<!-- var8646911284551352322 -->
<g id="node6" class="node">
<title>var8646911284551352322</title>
<ellipse fill="none" stroke="black" cx="99" cy="-90" rx="27" ry="18"/>
<text text-anchor="middle" x="99" y="-86.3" font-family="Times,serif" font-size="14.00">x2</text>
</g>
<!-- var8430738502437568513&#45;&gt;var8646911284551352322 -->
<g id="edge2" class="edge">
<title>var8430738502437568513&#45;&gt;var8646911284551352322</title>
<path fill="none" stroke="black" d="M45.17,-143.83C54.73,-134.27 66.53,-122.47 76.65,-112.35"/>
<polygon fill="black" stroke="black" points="79.4,-114.55 83.99,-105.01 74.45,-109.6 79.4,-114.55"/>
</g>
<!-- var8430738502437568514 -->
<g id="node2" class="node">
<title>var8430738502437568514</title>
<polygon fill="none" stroke="black" points="126,-180 72,-180 72,-144 126,-144 126,-180"/>
<text text-anchor="middle" x="99" y="-158.3" font-family="Times,serif" font-size="14.00">u2</text>
</g>
<!-- var8646911284551352323 -->
<g id="node7" class="node">
<title>var8646911284551352323</title>
<ellipse fill="none" stroke="black" cx="171" cy="-90" rx="27" ry="18"/>
<text text-anchor="middle" x="171" y="-86.3" font-family="Times,serif" font-size="14.00">x3</text>
</g>
<!-- var8430738502437568514&#45;&gt;var8646911284551352323 -->
<g id="edge4" class="edge">
<title>var8430738502437568514&#45;&gt;var8646911284551352323</title>
<path fill="none" stroke="black" d="M117.17,-143.83C126.73,-134.27 138.53,-122.47 148.65,-112.35"/>
<polygon fill="black" stroke="black" points="151.4,-114.55 155.99,-105.01 146.45,-109.6 151.4,-114.55"/>
</g>
<!-- var8430738502437568515 -->
<g id="node3" class="node">
<title>var8430738502437568515</title>
<polygon fill="none" stroke="black" points="198,-180 144,-180 144,-144 198,-144 198,-180"/>
<text text-anchor="middle" x="171" y="-158.3" font-family="Times,serif" font-size="14.00">u3</text>
</g>
<!-- var8646911284551352324 -->
<g id="node8" class="node">
<title>var8646911284551352324</title>
<ellipse fill="none" stroke="black" cx="243" cy="-90" rx="27" ry="18"/>
<text text-anchor="middle" x="243" y="-86.3" font-family="Times,serif" font-size="14.00">x4</text>
</g>
<!-- var8430738502437568515&#45;&gt;var8646911284551352324 -->
<g id="edge6" class="edge">
<title>var8430738502437568515&#45;&gt;var8646911284551352324</title>
<path fill="none" stroke="black" d="M189.17,-143.83C198.73,-134.27 210.53,-122.47 220.65,-112.35"/>
<polygon fill="black" stroke="black" points="223.4,-114.55 227.99,-105.01 218.45,-109.6 223.4,-114.55"/>
</g>
<!-- var8430738502437568516 -->
<g id="node4" class="node">
<title>var8430738502437568516</title>
<polygon fill="none" stroke="black" points="270,-180 216,-180 216,-144 270,-144 270,-180"/>
<text text-anchor="middle" x="243" y="-158.3" font-family="Times,serif" font-size="14.00">u4</text>
</g>
<!-- var8646911284551352325 -->
<g id="node9" class="node">
<title>var8646911284551352325</title>
<ellipse fill="none" stroke="black" cx="315" cy="-90" rx="27" ry="18"/>
<text text-anchor="middle" x="315" y="-86.3" font-family="Times,serif" font-size="14.00">x5</text>
</g>
<!-- var8430738502437568516&#45;&gt;var8646911284551352325 -->
<g id="edge8" class="edge">
<title>var8430738502437568516&#45;&gt;var8646911284551352325</title>
<path fill="none" stroke="black" d="M261.17,-143.83C270.73,-134.27 282.53,-122.47 292.65,-112.35"/>
<polygon fill="black" stroke="black" points="295.4,-114.55 299.99,-105.01 290.45,-109.6 295.4,-114.55"/>
</g>
<!-- var8646911284551352321 -->
<g id="node5" class="node">
<title>var8646911284551352321</title>
<ellipse fill="none" stroke="black" cx="27" cy="-90" rx="27" ry="18"/>
<text text-anchor="middle" x="27" y="-86.3" font-family="Times,serif" font-size="14.00">x1</text>
</g>
<!-- var8646911284551352321&#45;&gt;var8646911284551352322 -->
<g id="edge1" class="edge">
<title>var8646911284551352321&#45;&gt;var8646911284551352322</title>
<path fill="none" stroke="black" d="M54.22,-90C56.64,-90 59.11,-90 61.6,-90"/>
<polygon fill="black" stroke="black" points="61.74,-93.5 71.74,-90 61.74,-86.5 61.74,-93.5"/>
</g>
<!-- var8791026472627208193 -->
<g id="node10" class="node">
<title>var8791026472627208193</title>
<ellipse fill="none" stroke="black" cx="27" cy="-18" rx="27" ry="18"/>
<text text-anchor="middle" x="27" y="-14.3" font-family="Times,serif" font-size="14.00">z1</text>
</g>
<!-- var8646911284551352321&#45;&gt;var8791026472627208193 -->
<g id="edge13" class="edge">
<title>var8646911284551352321&#45;&gt;var8791026472627208193</title>
<path fill="none" stroke="black" d="M27,-71.83C27,-64.13 27,-54.97 27,-46.42"/>
<polygon fill="black" stroke="black" points="30.5,-46.41 27,-36.41 23.5,-46.41 30.5,-46.41"/>
</g>
<!-- var8646911284551352322&#45;&gt;var8646911284551352323 -->
<g id="edge3" class="edge">
<title>var8646911284551352322&#45;&gt;var8646911284551352323</title>
<path fill="none" stroke="black" d="M126.22,-90C128.64,-90 131.11,-90 133.6,-90"/>
<polygon fill="black" stroke="black" points="133.74,-93.5 143.74,-90 133.74,-86.5 133.74,-93.5"/>
</g>
<!-- var8791026472627208194 -->
<g id="node11" class="node">
<title>var8791026472627208194</title>
<ellipse fill="none" stroke="black" cx="99" cy="-18" rx="27" ry="18"/>
<text text-anchor="middle" x="99" y="-14.3" font-family="Times,serif" font-size="14.00">z2</text>
</g>
<!-- var8646911284551352322&#45;&gt;var8791026472627208194 -->
<g id="edge12" class="edge">
<title>var8646911284551352322&#45;&gt;var8791026472627208194</title>
<path fill="none" stroke="black" d="M99,-71.83C99,-64.13 99,-54.97 99,-46.42"/>
<polygon fill="black" stroke="black" points="102.5,-46.41 99,-36.41 95.5,-46.41 102.5,-46.41"/>
</g>
<!-- var8646911284551352323&#45;&gt;var8646911284551352324 -->
<g id="edge5" class="edge">
<title>var8646911284551352323&#45;&gt;var8646911284551352324</title>
<path fill="none" stroke="black" d="M198.22,-90C200.64,-90 203.11,-90 205.6,-90"/>
<polygon fill="black" stroke="black" points="205.74,-93.5 215.74,-90 205.74,-86.5 205.74,-93.5"/>
</g>
<!-- var8791026472627208195 -->
<g id="node12" class="node">
<title>var8791026472627208195</title>
<ellipse fill="none" stroke="black" cx="171" cy="-18" rx="27" ry="18"/>
<text text-anchor="middle" x="171" y="-14.3" font-family="Times,serif" font-size="14.00">z3</text>
</g>
<!-- var8646911284551352323&#45;&gt;var8791026472627208195 -->
<g id="edge11" class="edge">
<title>var8646911284551352323&#45;&gt;var8791026472627208195</title>
<path fill="none" stroke="black" d="M171,-71.83C171,-64.13 171,-54.97 171,-46.42"/>
<polygon fill="black" stroke="black" points="174.5,-46.41 171,-36.41 167.5,-46.41 174.5,-46.41"/>
</g>
<!-- var8646911284551352324&#45;&gt;var8646911284551352325 -->
<g id="edge7" class="edge">
<title>var8646911284551352324&#45;&gt;var8646911284551352325</title>
<path fill="none" stroke="black" d="M270.22,-90C272.64,-90 275.11,-90 277.6,-90"/>
<polygon fill="black" stroke="black" points="277.74,-93.5 287.74,-90 277.74,-86.5 277.74,-93.5"/>
</g>
<!-- var8791026472627208196 -->
<g id="node13" class="node">
<title>var8791026472627208196</title>
<ellipse fill="none" stroke="black" cx="243" cy="-18" rx="27" ry="18"/>
<text text-anchor="middle" x="243" y="-14.3" font-family="Times,serif" font-size="14.00">z4</text>
</g>
<!-- var8646911284551352324&#45;&gt;var8791026472627208196 -->
<g id="edge10" class="edge">
<title>var8646911284551352324&#45;&gt;var8791026472627208196</title>
<path fill="none" stroke="black" d="M243,-71.83C243,-64.13 243,-54.97 243,-46.42"/>
<polygon fill="black" stroke="black" points="246.5,-46.41 243,-36.41 239.5,-46.41 246.5,-46.41"/>
</g>
<!-- var8791026472627208197 -->
<g id="node14" class="node">
<title>var8791026472627208197</title>
<ellipse fill="none" stroke="black" cx="315" cy="-18" rx="27" ry="18"/>
<text text-anchor="middle" x="315" y="-14.3" font-family="Times,serif" font-size="14.00">z5</text>
</g>
<!-- var8646911284551352325&#45;&gt;var8791026472627208197 -->
<g id="edge9" class="edge">
<title>var8646911284551352325&#45;&gt;var8791026472627208197</title>
<path fill="none" stroke="black" d="M315,-71.83C315,-64.13 315,-54.97 315,-46.42"/>
<polygon fill="black" stroke="black" points="318.5,-46.41 315,-36.41 311.5,-46.41 318.5,-46.41"/>
</g>
</g>
</svg>
