<?xml version="1.0" encoding="UTF-8" standalone="no"?>
<!DOCTYPE svg PUBLIC "-//W3C//DTD SVG 1.1//EN"
 "http://www.w3.org/Graphics/SVG/1.1/DTD/svg11.dtd">
<!-- Generated by graphviz version 3.0.0 (20220227.1548)
 -->
<!-- Pages: 1 -->
<svg width="360pt" height="16pt"
 viewBox="0.00 0.00 360.00 15.86" xmlns="http://www.w3.org/2000/svg" xmlns:xlink="http://www.w3.org/1999/xlink">
<g id="graph0" class="graph" transform="scale(0.360379 0.360379) rotate(0) translate(4 40)">
<polygon fill="white" stroke="transparent" points="-4,4 -4,-40 994.95,-40 994.95,4 -4,4"/>
<!-- varx1 -->
<g id="node1" class="node">
<title>varx1</title>
<ellipse fill="none" stroke="black" cx="27" cy="-18" rx="27" ry="18"/>
<text text-anchor="middle" x="27" y="-14.3" font-family="Times,serif" font-size="14.00">x1</text>
</g>
<!-- varx2 -->
<g id="node2" class="node">
<title>varx2</title>
<ellipse fill="none" stroke="black" cx="99" cy="-18" rx="27" ry="18"/>
<text text-anchor="middle" x="99" y="-14.3" font-family="Times,serif" font-size="14.00">x2</text>
</g>
<!-- varx2&#45;&gt;varx1 -->
<g id="edge13" class="edge">
<title>varx2&#45;&gt;varx1</title>
<path fill="none" stroke="black" d="M71.78,-18C69.36,-18 66.89,-18 64.4,-18"/>
<polygon fill="black" stroke="black" points="64.26,-14.5 54.26,-18 64.26,-21.5 64.26,-14.5"/>
</g>
<!-- varx3 -->
<g id="node3" class="node">
<title>varx3</title>
<ellipse fill="none" stroke="black" cx="171" cy="-18" rx="27" ry="18"/>
<text text-anchor="middle" x="171" y="-14.3" font-family="Times,serif" font-size="14.00">x3</text>
</g>
<!-- varx3&#45;&gt;varx2 -->
<g id="edge12" class="edge">
<title>varx3&#45;&gt;varx2</title>
<path fill="none" stroke="black" d="M143.78,-18C141.36,-18 138.89,-18 136.4,-18"/>
<polygon fill="black" stroke="black" points="136.26,-14.5 126.26,-18 136.26,-21.5 136.26,-14.5"/>
</g>
<!-- varx4 -->
<g id="node4" class="node">
<title>varx4</title>
<ellipse fill="none" stroke="black" cx="243" cy="-18" rx="27" ry="18"/>
<text text-anchor="middle" x="243" y="-14.3" font-family="Times,serif" font-size="14.00">x4</text>
</g>
<!-- varx4&#45;&gt;varx3 -->
<g id="edge11" class="edge">
<title>varx4&#45;&gt;varx3</title>
<path fill="none" stroke="black" d="M215.78,-18C213.36,-18 210.89,-18 208.4,-18"/>
<polygon fill="black" stroke="black" points="208.26,-14.5 198.26,-18 208.26,-21.5 208.26,-14.5"/>
</g>
<!-- varx5 -->
<g id="node5" class="node">
<title>varx5</title>
<ellipse fill="none" stroke="black" cx="315" cy="-18" rx="27" ry="18"/>
<text text-anchor="middle" x="315" y="-14.3" font-family="Times,serif" font-size="14.00">x5</text>
</g>
<!-- varx5&#45;&gt;varx4 -->
<g id="edge10" class="edge">
<title>varx5&#45;&gt;varx4</title>
<path fill="none" stroke="black" d="M287.78,-18C285.36,-18 282.89,-18 280.4,-18"/>
<polygon fill="black" stroke="black" points="280.26,-14.5 270.26,-18 280.26,-21.5 280.26,-14.5"/>
</g>
<!-- varx6 -->
<g id="node6" class="node">
<title>varx6</title>
<ellipse fill="none" stroke="black" cx="387" cy="-18" rx="27" ry="18"/>
<text text-anchor="middle" x="387" y="-14.3" font-family="Times,serif" font-size="14.00">x6</text>
</g>
<!-- varx6&#45;&gt;varx5 -->
<g id="edge9" class="edge">
<title>varx6&#45;&gt;varx5</title>
<path fill="none" stroke="black" d="M359.78,-18C357.36,-18 354.89,-18 352.4,-18"/>
<polygon fill="black" stroke="black" points="352.26,-14.5 342.26,-18 352.26,-21.5 352.26,-14.5"/>
</g>
<!-- varx7 -->
<g id="node7" class="node">
<title>varx7</title>
<ellipse fill="none" stroke="black" cx="459" cy="-18" rx="27" ry="18"/>
<text text-anchor="middle" x="459" y="-14.3" font-family="Times,serif" font-size="14.00">x7</text>
</g>
<!-- varx7&#45;&gt;varx6 -->
<g id="edge8" class="edge">
<title>varx7&#45;&gt;varx6</title>
<path fill="none" stroke="black" d="M431.78,-18C429.36,-18 426.89,-18 424.4,-18"/>
<polygon fill="black" stroke="black" points="424.26,-14.5 414.26,-18 424.26,-21.5 424.26,-14.5"/>
</g>
<!-- varx8 -->
<g id="node8" class="node">
<title>varx8</title>
<ellipse fill="none" stroke="black" cx="531" cy="-18" rx="27" ry="18"/>
<text text-anchor="middle" x="531" y="-14.3" font-family="Times,serif" font-size="14.00">x8</text>
</g>
<!-- varx8&#45;&gt;varx7 -->
<g id="edge7" class="edge">
<title>varx8&#45;&gt;varx7</title>
<path fill="none" stroke="black" d="M503.78,-18C501.36,-18 498.89,-18 496.4,-18"/>
<polygon fill="black" stroke="black" points="496.26,-14.5 486.26,-18 496.26,-21.5 496.26,-14.5"/>
</g>
<!-- varx9 -->
<g id="node9" class="node">
<title>varx9</title>
<ellipse fill="none" stroke="black" cx="603" cy="-18" rx="27" ry="18"/>
<text text-anchor="middle" x="603" y="-14.3" font-family="Times,serif" font-size="14.00">x9</text>
</g>
<!-- varx9&#45;&gt;varx8 -->
<g id="edge6" class="edge">
<title>varx9&#45;&gt;varx8</title>
<path fill="none" stroke="black" d="M575.78,-18C573.36,-18 570.89,-18 568.4,-18"/>
<polygon fill="black" stroke="black" points="568.26,-14.5 558.26,-18 568.26,-21.5 568.26,-14.5"/>
</g>
<!-- varx10 -->
<g id="node10" class="node">
<title>varx10</title>
<ellipse fill="none" stroke="black" cx="675" cy="-18" rx="27.9" ry="18"/>
<text text-anchor="middle" x="675" y="-14.3" font-family="Times,serif" font-size="14.00">x10</text>
</g>
<!-- varx10&#45;&gt;varx9 -->
<g id="edge5" class="edge">
<title>varx10&#45;&gt;varx9</title>
<path fill="none" stroke="black" d="M646.96,-18C644.8,-18 642.6,-18 640.39,-18"/>
<polygon fill="black" stroke="black" points="640.14,-14.5 630.14,-18 640.14,-21.5 640.14,-14.5"/>
</g>
<!-- varx11 -->
<g id="node11" class="node">
<title>varx11</title>
<ellipse fill="none" stroke="black" cx="747" cy="-18" rx="27.9" ry="18"/>
<text text-anchor="middle" x="747" y="-14.3" font-family="Times,serif" font-size="14.00">x11</text>
</g>
<!-- varx11&#45;&gt;varx10 -->
<g id="edge4" class="edge">
<title>varx11&#45;&gt;varx10</title>
<path fill="none" stroke="black" d="M718.96,-18C717.17,-18 715.35,-18 713.52,-18"/>
<polygon fill="black" stroke="black" points="713.09,-14.5 703.09,-18 713.09,-21.5 713.09,-14.5"/>
</g>
<!-- varx12 -->
<g id="node12" class="node">
<title>varx12</title>
<ellipse fill="none" stroke="black" cx="819" cy="-18" rx="27.9" ry="18"/>
<text text-anchor="middle" x="819" y="-14.3" font-family="Times,serif" font-size="14.00">x12</text>
</g>
<!-- varx12&#45;&gt;varx11 -->
<g id="edge3" class="edge">
<title>varx12&#45;&gt;varx11</title>
<path fill="none" stroke="black" d="M790.96,-18C789.17,-18 787.35,-18 785.52,-18"/>
<polygon fill="black" stroke="black" points="785.09,-14.5 775.09,-18 785.09,-21.5 785.09,-14.5"/>
</g>
<!-- varx13 -->
<g id="node13" class="node">
<title>varx13</title>
<ellipse fill="none" stroke="black" cx="891" cy="-18" rx="27.9" ry="18"/>
<text text-anchor="middle" x="891" y="-14.3" font-family="Times,serif" font-size="14.00">x13</text>
</g>
<!-- varx13&#45;&gt;varx12 -->
<g id="edge2" class="edge">
<title>varx13&#45;&gt;varx12</title>
<path fill="none" stroke="black" d="M862.96,-18C861.17,-18 859.35,-18 857.52,-18"/>
<polygon fill="black" stroke="black" points="857.09,-14.5 847.09,-18 857.09,-21.5 857.09,-14.5"/>
</g>
<!-- varx14 -->
<g id="node14" class="node">
<title>varx14</title>
<ellipse fill="none" stroke="black" cx="963" cy="-18" rx="27.9" ry="18"/>
<text text-anchor="middle" x="963" y="-14.3" font-family="Times,serif" font-size="14.00">x14</text>
</g>
<!-- varx14&#45;&gt;varx13 -->
<g id="edge1" class="edge">
<title>varx14&#45;&gt;varx13</title>
<path fill="none" stroke="black" d="M934.96,-18C933.17,-18 931.35,-18 929.52,-18"/>
<polygon fill="black" stroke="black" points="929.09,-14.5 919.09,-18 929.09,-21.5 929.09,-14.5"/>
</g>
</g>
</svg>
