<?xml version="1.0" encoding="UTF-8" standalone="no"?>
<!DOCTYPE svg PUBLIC "-//W3C//DTD SVG 1.1//EN"
 "http://www.w3.org/Graphics/SVG/1.1/DTD/svg11.dtd">
<!-- Generated by graphviz version 2.50.0 (20220117.2223)
 -->
<!-- Pages: 1 -->
<svg width="360pt" height="23pt"
 viewBox="0.00 0.00 360.00 22.51" xmlns="http://www.w3.org/2000/svg" xmlns:xlink="http://www.w3.org/1999/xlink">
<g id="graph0" class="graph" transform="scale(0.35 0.35) rotate(0) translate(4 59.8)">
<polygon fill="white" stroke="transparent" points="-4,4 -4,-59.8 1016.55,-59.8 1016.55,4 -4,4"/>
<!-- varx1 -->
<g id="node1" class="node">
<title>varx1</title>
<ellipse fill="none" stroke="black" cx="48.6" cy="-37.8" rx="27" ry="18"/>
<text text-anchor="middle" x="48.6" y="-34.1" font-family="Times,serif" font-size="14.00">x1</text>
</g>
<!-- factor0 -->
<g id="node15" class="node">
<title>factor0</title>
<ellipse fill="black" stroke="black" cx="1.8" cy="-37.8" rx="1.8" ry="1.8"/>
</g>
<!-- varx1&#45;&#45;factor0 -->
<g id="edge1" class="edge">
<title>varx1&#45;&#45;factor0</title>
<path fill="none" stroke="black" d="M21.38,-37.8C13.98,-37.8 7.1,-37.8 3.82,-37.8"/>
</g>
<!-- factor1 -->
<g id="node16" class="node">
<title>factor1</title>
<ellipse fill="black" stroke="black" cx="84.6" cy="-37.8" rx="1.8" ry="1.8"/>
</g>
<!-- varx1&#45;&#45;factor1 -->
<g id="edge3" class="edge">
<title>varx1&#45;&#45;factor1</title>
<path fill="none" stroke="black" d="M75.89,-37.8C78.71,-37.8 81.11,-37.8 82.68,-37.8"/>
</g>
<!-- factor14 -->
<g id="node29" class="node">
<title>factor14</title>
<ellipse fill="black" stroke="black" cx="48.6" cy="-1.8" rx="1.8" ry="1.8"/>
</g>
<!-- varx1&#45;&#45;factor14 -->
<g id="edge28" class="edge">
<title>varx1&#45;&#45;factor14</title>
<path fill="none" stroke="black" d="M48.6,-19.8C48.6,-13.33 48.6,-6.86 48.6,-3.74"/>
</g>
<!-- varx2 -->
<g id="node2" class="node">
<title>varx2</title>
<ellipse fill="none" stroke="black" cx="120.6" cy="-37.8" rx="27" ry="18"/>
<text text-anchor="middle" x="120.6" y="-34.1" font-family="Times,serif" font-size="14.00">x2</text>
</g>
<!-- varx2&#45;&#45;factor1 -->
<g id="edge2" class="edge">
<title>varx2&#45;&#45;factor1</title>
<path fill="none" stroke="black" d="M93.31,-37.8C90.49,-37.8 88.09,-37.8 86.52,-37.8"/>
</g>
<!-- factor2 -->
<g id="node17" class="node">
<title>factor2</title>
<ellipse fill="black" stroke="black" cx="156.6" cy="-37.8" rx="1.8" ry="1.8"/>
</g>
<!-- varx2&#45;&#45;factor2 -->
<g id="edge5" class="edge">
<title>varx2&#45;&#45;factor2</title>
<path fill="none" stroke="black" d="M147.89,-37.8C150.71,-37.8 153.11,-37.8 154.68,-37.8"/>
</g>
<!-- factor15 -->
<g id="node30" class="node">
<title>factor15</title>
<ellipse fill="black" stroke="black" cx="120.6" cy="-1.8" rx="1.8" ry="1.8"/>
</g>
<!-- varx2&#45;&#45;factor15 -->
<g id="edge29" class="edge">
<title>varx2&#45;&#45;factor15</title>
<path fill="none" stroke="black" d="M120.6,-19.8C120.6,-13.33 120.6,-6.86 120.6,-3.74"/>
</g>
<!-- varx3 -->
<g id="node3" class="node">
<title>varx3</title>
<ellipse fill="none" stroke="black" cx="192.6" cy="-37.8" rx="27" ry="18"/>
<text text-anchor="middle" x="192.6" y="-34.1" font-family="Times,serif" font-size="14.00">x3</text>
</g>
<!-- varx3&#45;&#45;factor2 -->
<g id="edge4" class="edge">
<title>varx3&#45;&#45;factor2</title>
<path fill="none" stroke="black" d="M165.31,-37.8C162.49,-37.8 160.09,-37.8 158.52,-37.8"/>
</g>
<!-- factor3 -->
<g id="node18" class="node">
<title>factor3</title>
<ellipse fill="black" stroke="black" cx="228.6" cy="-37.8" rx="1.8" ry="1.8"/>
</g>
<!-- varx3&#45;&#45;factor3 -->
<g id="edge7" class="edge">
<title>varx3&#45;&#45;factor3</title>
<path fill="none" stroke="black" d="M219.89,-37.8C222.71,-37.8 225.11,-37.8 226.68,-37.8"/>
</g>
<!-- factor16 -->
<g id="node31" class="node">
<title>factor16</title>
<ellipse fill="black" stroke="black" cx="192.6" cy="-1.8" rx="1.8" ry="1.8"/>
</g>
<!-- varx3&#45;&#45;factor16 -->
<g id="edge30" class="edge">
<title>varx3&#45;&#45;factor16</title>
<path fill="none" stroke="black" d="M192.6,-19.8C192.6,-13.33 192.6,-6.86 192.6,-3.74"/>
</g>
<!-- varx4 -->
<g id="node4" class="node">
<title>varx4</title>
<ellipse fill="none" stroke="black" cx="264.6" cy="-37.8" rx="27" ry="18"/>
<text text-anchor="middle" x="264.6" y="-34.1" font-family="Times,serif" font-size="14.00">x4</text>
</g>
<!-- varx4&#45;&#45;factor3 -->
<g id="edge6" class="edge">
<title>varx4&#45;&#45;factor3</title>
<path fill="none" stroke="black" d="M237.31,-37.8C234.49,-37.8 232.09,-37.8 230.52,-37.8"/>
</g>
<!-- factor4 -->
<g id="node19" class="node">
<title>factor4</title>
<ellipse fill="black" stroke="black" cx="300.6" cy="-37.8" rx="1.8" ry="1.8"/>
</g>
<!-- varx4&#45;&#45;factor4 -->
<g id="edge9" class="edge">
<title>varx4&#45;&#45;factor4</title>
<path fill="none" stroke="black" d="M291.89,-37.8C294.71,-37.8 297.11,-37.8 298.68,-37.8"/>
</g>
<!-- factor17 -->
<g id="node32" class="node">
<title>factor17</title>
<ellipse fill="black" stroke="black" cx="264.6" cy="-1.8" rx="1.8" ry="1.8"/>
</g>
<!-- varx4&#45;&#45;factor17 -->
<g id="edge31" class="edge">
<title>varx4&#45;&#45;factor17</title>
<path fill="none" stroke="black" d="M264.6,-19.8C264.6,-13.33 264.6,-6.86 264.6,-3.74"/>
</g>
<!-- varx5 -->
<g id="node5" class="node">
<title>varx5</title>
<ellipse fill="none" stroke="black" cx="336.6" cy="-37.8" rx="27" ry="18"/>
<text text-anchor="middle" x="336.6" y="-34.1" font-family="Times,serif" font-size="14.00">x5</text>
</g>
<!-- varx5&#45;&#45;factor4 -->
<g id="edge8" class="edge">
<title>varx5&#45;&#45;factor4</title>
<path fill="none" stroke="black" d="M309.31,-37.8C306.49,-37.8 304.09,-37.8 302.52,-37.8"/>
</g>
<!-- factor5 -->
<g id="node20" class="node">
<title>factor5</title>
<ellipse fill="black" stroke="black" cx="372.6" cy="-37.8" rx="1.8" ry="1.8"/>
</g>
<!-- varx5&#45;&#45;factor5 -->
<g id="edge11" class="edge">
<title>varx5&#45;&#45;factor5</title>
<path fill="none" stroke="black" d="M363.89,-37.8C366.71,-37.8 369.11,-37.8 370.68,-37.8"/>
</g>
<!-- factor18 -->
<g id="node33" class="node">
<title>factor18</title>
<ellipse fill="black" stroke="black" cx="336.6" cy="-1.8" rx="1.8" ry="1.8"/>
</g>
<!-- varx5&#45;&#45;factor18 -->
<g id="edge32" class="edge">
<title>varx5&#45;&#45;factor18</title>
<path fill="none" stroke="black" d="M336.6,-19.8C336.6,-13.33 336.6,-6.86 336.6,-3.74"/>
</g>
<!-- varx6 -->
<g id="node6" class="node">
<title>varx6</title>
<ellipse fill="none" stroke="black" cx="408.6" cy="-37.8" rx="27" ry="18"/>
<text text-anchor="middle" x="408.6" y="-34.1" font-family="Times,serif" font-size="14.00">x6</text>
</g>
<!-- varx6&#45;&#45;factor5 -->
<g id="edge10" class="edge">
<title>varx6&#45;&#45;factor5</title>
<path fill="none" stroke="black" d="M381.31,-37.8C378.49,-37.8 376.09,-37.8 374.52,-37.8"/>
</g>
<!-- factor6 -->
<g id="node21" class="node">
<title>factor6</title>
<ellipse fill="black" stroke="black" cx="444.6" cy="-37.8" rx="1.8" ry="1.8"/>
</g>
<!-- varx6&#45;&#45;factor6 -->
<g id="edge13" class="edge">
<title>varx6&#45;&#45;factor6</title>
<path fill="none" stroke="black" d="M435.89,-37.8C438.71,-37.8 441.11,-37.8 442.68,-37.8"/>
</g>
<!-- factor19 -->
<g id="node34" class="node">
<title>factor19</title>
<ellipse fill="black" stroke="black" cx="408.6" cy="-1.8" rx="1.8" ry="1.8"/>
</g>
<!-- varx6&#45;&#45;factor19 -->
<g id="edge33" class="edge">
<title>varx6&#45;&#45;factor19</title>
<path fill="none" stroke="black" d="M408.6,-19.8C408.6,-13.33 408.6,-6.86 408.6,-3.74"/>
</g>
<!-- varx7 -->
<g id="node7" class="node">
<title>varx7</title>
<ellipse fill="none" stroke="black" cx="480.6" cy="-37.8" rx="27" ry="18"/>
<text text-anchor="middle" x="480.6" y="-34.1" font-family="Times,serif" font-size="14.00">x7</text>
</g>
<!-- varx7&#45;&#45;factor6 -->
<g id="edge12" class="edge">
<title>varx7&#45;&#45;factor6</title>
<path fill="none" stroke="black" d="M453.31,-37.8C450.49,-37.8 448.09,-37.8 446.52,-37.8"/>
</g>
<!-- factor7 -->
<g id="node22" class="node">
<title>factor7</title>
<ellipse fill="black" stroke="black" cx="516.6" cy="-37.8" rx="1.8" ry="1.8"/>
</g>
<!-- varx7&#45;&#45;factor7 -->
<g id="edge15" class="edge">
<title>varx7&#45;&#45;factor7</title>
<path fill="none" stroke="black" d="M507.89,-37.8C510.71,-37.8 513.11,-37.8 514.68,-37.8"/>
</g>
<!-- factor20 -->
<g id="node35" class="node">
<title>factor20</title>
<ellipse fill="black" stroke="black" cx="480.6" cy="-1.8" rx="1.8" ry="1.8"/>
</g>
<!-- varx7&#45;&#45;factor20 -->
<g id="edge34" class="edge">
<title>varx7&#45;&#45;factor20</title>
<path fill="none" stroke="black" d="M480.6,-19.8C480.6,-13.33 480.6,-6.86 480.6,-3.74"/>
</g>
<!-- varx8 -->
<g id="node8" class="node">
<title>varx8</title>
<ellipse fill="none" stroke="black" cx="552.6" cy="-37.8" rx="27" ry="18"/>
<text text-anchor="middle" x="552.6" y="-34.1" font-family="Times,serif" font-size="14.00">x8</text>
</g>
<!-- varx8&#45;&#45;factor7 -->
<g id="edge14" class="edge">
<title>varx8&#45;&#45;factor7</title>
<path fill="none" stroke="black" d="M525.31,-37.8C522.49,-37.8 520.09,-37.8 518.52,-37.8"/>
</g>
<!-- factor8 -->
<g id="node23" class="node">
<title>factor8</title>
<ellipse fill="black" stroke="black" cx="588.6" cy="-37.8" rx="1.8" ry="1.8"/>
</g>
<!-- varx8&#45;&#45;factor8 -->
<g id="edge17" class="edge">
<title>varx8&#45;&#45;factor8</title>
<path fill="none" stroke="black" d="M579.89,-37.8C582.71,-37.8 585.11,-37.8 586.68,-37.8"/>
</g>
<!-- factor21 -->
<g id="node36" class="node">
<title>factor21</title>
<ellipse fill="black" stroke="black" cx="552.6" cy="-1.8" rx="1.8" ry="1.8"/>
</g>
<!-- varx8&#45;&#45;factor21 -->
<g id="edge35" class="edge">
<title>varx8&#45;&#45;factor21</title>
<path fill="none" stroke="black" d="M552.6,-19.8C552.6,-13.33 552.6,-6.86 552.6,-3.74"/>
</g>
<!-- varx9 -->
<g id="node9" class="node">
<title>varx9</title>
<ellipse fill="none" stroke="black" cx="624.6" cy="-37.8" rx="27" ry="18"/>
<text text-anchor="middle" x="624.6" y="-34.1" font-family="Times,serif" font-size="14.00">x9</text>
</g>
<!-- varx9&#45;&#45;factor8 -->
<g id="edge16" class="edge">
<title>varx9&#45;&#45;factor8</title>
<path fill="none" stroke="black" d="M597.31,-37.8C594.49,-37.8 592.09,-37.8 590.52,-37.8"/>
</g>
<!-- factor9 -->
<g id="node24" class="node">
<title>factor9</title>
<ellipse fill="black" stroke="black" cx="660.6" cy="-37.8" rx="1.8" ry="1.8"/>
</g>
<!-- varx9&#45;&#45;factor9 -->
<g id="edge19" class="edge">
<title>varx9&#45;&#45;factor9</title>
<path fill="none" stroke="black" d="M651.89,-37.8C654.71,-37.8 657.11,-37.8 658.68,-37.8"/>
</g>
<!-- factor22 -->
<g id="node37" class="node">
<title>factor22</title>
<ellipse fill="black" stroke="black" cx="624.6" cy="-1.8" rx="1.8" ry="1.8"/>
</g>
<!-- varx9&#45;&#45;factor22 -->
<g id="edge36" class="edge">
<title>varx9&#45;&#45;factor22</title>
<path fill="none" stroke="black" d="M624.6,-19.8C624.6,-13.33 624.6,-6.86 624.6,-3.74"/>
</g>
<!-- varx10 -->
<g id="node10" class="node">
<title>varx10</title>
<ellipse fill="none" stroke="black" cx="696.6" cy="-37.8" rx="27.9" ry="18"/>
<text text-anchor="middle" x="696.6" y="-34.1" font-family="Times,serif" font-size="14.00">x10</text>
</g>
<!-- varx10&#45;&#45;factor9 -->
<g id="edge18" class="edge">
<title>varx10&#45;&#45;factor9</title>
<path fill="none" stroke="black" d="M668.59,-37.8C666.27,-37.8 664.27,-37.8 662.85,-37.8"/>
</g>
<!-- factor10 -->
<g id="node25" class="node">
<title>factor10</title>
<ellipse fill="black" stroke="black" cx="732.6" cy="-37.8" rx="1.8" ry="1.8"/>
</g>
<!-- varx10&#45;&#45;factor10 -->
<g id="edge21" class="edge">
<title>varx10&#45;&#45;factor10</title>
<path fill="none" stroke="black" d="M724.61,-37.8C726.93,-37.8 728.93,-37.8 730.35,-37.8"/>
</g>
<!-- factor23 -->
<g id="node38" class="node">
<title>factor23</title>
<ellipse fill="black" stroke="black" cx="696.6" cy="-1.8" rx="1.8" ry="1.8"/>
</g>
<!-- varx10&#45;&#45;factor23 -->
<g id="edge37" class="edge">
<title>varx10&#45;&#45;factor23</title>
<path fill="none" stroke="black" d="M696.6,-19.8C696.6,-13.33 696.6,-6.86 696.6,-3.74"/>
</g>
<!-- varx11 -->
<g id="node11" class="node">
<title>varx11</title>
<ellipse fill="none" stroke="black" cx="768.6" cy="-37.8" rx="27.9" ry="18"/>
<text text-anchor="middle" x="768.6" y="-34.1" font-family="Times,serif" font-size="14.00">x11</text>
</g>
<!-- varx11&#45;&#45;factor10 -->
<g id="edge20" class="edge">
<title>varx11&#45;&#45;factor10</title>
<path fill="none" stroke="black" d="M740.59,-37.8C738.27,-37.8 736.27,-37.8 734.85,-37.8"/>
</g>
<!-- factor11 -->
<g id="node26" class="node">
<title>factor11</title>
<ellipse fill="black" stroke="black" cx="804.6" cy="-37.8" rx="1.8" ry="1.8"/>
</g>
<!-- varx11&#45;&#45;factor11 -->
<g id="edge23" class="edge">
<title>varx11&#45;&#45;factor11</title>
<path fill="none" stroke="black" d="M796.61,-37.8C798.93,-37.8 800.93,-37.8 802.35,-37.8"/>
</g>
<!-- factor24 -->
<g id="node39" class="node">
<title>factor24</title>
<ellipse fill="black" stroke="black" cx="768.6" cy="-1.8" rx="1.8" ry="1.8"/>
</g>
<!-- varx11&#45;&#45;factor24 -->
<g id="edge38" class="edge">
<title>varx11&#45;&#45;factor24</title>
<path fill="none" stroke="black" d="M768.6,-19.8C768.6,-13.33 768.6,-6.86 768.6,-3.74"/>
</g>
<!-- varx12 -->
<g id="node12" class="node">
<title>varx12</title>
<ellipse fill="none" stroke="black" cx="840.6" cy="-37.8" rx="27.9" ry="18"/>
<text text-anchor="middle" x="840.6" y="-34.1" font-family="Times,serif" font-size="14.00">x12</text>
</g>
<!-- varx12&#45;&#45;factor11 -->
<g id="edge22" class="edge">
<title>varx12&#45;&#45;factor11</title>
<path fill="none" stroke="black" d="M812.59,-37.8C810.27,-37.8 808.27,-37.8 806.85,-37.8"/>
</g>
<!-- factor12 -->
<g id="node27" class="node">
<title>factor12</title>
<ellipse fill="black" stroke="black" cx="876.6" cy="-37.8" rx="1.8" ry="1.8"/>
</g>
<!-- varx12&#45;&#45;factor12 -->
<g id="edge25" class="edge">
<title>varx12&#45;&#45;factor12</title>
<path fill="none" stroke="black" d="M868.61,-37.8C870.93,-37.8 872.93,-37.8 874.35,-37.8"/>
</g>
<!-- factor25 -->
<g id="node40" class="node">
<title>factor25</title>
<ellipse fill="black" stroke="black" cx="840.6" cy="-1.8" rx="1.8" ry="1.8"/>
</g>
<!-- varx12&#45;&#45;factor25 -->
<g id="edge39" class="edge">
<title>varx12&#45;&#45;factor25</title>
<path fill="none" stroke="black" d="M840.6,-19.8C840.6,-13.33 840.6,-6.86 840.6,-3.74"/>
</g>
<!-- varx13 -->
<g id="node13" class="node">
<title>varx13</title>
<ellipse fill="none" stroke="black" cx="912.6" cy="-37.8" rx="27.9" ry="18"/>
<text text-anchor="middle" x="912.6" y="-34.1" font-family="Times,serif" font-size="14.00">x13</text>
</g>
<!-- varx13&#45;&#45;factor12 -->
<g id="edge24" class="edge">
<title>varx13&#45;&#45;factor12</title>
<path fill="none" stroke="black" d="M884.59,-37.8C882.27,-37.8 880.27,-37.8 878.85,-37.8"/>
</g>
<!-- factor13 -->
<g id="node28" class="node">
<title>factor13</title>
<ellipse fill="black" stroke="black" cx="948.6" cy="-37.8" rx="1.8" ry="1.8"/>
</g>
<!-- varx13&#45;&#45;factor13 -->
<g id="edge27" class="edge">
<title>varx13&#45;&#45;factor13</title>
<path fill="none" stroke="black" d="M940.61,-37.8C942.93,-37.8 944.93,-37.8 946.35,-37.8"/>
</g>
<!-- factor26 -->
<g id="node41" class="node">
<title>factor26</title>
<ellipse fill="black" stroke="black" cx="912.6" cy="-1.8" rx="1.8" ry="1.8"/>
</g>
<!-- varx13&#45;&#45;factor26 -->
<g id="edge40" class="edge">
<title>varx13&#45;&#45;factor26</title>
<path fill="none" stroke="black" d="M912.6,-19.8C912.6,-13.33 912.6,-6.86 912.6,-3.74"/>
</g>
<!-- varx14 -->
<g id="node14" class="node">
<title>varx14</title>
<ellipse fill="none" stroke="black" cx="984.6" cy="-37.8" rx="27.9" ry="18"/>
<text text-anchor="middle" x="984.6" y="-34.1" font-family="Times,serif" font-size="14.00">x14</text>
</g>
<!-- varx14&#45;&#45;factor13 -->
<g id="edge26" class="edge">
<title>varx14&#45;&#45;factor13</title>
<path fill="none" stroke="black" d="M956.59,-37.8C954.27,-37.8 952.27,-37.8 950.85,-37.8"/>
</g>
<!-- factor27 -->
<g id="node42" class="node">
<title>factor27</title>
<ellipse fill="black" stroke="black" cx="984.6" cy="-1.8" rx="1.8" ry="1.8"/>
</g>
<!-- varx14&#45;&#45;factor27 -->
<g id="edge41" class="edge">
<title>varx14&#45;&#45;factor27</title>
<path fill="none" stroke="black" d="M984.6,-19.8C984.6,-13.33 984.6,-6.86 984.6,-3.74"/>
</g>
</g>
</svg>
