<?xml version="1.0" encoding="UTF-8" standalone="no"?>
<!DOCTYPE svg PUBLIC "-//W3C//DTD SVG 1.1//EN"
 "http://www.w3.org/Graphics/SVG/1.1/DTD/svg11.dtd">
<!-- Generated by graphviz version 3.0.0 (20220315.2325)
 -->
<!-- Pages: 1 -->
<svg width="205pt" height="360pt"
 viewBox="0.00 0.00 204.67 360.00" xmlns="http://www.w3.org/2000/svg" xmlns:xlink="http://www.w3.org/1999/xlink">
<g id="graph0" class="graph" transform="scale(0.813277 0.813277) rotate(0) translate(4 438.65)">
<polygon fill="white" stroke="transparent" points="-4,4 -4,-438.65 247.66,-438.65 247.66,4 -4,4"/>
<!-- var1 -->
<g id="node1" class="node">
<title>var1</title>
<ellipse fill="none" stroke="black" cx="52.21" cy="-128.65" rx="27" ry="18"/>
<text text-anchor="middle" x="52.21" y="-124.95" font-family="Times,serif" font-size="14.00">1</text>
</g>
<!-- factor0 -->
<g id="node6" class="node">
<title>factor0</title>
<ellipse fill="black" stroke="black" cx="36.52" cy="-1.8" rx="1.8" ry="1.8"/>
</g>
<!-- var1&#45;&#45;factor0 -->
<g id="edge1" class="edge">
<title>var1&#45;&#45;factor0</title>
<path fill="none" stroke="black" d="M49.96,-110.48C46.03,-78.69 38.19,-15.26 36.75,-3.65"/>
</g>
<!-- factor1 -->
<g id="node7" class="node">
<title>factor1</title>
<ellipse fill="black" stroke="black" cx="2.52" cy="-123.93" rx="1.8" ry="1.8"/>
</g>
<!-- var1&#45;&#45;factor1 -->
<g id="edge2" class="edge">
<title>var1&#45;&#45;factor1</title>
<path fill="none" stroke="black" d="M25.33,-126.1C16.54,-125.26 8.1,-124.46 4.43,-124.11"/>
</g>
<!-- var2 -->
<g id="node2" class="node">
<title>var2</title>
<ellipse fill="none" stroke="black" cx="52.21" cy="-272.65" rx="27" ry="18"/>
<text text-anchor="middle" x="52.21" y="-268.95" font-family="Times,serif" font-size="14.00">2</text>
</g>
<!-- var2&#45;&#45;factor1 -->
<g id="edge3" class="edge">
<title>var2&#45;&#45;factor1</title>
<path fill="none" stroke="black" d="M46.31,-255.01C34.28,-219 7.65,-139.3 3.16,-125.87"/>
</g>
<!-- factor2 -->
<g id="node8" class="node">
<title>factor2</title>
<ellipse fill="black" stroke="black" cx="1.8" cy="-252.87" rx="1.8" ry="1.8"/>
</g>
<!-- var2&#45;&#45;factor2 -->
<g id="edge4" class="edge">
<title>var2&#45;&#45;factor2</title>
<path fill="none" stroke="black" d="M28.78,-263.46C18.49,-259.42 7.81,-255.23 3.63,-253.59"/>
</g>
<!-- factor5 -->
<g id="node11" class="node">
<title>factor5</title>
<ellipse fill="black" stroke="black" cx="126.77" cy="-184.09" rx="1.8" ry="1.8"/>
</g>
<!-- var2&#45;&#45;factor5 -->
<g id="edge11" class="edge">
<title>var2&#45;&#45;factor5</title>
<path fill="none" stroke="black" d="M65.54,-256.82C84.64,-234.13 118.29,-194.17 125.42,-185.7"/>
</g>
<!-- var3 -->
<g id="node3" class="node">
<title>var3</title>
<ellipse fill="none" stroke="black" cx="52.21" cy="-416.65" rx="27" ry="18"/>
<text text-anchor="middle" x="52.21" y="-412.95" font-family="Times,serif" font-size="14.00">3</text>
</g>
<!-- var3&#45;&#45;factor2 -->
<g id="edge5" class="edge">
<title>var3&#45;&#45;factor2</title>
<path fill="none" stroke="black" d="M46.72,-398.81C34.67,-359.68 6.66,-268.67 2.36,-254.68"/>
</g>
<!-- factor3 -->
<g id="node9" class="node">
<title>factor3</title>
<ellipse fill="black" stroke="black" cx="120.09" cy="-326.05" rx="1.8" ry="1.8"/>
</g>
<!-- var3&#45;&#45;factor3 -->
<g id="edge6" class="edge">
<title>var3&#45;&#45;factor3</title>
<path fill="none" stroke="black" d="M64.35,-400.46C81.74,-377.24 112.37,-336.36 118.86,-327.69"/>
</g>
<!-- var4 -->
<g id="node4" class="node">
<title>var4</title>
<ellipse fill="none" stroke="black" cx="196.21" cy="-416.65" rx="27" ry="18"/>
<text text-anchor="middle" x="196.21" y="-412.95" font-family="Times,serif" font-size="14.00">4</text>
</g>
<!-- var4&#45;&#45;factor3 -->
<g id="edge7" class="edge">
<title>var4&#45;&#45;factor3</title>
<path fill="none" stroke="black" d="M182.95,-400.87C163.53,-377.75 128.84,-336.46 121.49,-327.71"/>
</g>
<!-- factor4 -->
<g id="node10" class="node">
<title>factor4</title>
<ellipse fill="black" stroke="black" cx="241.86" cy="-276.37" rx="1.8" ry="1.8"/>
</g>
<!-- var4&#45;&#45;factor4 -->
<g id="edge8" class="edge">
<title>var4&#45;&#45;factor4</title>
<path fill="none" stroke="black" d="M201.99,-398.89C213.22,-364.38 237.23,-290.59 241.28,-278.17"/>
</g>
<!-- var5 -->
<g id="node5" class="node">
<title>var5</title>
<ellipse fill="none" stroke="black" cx="196.21" cy="-272.65" rx="27" ry="18"/>
<text text-anchor="middle" x="196.21" y="-268.95" font-family="Times,serif" font-size="14.00">5</text>
</g>
<!-- var5&#45;&#45;factor4 -->
<g id="edge9" class="edge">
<title>var5&#45;&#45;factor4</title>
<path fill="none" stroke="black" d="M223.03,-274.84C230.17,-275.42 236.78,-275.96 239.93,-276.21"/>
</g>
<!-- var5&#45;&#45;factor5 -->
<g id="edge10" class="edge">
<title>var5&#45;&#45;factor5</title>
<path fill="none" stroke="black" d="M183.47,-256.41C165.62,-233.64 134.59,-194.07 128.02,-185.68"/>
</g>
</g>
</svg>
