<?xml version="1.0" encoding="UTF-8" standalone="no"?>
<!DOCTYPE svg PUBLIC "-//W3C//DTD SVG 1.1//EN"
 "http://www.w3.org/Graphics/SVG/1.1/DTD/svg11.dtd">
<!-- Generated by graphviz version 6.0.1 (20220911.2005)
 -->
<!-- Pages: 1 -->
<svg width="360pt" height="180pt"
 viewBox="0.00 0.00 360.00 180.38" xmlns="http://www.w3.org/2000/svg" xmlns:xlink="http://www.w3.org/1999/xlink">
<g id="graph0" class="graph" transform="scale(0.959488 0.959488) rotate(0) translate(4 184)">
<polygon fill="white" stroke="none" points="-4,4 -4,-184 371.2,-184 371.2,4 -4,4"/>
<!-- var1 -->
<g id="node1" class="node">
<title>var1</title>
<ellipse fill="none" stroke="black" cx="27" cy="-25.2" rx="27" ry="18"/>
<text text-anchor="middle" x="27" y="-21.5" font-family="Times,serif" font-size="14.00">1</text>
</g>
<!-- var2 -->
<g id="node2" class="node">
<title>var2</title>
<ellipse fill="none" stroke="black" cx="210.6" cy="-18" rx="27" ry="18"/>
<text text-anchor="middle" x="210.6" y="-14.3" font-family="Times,serif" font-size="14.00">2</text>
</g>
<!-- var1&#45;&#45;var2 -->
<g id="edge2" class="edge">
<title>var1&#45;&#45;var2</title>
<path fill="none" stroke="black" d="M54.09,-24.14C88.8,-22.78 148.63,-20.43 183.4,-19.07"/>
</g>
<!-- var7782220156096217089 -->
<g id="node4" class="node">
<title>var7782220156096217089</title>
<ellipse fill="none" stroke="black" cx="174.6" cy="-162" rx="27" ry="18"/>
<text text-anchor="middle" x="174.6" y="-158.3" font-family="Times,serif" font-size="14.00">l1</text>
</g>
<!-- var1&#45;&#45;var7782220156096217089 -->
<g id="edge4" class="edge">
<title>var1&#45;&#45;var7782220156096217089</title>
<path fill="none" stroke="black" d="M42.8,-39.84C71.06,-66.03 129.97,-120.64 158.47,-147.05"/>
</g>
<!-- factor0 -->
<g id="node6" class="node">
<title>factor0</title>
<ellipse fill="black" stroke="black" cx="123" cy="-64.79" rx="1.8" ry="1.8"/>
</g>
<!-- var1&#45;&#45;factor0 -->
<g id="edge1" class="edge">
<title>var1&#45;&#45;factor0</title>
<path fill="none" stroke="black" d="M50.24,-34.78C75.1,-45.03 112.16,-60.32 121.03,-63.98"/>
</g>
<!-- var3 -->
<g id="node3" class="node">
<title>var3</title>
<ellipse fill="none" stroke="black" cx="340.2" cy="-18" rx="27" ry="18"/>
<text text-anchor="middle" x="340.2" y="-14.3" font-family="Times,serif" font-size="14.00">3</text>
</g>
<!-- var2&#45;&#45;var3 -->
<g id="edge3" class="edge">
<title>var2&#45;&#45;var3</title>
<path fill="none" stroke="black" d="M237.77,-18C259.89,-18 290.96,-18 313.07,-18"/>
</g>
<!-- var2&#45;&#45;var7782220156096217089 -->
<g id="edge5" class="edge">
<title>var2&#45;&#45;var7782220156096217089</title>
<path fill="none" stroke="black" d="M206.11,-35.95C199.21,-63.54 186.08,-116.1 179.14,-143.83"/>
</g>
<!-- var7782220156096217090 -->
<g id="node5" class="node">
<title>var7782220156096217090</title>
<ellipse fill="none" stroke="black" cx="340.2" cy="-140.4" rx="27" ry="18"/>
<text text-anchor="middle" x="340.2" y="-136.7" font-family="Times,serif" font-size="14.00">l2</text>
</g>
<!-- var3&#45;&#45;var7782220156096217090 -->
<g id="edge6" class="edge">
<title>var3&#45;&#45;var7782220156096217090</title>
<path fill="none" stroke="black" d="M340.2,-36.06C340.2,-59.2 340.2,-99.09 340.2,-122.27"/>
</g>
</g>
</svg>
